<svg width="110" height="110" viewBox="0 0 110 110" fill="none" xmlns="http://www.w3.org/2000/svg"><path d="M51.2042 1.47665C53.3518 -0.492218 56.6482 -0.492218 58.7958 1.47665C60.5371 3.0731 63.0912 3.40936 65.1864 2.318C67.7704 0.972041 70.9545 1.82523 72.5193 4.28284C73.7881 6.27558 76.1682 7.26143 78.4744 6.74953C81.3187 6.11822 84.1735 7.76644 85.0489 10.5453C85.7587 12.7985 87.8025 14.3668 90.1627 14.4693C93.0734 14.5956 95.4044 16.9266 95.5307 19.8373C95.6332 22.1975 97.2015 24.2413 99.4547 24.9511C102.234 25.8265 103.882 28.6813 103.25 31.5256C102.739 33.8318 103.724 36.2119 105.717 37.4807C108.175 39.0455 109.028 42.2296 107.682 44.8136C106.591 46.9088 106.927 49.4629 108.523 51.2042C110.492 53.3518 110.492 56.6482 108.523 58.7958C106.927 60.5371 106.591 63.0912 107.682 65.1864C109.028 67.7704 108.175 70.9545 105.717 72.5193C103.724 73.7881 102.739 76.1682 103.25 78.4744C103.882 81.3187 102.234 84.1735 99.4547 85.0489C97.2015 85.7587 95.6332 87.8025 95.5307 90.1627C95.4044 93.0734 93.0734 95.4044 90.1627 95.5307C87.8025 95.6332 85.7587 97.2015 85.0489 99.4547C84.1735 102.234 81.3187 103.882 78.4744 103.25C76.1682 102.739 73.7881 103.724 72.5193 105.717C70.9545 108.175 67.7704 109.028 65.1864 107.682C63.0912 106.591 60.5371 106.927 58.7958 108.523C56.6482 110.492 53.3518 110.492 51.2042 108.523C49.4629 106.927 46.9088 106.591 44.8136 107.682C42.2296 109.028 39.0455 108.175 37.4807 105.717C36.2119 103.724 33.8318 102.739 31.5256 103.25C28.6813 103.882 25.8265 102.234 24.9511 99.4547C24.2413 97.2015 22.1975 95.6332 19.8373 95.5307C16.9266 95.4044 14.5956 93.0734 14.4693 90.1627C14.3668 87.8025 12.7985 85.7587 10.5453 85.0489C7.76644 84.1735 6.11822 81.3187 6.74953 78.4744C7.26143 76.1682 6.27557 73.7881 4.28284 72.5193C1.82523 70.9545 0.972041 67.7704 2.318 65.1864C3.40936 63.0912 3.0731 60.5371 1.47665 58.7958C-0.492218 56.6482 -0.492218 53.3518 1.47665 51.2042C3.0731 49.4629 3.40936 46.9088 2.318 44.8136C0.972041 42.2296 1.82523 39.0455 4.28284 37.4807C6.27558 36.2119 7.26143 33.8318 6.74953 31.5256C6.11822 28.6813 7.76644 25.8265 10.5453 24.9511C12.7985 24.2413 14.3668 22.1975 14.4693 19.8373C14.5956 16.9266 16.9266 14.5956 19.8373 14.4693C22.1975 14.3668 24.2413 12.7985 24.9511 10.5453C25.8265 7.76644 28.6813 6.11822 31.5256 6.74953C33.8318 7.26143 36.2119 6.27557 37.4807 4.28284C39.0455 1.82523 42.2296 0.972041 44.8136 2.318C46.9088 3.40936 49.4629 3.0731 51.2042 1.47665Z" fill="#0070F0"></path><path d="M88.6927 45.7669C93.6209 64.5521 82.3876 83.7756 63.6024 88.7039C44.8171 93.6321 25.5936 82.3987 20.6654 63.6135C15.7372 44.8283 26.9705 25.6048 45.7557 20.6765C64.541 15.7483 83.7645 26.9817 88.6927 45.7669Z" fill="white"></path><path d="M94.8025 48.1824C94.563 48.2393 94.3247 48.2349 94.0878 48.1693C93.8518 48.1079 93.6407 47.9706 93.4544 47.7574C93.2692 47.5484 93.1329 47.26 93.0454 46.8922L92.867 46.1417L91.1479 46.5504L90.9344 45.6524L95.4118 44.5879L95.8037 46.2365C95.8861 46.5829 95.8963 46.8922 95.8345 47.1644C95.7728 47.4366 95.6513 47.6575 95.4703 47.8271C95.2902 48.0009 95.0676 48.1193 94.8025 48.1824ZM93.7611 46.6814C93.8201 46.9294 93.9194 47.1001 94.0591 47.1934C94.203 47.2857 94.3776 47.3075 94.5829 47.2587C95.0191 47.155 95.1792 46.8594 95.0633 46.3718L94.894 45.6598L93.5919 45.9694L93.7611 46.6814Z" fill="white"></path><path d="M91.9079 51.7988C91.8726 51.4799 91.8953 51.1855 91.976 50.9157C92.0572 50.6502 92.1922 50.4318 92.3811 50.2605C92.57 50.0893 92.804 49.986 93.0832 49.9507L93.1919 50.9337C93.0055 50.9676 92.8642 51.0495 92.7681 51.1796C92.6724 51.314 92.6361 51.4861 92.6593 51.6958C92.683 51.9099 92.7519 52.0725 92.8659 52.1837C92.9843 52.2944 93.1265 52.3406 93.2925 52.3222C93.428 52.3073 93.5348 52.2534 93.613 52.1607C93.6912 52.0681 93.7473 51.9557 93.7813 51.8237C93.8202 51.6956 93.8581 51.5189 93.8951 51.2937C93.9496 50.9869 94.008 50.735 94.0702 50.538C94.1373 50.3448 94.2485 50.1711 94.4039 50.0168C94.5642 49.8664 94.7885 49.7752 95.0768 49.7433C95.3477 49.7133 95.5911 49.7549 95.8071 49.8681C96.023 49.9813 96.197 50.1545 96.3289 50.3875C96.4652 50.6201 96.5508 50.8937 96.5856 51.2082C96.6378 51.6801 96.5643 52.0752 96.3651 52.3935C96.1708 52.7157 95.87 52.9149 95.4627 52.9909L95.3511 51.9817C95.5074 51.9555 95.6288 51.8735 95.7152 51.7357C95.8065 51.6018 95.8408 51.4322 95.8181 51.2268C95.7983 51.0477 95.7365 50.9086 95.6326 50.8095C95.5293 50.7148 95.3902 50.6771 95.2155 50.6965C95.0931 50.71 94.9948 50.7607 94.9205 50.8485C94.8511 50.9402 94.7967 51.048 94.7573 51.1717C94.7228 51.2994 94.6848 51.4761 94.6435 51.7018C94.589 52.0085 94.5284 52.2607 94.4618 52.4582C94.3952 52.6557 94.282 52.8319 94.1223 52.9866C93.9625 53.1414 93.7406 53.2345 93.4566 53.2659C93.212 53.293 92.9778 53.2548 92.7541 53.1513C92.5303 53.0478 92.3416 52.8808 92.1878 52.6501C92.0384 52.419 91.9451 52.1352 91.9079 51.7988Z" fill="white"></path><path d="M96.5962 58.6222L93.6209 57.0193L92.0189 56.9943L92.0334 56.0713L93.6354 56.0964L96.6595 54.5809L96.6432 55.6225L94.5246 56.5785L96.6123 57.5937L96.5962 58.6222Z" fill="white"></path><path d="M94.0507 59.7365C94.4981 59.8063 94.8821 59.9686 95.2027 60.2232C95.5269 60.4829 95.7597 60.8017 95.9009 61.1797C96.0458 61.5626 96.0844 61.9713 96.0166 62.4056C95.9373 62.9137 95.7376 63.3385 95.4174 63.6801C95.0972 64.0216 94.695 64.2325 94.2109 64.3126L94.3746 63.2638C94.608 63.1934 94.7939 63.0712 94.9323 62.897C95.07 62.7272 95.1582 62.5185 95.1968 62.271C95.2381 62.0061 95.2121 61.7595 95.1187 61.5314C95.0289 61.3083 94.8803 61.1205 94.6727 60.968C94.4645 60.8199 94.2084 60.7221 93.9044 60.6746C93.6047 60.6279 93.331 60.643 93.0832 60.72C92.839 60.802 92.6381 60.9353 92.4803 61.1198C92.3261 61.3093 92.2284 61.5365 92.1871 61.8014C92.1485 62.0489 92.1689 62.2746 92.2483 62.4783C92.3314 62.687 92.4734 62.8604 92.6743 62.9985L92.5106 64.0473C92.0696 63.8228 91.7487 63.4991 91.5477 63.0763C91.3504 62.6585 91.2918 62.1933 91.3717 61.6808C91.4395 61.2465 91.5985 60.8687 91.8489 60.5474C92.1029 60.2312 92.4217 59.9984 92.8053 59.8492C93.1883 59.7043 93.6034 59.6668 94.0507 59.7365Z" fill="white"></path><path d="M93.2106 71.5811L88.8766 70.033L89.1871 69.1637L91.0312 69.8224L91.6944 67.9659L89.8503 67.3072L90.1608 66.4379L94.4948 67.986L94.1843 68.8553L92.4022 68.2188L91.7391 70.0753L93.5211 70.7119L93.2106 71.5811Z" fill="white"></path><path d="M86.2308 74.6588C86.4481 74.2869 86.735 73.9963 87.0914 73.7871C87.4478 73.5779 87.833 73.4721 88.2468 73.4695C88.6645 73.4692 89.0688 73.5833 89.4597 73.8117C89.8468 74.0379 90.1408 74.3319 90.3417 74.6937C90.5465 75.0577 90.6452 75.4463 90.638 75.8596C90.6307 76.2728 90.5184 76.6653 90.3011 77.0373C90.0815 77.413 89.7946 77.7035 89.4404 77.9089C89.084 78.1181 88.698 78.221 88.2826 78.2175C87.8688 78.22 87.4683 78.1082 87.0812 77.882C86.6903 77.6536 86.3924 77.3573 86.1877 76.9933C85.9845 76.6353 85.8866 76.2497 85.8939 75.8365C85.9011 75.4233 86.0134 75.0307 86.2308 74.6588ZM86.9423 75.0746C86.8026 75.3137 86.7327 75.5554 86.7325 75.7996C86.7361 76.0461 86.8085 76.2794 86.9498 76.4994C87.0911 76.7194 87.2945 76.907 87.5602 77.0622C87.8259 77.2175 88.0873 77.3015 88.3445 77.3144C88.6056 77.3294 88.8424 77.2769 89.0551 77.1569C89.2678 77.0368 89.444 76.8572 89.5838 76.6181C89.7235 76.379 89.7945 76.1355 89.7969 75.8874C89.7971 75.6431 89.7266 75.411 89.5853 75.191C89.4479 74.9732 89.2463 74.7867 88.9806 74.6315C88.715 74.4762 88.4516 74.3911 88.1906 74.376C87.9296 74.3609 87.6908 74.4123 87.4743 74.5302C87.2594 74.654 87.0821 74.8355 86.9423 75.0746Z" fill="white"></path><path d="M83.5833 85.4156L80.107 82.3998L80.7119 81.7025L82.973 83.6641L81.5199 80.7712L81.9779 80.2433L85.0512 81.2686L82.7901 79.307L83.3951 78.6097L86.8714 81.6255L86.1844 82.4174L82.6404 81.2806L84.266 84.6287L83.5833 85.4156Z" fill="white"></path><path d="M80.1448 87.1181L79.4201 86.2203L78.2144 87.1935L77.7547 86.624L78.9604 85.6508L78.1943 84.7016L76.8347 85.799L76.3626 85.2141L78.4405 83.537L81.3352 87.1233L79.2572 88.8005L78.7852 88.2155L80.1448 87.1181Z" fill="white"></path><path d="M74.4282 91.8332L74.0354 91.2001L75.0775 90.5536L73.0441 87.2759L73.8285 86.7893L75.8619 90.0669L76.904 89.4204L77.2968 90.0535L74.4282 91.8332Z" fill="white"></path><path d="M68.4079 89.5039L70.0781 90.7112L70.4737 90.5299L69.7265 88.8996L70.5657 88.515L72.4831 92.6987L70.9127 93.4184C70.589 93.5668 70.2867 93.6352 70.0059 93.6237C69.7268 93.6162 69.4865 93.5402 69.2849 93.3957C69.0811 93.257 68.9242 93.0677 68.8144 92.828C68.688 92.5523 68.6535 92.2659 68.7107 91.9689C68.7698 91.6759 68.938 91.415 69.2152 91.1864L67.4369 89.9489L68.4079 89.5039ZM70.7621 91.1593L70.0609 91.4807C69.8331 91.585 69.688 91.7168 69.6255 91.876C69.5649 92.0392 69.5795 92.2186 69.6692 92.4144C69.7571 92.6062 69.8808 92.7285 70.0403 92.7811C70.2017 92.8377 70.3962 92.8138 70.624 92.7094L71.3253 92.388L70.7621 91.1593Z" fill="white"></path><path d="M66.7873 94.8815L65.3639 90.505L66.2417 90.2195L67.6651 94.596L66.7873 94.8815Z" fill="white"></path><path d="M64.5464 93.1272C64.6477 93.5684 64.6397 93.9852 64.5223 94.3774C64.4016 94.775 64.192 95.1095 63.8935 95.381C63.5918 95.6577 63.2267 95.8452 62.7983 95.9436C62.297 96.0587 61.8284 96.031 61.3924 95.8605C60.9564 95.69 60.6112 95.3949 60.357 94.9753L61.3916 94.7377C61.5437 94.9283 61.7262 95.0555 61.9393 95.1193C62.1481 95.1841 62.3746 95.1885 62.6188 95.1324C62.8801 95.0724 63.0993 94.9567 63.2765 94.7853C63.4503 94.6191 63.5694 94.4113 63.634 94.162C63.6942 93.9136 63.6899 93.6395 63.621 93.3396C63.5532 93.044 63.4375 92.7955 63.274 92.594C63.1071 92.3978 62.9088 92.2607 62.6789 92.1827C62.4457 92.1099 62.1985 92.1036 61.9371 92.1636C61.6929 92.2196 61.491 92.3223 61.3314 92.4717C61.1685 92.6264 61.0602 92.8226 61.0066 93.0605L59.9719 93.298C60.0166 92.8052 60.198 92.387 60.516 92.0434C60.8307 91.705 61.2408 91.4778 61.7463 91.3617C62.1747 91.2634 62.5845 91.2708 62.9758 91.3839C63.3638 91.5022 63.6983 91.7118 63.9793 92.0126C64.2561 92.3144 64.4451 92.6859 64.5464 93.1272Z" fill="white"></path><path d="M54.1094 92.9854L55.9411 92.9166L56.2112 92.0289L57.1798 91.9925L55.699 96.6601L54.6251 96.7005L52.7982 92.1571L53.7734 92.1205L54.1094 92.9854ZM54.3875 93.7139L55.1252 95.6128L55.7184 93.6639L54.3875 93.7139Z" fill="white"></path><path d="M48.929 92.3616L47.4265 92.1559L47.5258 91.4308L49.9428 91.7618L49.3183 96.3214L48.4038 96.1962L48.929 92.3616Z" fill="white"></path><path d="M44.2787 91.3474L42.814 90.9542L43.0038 90.2473L45.3599 90.8799L44.1666 95.3247L43.2751 95.0853L44.2787 91.3474Z" fill="white"></path><path d="M35.8044 92.3161L38.3774 90.125L38.982 88.6413L39.8369 88.9896L39.2323 90.4734L39.5473 93.8412L38.5826 93.4481L38.4604 91.1271L36.7569 92.7042L35.8044 92.3161Z" fill="white"></path><path d="M28.6758 87.7945L32.6301 84.8975L33.5634 85.5183L32.4199 90.285L31.5964 89.7372L32.5691 85.9893L29.4938 88.3386L28.6758 87.7945Z" fill="white"></path><path d="M26.5143 80.6423L27.826 81.9226L28.6556 81.5069L29.3491 82.1839L24.9457 84.326L24.1766 83.5753L26.2115 79.1213L26.9098 79.8029L26.5143 80.6423ZM26.1778 81.3457L25.3095 83.1886L27.1309 82.276L26.1778 81.3457Z" fill="white"></path><path d="M23.4154 76.4795L22.5305 75.2479L23.1249 74.8209L24.5484 76.8021L20.8109 79.4874L20.2723 78.7378L23.4154 76.4795Z" fill="white"></path><path d="M17.5828 74.35L21.5997 72.1041L22.0502 72.9098L18.0332 75.1557L17.5828 74.35Z" fill="white"></path><path d="M16.0958 71.2234C15.8977 70.7823 15.8102 70.3566 15.8331 69.9464C15.8543 69.5321 15.9847 69.1628 16.2245 68.8383C16.4584 68.5116 16.7859 68.2537 17.207 68.0646C17.628 67.8755 18.0383 67.8021 18.4379 67.8443C18.8317 67.8843 19.1905 68.034 19.5141 68.2934C19.836 68.5488 20.096 68.897 20.2941 69.3381L20.9531 70.8057L16.7548 72.691L16.0958 71.2234ZM19.5918 69.6896C19.3938 69.2485 19.1204 68.9617 18.7718 68.8291C18.4231 68.6966 18.0303 68.7284 17.5932 68.9247C17.1561 69.121 16.8693 69.3943 16.7328 69.7448C16.5922 70.097 16.621 70.4937 16.819 70.9347L17.0864 71.5302L19.8592 70.285L19.5918 69.6896Z" fill="white"></path><path d="M16.9931 61.4674L17.4101 63.2523L18.3331 63.3481L18.5536 64.2919L13.6892 63.729L13.4446 62.6825L17.556 60.0223L17.778 60.9726L16.9931 61.4674ZM16.331 61.8794L14.6078 62.966L16.634 63.1764L16.331 61.8794Z" fill="white"></path><path d="M12.6204 54.3419L13.3642 54.2997L13.4337 55.5241L17.2846 55.3058L17.3368 56.2274L13.4859 56.4457L13.5553 57.6701L12.8115 57.7123L12.6204 54.3419Z" fill="white"></path><path d="M13.5788 51.3982L14.7299 51.4772L14.836 49.9314L15.5662 49.9816L15.46 51.5274L16.677 51.611L16.7967 49.8678L17.5465 49.9193L17.3636 52.5833L12.7657 52.2676L12.9486 49.6036L13.6985 49.6551L13.5788 51.3982Z" fill="white"></path><path d="M13.7386 45.4165C13.8379 44.9433 14.0175 44.5476 14.2774 44.2293C14.5382 43.9068 14.861 43.6848 15.2457 43.5635C15.6271 43.4369 16.0437 43.421 16.4954 43.5158C16.9471 43.6106 17.3221 43.7926 17.6204 44.0618C17.9153 44.3258 18.1174 44.6578 18.2265 45.058C18.3366 45.4539 18.3419 45.8884 18.2426 46.3616L17.9123 47.9361L13.4082 46.991L13.7386 45.4165ZM17.468 46.2328C17.5673 45.7596 17.515 45.3668 17.311 45.0545C17.1071 44.7423 16.7706 44.5369 16.3017 44.4385C15.8328 44.3401 15.4401 44.3925 15.1235 44.5955C14.8026 44.7977 14.5925 45.1353 14.4932 45.6086L14.3592 46.2474L17.3339 46.8716L17.468 46.2328Z" fill="white"></path><path d="M19.326 34.6403C19.5482 34.7464 19.7309 34.8993 19.8742 35.0992C20.0193 35.2951 20.0975 35.5345 20.1086 35.8174C20.1216 36.0963 20.0467 36.4064 19.8839 36.7476L19.5517 37.4438L21.1464 38.2048L20.7489 39.0379L16.5954 37.0559L17.3251 35.5266C17.4785 35.2052 17.6646 34.958 17.8836 34.7849C18.1026 34.6118 18.3358 34.516 18.5832 34.4977C18.8324 34.4754 19.0801 34.523 19.326 34.6403ZM19.1944 36.4624C19.3042 36.2323 19.3341 36.0371 19.2839 35.8768C19.2298 35.7146 19.1075 35.5881 18.9171 35.4972C18.5125 35.3041 18.2023 35.4337 17.9865 35.886L17.6713 36.5465L18.8792 37.1229L19.1944 36.4624Z" fill="white"></path><path d="M20.1864 32.1177L21.1585 32.7392L21.9931 31.4337L22.6097 31.8279L21.7752 33.1334L22.8029 33.7904L23.744 32.3182L24.3773 32.7231L22.939 34.973L19.0559 32.4906L20.4942 30.2407L21.1275 30.6456L20.1864 32.1177Z" fill="white"></path><path d="M27.1299 29.3768L25.1014 29.013L24.8235 29.3479L26.2036 30.4931L25.6142 31.2034L22.0726 28.2646L23.1757 26.9352C23.403 26.6612 23.6458 26.4685 23.9038 26.3571C24.1586 26.2429 24.4081 26.2072 24.6524 26.25C24.8962 26.2866 25.1196 26.3892 25.3225 26.5576C25.5559 26.7513 25.7112 26.9943 25.7884 27.2868C25.8621 27.5765 25.8237 27.8845 25.6729 28.2106L27.812 28.5548L27.1299 29.3768ZM24.2908 28.9058L24.7834 28.3121C24.9434 28.1193 25.017 27.9376 25.0043 27.7671C24.9881 27.5938 24.8972 27.4384 24.7314 27.3009C24.5691 27.1661 24.4046 27.1096 24.2381 27.1314C24.0682 27.1503 23.9032 27.2562 23.7432 27.449L23.2506 28.0426L24.2908 28.9058Z" fill="white"></path><path d="M29.9479 26.7153C29.7138 26.9348 29.4646 27.0931 29.2003 27.1904C28.9392 27.2846 28.6834 27.3075 28.4331 27.259C28.1828 27.2105 27.9598 27.0852 27.7641 26.883L28.4856 26.2065C28.6245 26.3354 28.7748 26.3993 28.9365 26.3982C29.1015 26.3942 29.2609 26.32 29.4148 26.1757C29.5719 26.0284 29.6608 25.8758 29.6814 25.7178C29.699 25.5567 29.6507 25.4152 29.5365 25.2933C29.4433 25.1939 29.3361 25.1408 29.2151 25.1338C29.094 25.1268 28.9705 25.1492 28.8444 25.2011C28.7186 25.2468 28.5544 25.3224 28.352 25.4279C28.0738 25.5682 27.8372 25.6726 27.6422 25.7409C27.4474 25.8031 27.2417 25.8182 27.0251 25.7864C26.8086 25.7483 26.6011 25.6235 26.4027 25.4119C26.2163 25.2131 26.1036 24.9933 26.0647 24.7526C26.0258 24.5119 26.06 24.2689 26.1674 24.0236C26.2718 23.7751 26.4395 23.5425 26.6703 23.3261C27.0166 23.0013 27.3768 22.8232 27.751 22.7917C28.1254 22.754 28.4651 22.8753 28.7702 23.1556L28.0295 23.8502C27.9149 23.7408 27.7765 23.6928 27.6143 23.7062C27.4524 23.7135 27.2961 23.7878 27.1454 23.9291C27.0139 24.0523 26.9397 24.1852 26.9227 24.3277C26.9089 24.4672 26.9621 24.6011 27.0823 24.7294C27.1665 24.8191 27.2661 24.8674 27.3809 24.8742C27.4959 24.8748 27.6148 24.8538 27.7374 24.8111C27.8603 24.7621 28.0244 24.6866 28.2298 24.5843C28.508 24.444 28.7461 24.3412 28.9441 24.2761C29.1421 24.2109 29.351 24.1959 29.5706 24.2309C29.7903 24.266 29.9978 24.3877 30.1933 24.5961C30.3616 24.7757 30.4715 24.986 30.5228 25.2271C30.5742 25.4682 30.5537 25.7194 30.4613 25.9808C30.3659 26.2389 30.1948 26.4838 29.9479 26.7153Z" fill="white"></path><path d="M34.071 23.5473C33.7193 23.796 33.3379 23.9419 32.9269 23.9849C32.5159 24.0279 32.1214 23.965 31.7436 23.7961C31.3632 23.6236 31.0423 23.3526 30.7809 22.9829C30.522 22.6169 30.376 22.2276 30.3426 21.8151C30.3068 21.399 30.3776 21.0043 30.5552 20.6311C30.7327 20.2579 30.9973 19.9469 31.3491 19.6982C31.7043 19.447 32.0857 19.3011 32.4932 19.2606C32.9042 19.2176 33.2981 19.2836 33.6749 19.4586C34.0527 19.6274 34.3711 19.8949 34.63 20.261C34.8914 20.6306 35.04 21.0235 35.0759 21.4396C35.1128 21.8496 35.0424 22.2412 34.8649 22.6144C34.6874 22.9876 34.4227 23.2985 34.071 23.5473ZM33.5952 22.8744C33.8213 22.7145 33.9849 22.5234 34.0861 22.301C34.1848 22.0751 34.2153 21.8328 34.1777 21.5741C34.1401 21.3154 34.0324 21.0604 33.8548 20.8092C33.6771 20.5579 33.4738 20.3733 33.245 20.2552C33.0136 20.1335 32.7762 20.0833 32.5329 20.1047C32.2895 20.126 32.0548 20.2166 31.8287 20.3765C31.6026 20.5364 31.4372 20.7288 31.3324 20.9536C31.2312 21.1759 31.1994 21.4165 31.237 21.6752C31.2721 21.9303 31.3785 22.1835 31.5561 22.4347C31.7338 22.686 31.9383 22.8724 32.1697 22.9941C32.4011 23.1158 32.6398 23.1677 32.8856 23.15C33.1325 23.1261 33.3691 23.0342 33.5952 22.8744Z" fill="white"></path><path d="M41.9093 19.4494L41.0687 19.8308L37.8605 17.8182L39.1653 20.6943L38.3247 21.0757L36.4206 16.8786L37.2612 16.4973L40.4721 18.5158L39.1646 15.6338L40.0052 15.2524L41.9093 19.4494Z" fill="white"></path><path d="M47.749 17.0322L45.9658 17.4562L45.8735 18.3795L44.9306 18.6036L45.4747 13.7371L46.5203 13.4885L49.1963 17.5895L48.2469 17.8152L47.749 17.0322ZM47.3345 16.3717L46.2413 14.6527L46.0387 16.6798L47.3345 16.3717Z" fill="white"></path><path d="M52.8586 16.6295L54.3723 16.5378L54.4165 17.2684L51.9814 17.4158L51.7034 12.822L52.6248 12.7662L52.8586 16.6295Z" fill="white"></path><path d="M57.8362 12.825L57.5902 17.4206L56.6684 17.3712L56.9144 12.7756L57.8362 12.825Z" fill="white"></path><path d="M62.6925 13.4031L62.597 14.142L61.3807 13.9847L60.886 17.8099L59.9705 17.6915L60.4653 13.8663L59.2491 13.7089L59.3446 12.97L62.6925 13.4031Z" fill="white"></path><path d="M68.3432 14.8784L66.081 17.389L65.677 18.9394L64.7837 18.7067L65.1878 17.1563L64.4321 13.8592L65.4402 14.1219L65.8669 16.4066L67.3479 14.619L68.3432 14.8784Z" fill="white"></path><path d="M75.0202 17.8876L74.7018 18.5611L73.5931 18.037L71.9446 21.5242L71.1101 21.1297L72.7586 17.6425L71.6498 17.1184L71.9682 16.4448L75.0202 17.8876Z" fill="white"></path><path d="M76.3074 24.1639L76.4104 22.1055L76.0429 21.8725L75.0824 23.387L74.3029 22.8926L76.7676 19.0061L78.2265 19.9313C78.5271 20.122 78.7491 20.3382 78.8925 20.58C79.0381 20.8182 79.1053 21.0611 79.0939 21.3089C79.0885 21.5554 79.0152 21.79 78.874 22.0127C78.7115 22.2688 78.4902 22.4537 78.2098 22.5675C77.9319 22.6775 77.6216 22.6784 77.2789 22.5704L77.2094 24.7359L76.3074 24.1639ZM76.4137 21.2878L77.0651 21.701C77.2767 21.8352 77.4663 21.8851 77.6338 21.8508C77.8036 21.8128 77.9462 21.7028 78.0616 21.5209C78.1746 21.3427 78.2097 21.1724 78.167 21.01C78.1266 20.8439 78.0006 20.6937 77.789 20.5595L77.1375 20.1464L76.4137 21.2878Z" fill="white"></path><path d="M80.9358 26.8152L79.5381 25.6293L78.7395 26.1017L78.0005 25.4747L82.2441 23.0312L83.0636 23.7265L81.3438 28.3114L80.5997 27.6801L80.9358 26.8152ZM81.2225 26.09L81.9603 24.1911L80.2069 25.2283L81.2225 26.09Z" fill="white"></path><path d="M87.2603 28.2123L83.7556 31.1951L83.1574 30.4921L86.6621 27.5094L87.2603 28.2123Z" fill="white"></path><path d="M90.1725 32.1221L89.5708 32.5614L88.8477 31.5708L85.7322 33.8448L85.188 33.0993L88.3035 30.8252L87.5805 29.8347L88.1823 29.3954L90.1725 32.1221Z" fill="white"></path><path d="M87.8663 37.5731C87.7107 37.2924 87.6182 37.012 87.5886 36.7319C87.5612 36.4557 87.6016 36.2021 87.7098 35.9713C87.8181 35.7404 87.9942 35.5549 88.2381 35.4147L88.7175 36.2798C88.5586 36.3829 88.4598 36.513 88.4212 36.6701C88.3847 36.831 88.4177 37.0037 88.5199 37.1883C88.6243 37.3767 88.7505 37.5002 88.8986 37.5588C89.0506 37.6154 89.1996 37.6031 89.3457 37.5222C89.4649 37.4561 89.5427 37.3653 89.5791 37.2496C89.6155 37.134 89.624 37.0087 89.6045 36.8737C89.5909 36.7405 89.5578 36.5629 89.5051 36.3408C89.4372 36.0368 89.3939 35.7818 89.3753 35.576C89.3627 35.3719 89.3984 35.1688 89.4823 34.9665C89.5722 34.7659 89.744 34.5953 89.9977 34.4547C90.2361 34.3226 90.4767 34.2672 90.7197 34.2883C90.9626 34.3095 91.1898 34.4022 91.4014 34.5664C91.6168 34.7284 91.8012 34.9479 91.9546 35.2247C92.1847 35.6399 92.2692 36.0328 92.2082 36.4033C92.1532 36.7755 91.9524 37.0752 91.6059 37.3024L91.1138 36.4143C91.2479 36.3299 91.3283 36.2074 91.3549 36.0469C91.3876 35.8882 91.3538 35.7184 91.2537 35.5377C91.1663 35.3801 91.0556 35.2756 90.9216 35.2242C90.7898 35.1767 90.6469 35.1955 90.4931 35.2807C90.3855 35.3404 90.3143 35.4251 90.2796 35.5347C90.2509 35.6461 90.2422 35.7665 90.2536 35.8959C90.271 36.027 90.3041 36.2046 90.3529 36.4288C90.4209 36.7329 90.4623 36.9889 90.477 37.1968C90.4917 37.4047 90.4552 37.6109 90.3674 37.8153C90.2797 38.0197 90.1109 38.1912 89.861 38.3297C89.6457 38.449 89.4148 38.504 89.1685 38.4948C88.9222 38.4855 88.6836 38.4042 88.4528 38.2506C88.2258 38.095 88.0303 37.8691 87.8663 37.5731Z" fill="white"></path><path fill-rule="evenodd" clip-rule="evenodd" d="M54.5086 100.38C79.2997 100.38 99.3968 80.2825 99.3968 55.4914C99.3968 30.7003 79.2997 10.6032 54.5086 10.6032C29.7175 10.6032 9.62037 30.7003 9.62037 55.4914C9.62037 80.2825 29.7175 100.38 54.5086 100.38ZM54.5086 102.175C80.2913 102.175 101.192 81.2741 101.192 55.4914C101.192 29.7087 80.2913 8.80766 54.5086 8.80766C28.7259 8.80766 7.82484 29.7087 7.82484 55.4914C7.82484 81.2741 28.7259 102.175 54.5086 102.175Z" fill="white"></path><path d="M49.0991 66.6153C45.2243 67.4903 41.7869 69.2402 39.162 71.5526C37.3496 70.0527 35.7872 68.2403 34.4748 66.0529C32.4124 62.678 31.4124 58.6157 31.4124 53.866C31.4124 49.3662 32.4124 45.3039 34.5373 41.7416C36.6622 38.1792 39.5995 35.4294 43.3493 33.4295C47.0367 31.4296 51.2865 30.4296 55.9737 30.4296C59.8485 30.4296 63.4109 31.1171 66.6607 32.492C69.848 33.8044 72.4729 35.7419 74.6603 38.2417L68.0356 44.3664C64.8483 40.9916 60.9735 39.3042 56.4737 39.3042C53.6613 39.3042 51.099 39.9291 48.9116 41.1166C46.6617 42.304 44.9743 44.0539 43.7243 46.2413C42.4744 48.4287 41.8494 50.9911 41.8494 53.866C41.8494 56.8658 42.4744 59.4282 43.6618 61.5531C44.8493 63.678 46.4742 65.3029 48.5366 66.3654C48.6303 66.3966 48.7241 66.4435 48.8178 66.4903C48.9116 66.5372 49.0053 66.5841 49.0991 66.6153Z" fill="#0070F0"></path><path d="M64.3488 65.4313V53.3693H73.7859V74.1808C71.036 70.8685 66.7862 68.3061 61.724 67.1187C62.6614 66.6812 63.5364 66.1187 64.3488 65.4313Z" fill="#0070F0"></path></svg>