<svg width="589" height="589" viewBox="0 0 589 589" fill="none" xmlns="http://www.w3.org/2000/svg">
<path d="M226.578 534.867C226.595 532.381 227.387 529.852 230.054 529.215C231.846 528.787 233.797 529.182 235.519 529.735C235.824 529.834 236.128 529.94 236.427 530.056C236.521 530.093 236.614 530.131 236.707 530.169C236.684 530.159 236.587 530.117 236.688 530.162C236.884 530.267 237.123 530.248 237.299 530.113C237.475 529.978 237.555 529.751 237.503 529.535C237.468 529.428 237.45 529.315 237.451 529.201C237.422 528.852 237.433 528.5 237.483 528.153C237.719 526.877 238.397 525.725 239.399 524.9C242.296 522.288 246.563 521.884 249.9 523.905C250.619 524.329 251.273 524.855 251.841 525.466C252.195 525.864 252.974 525.445 252.768 524.927C251.483 521.694 252.363 517.814 255.261 515.77C257.12 514.458 259.378 513.86 261.597 513.513C262.165 513.424 262.084 512.583 261.597 512.443C258.694 511.605 255.664 510.542 253.263 508.648C251.963 507.623 250.711 506.184 250.721 504.435C250.731 502.848 251.784 501.512 252.941 500.53C254.727 499.125 256.783 498.103 258.981 497.527C262.313 496.59 265.767 496.159 269.226 496.251C269.674 496.257 270.002 495.617 269.618 495.304C265.478 491.935 261.297 488.322 258.107 484.005C256.836 482.285 254.899 479.577 255.43 477.328C255.802 475.75 257.542 475.315 259.145 475.321C261.947 475.332 264.756 476.369 267.257 477.549C271.43 479.575 275.266 482.234 278.626 485.432C278.806 485.603 279.078 485.635 279.292 485.51C279.507 485.385 279.613 485.134 279.554 484.893C277.373 478.079 275.445 470.993 275.01 463.82C274.835 461.691 274.917 459.549 275.254 457.439C275.431 456.128 275.914 454.876 276.664 453.786C277.152 453.085 277.968 452.686 278.821 452.73C279.833 452.876 280.775 453.333 281.517 454.037C284.399 456.501 286.143 460.299 287.444 463.774C289.645 469.656 290.745 475.936 291.241 482.179C291.317 483.132 291.378 484.085 291.425 485.04C291.434 485.312 291.637 485.538 291.907 485.574C292.177 485.611 292.433 485.447 292.514 485.187C294.108 480.947 295.958 476.787 297.924 472.709C299.612 469.157 301.482 465.694 303.527 462.334C305.333 459.225 307.524 456.356 310.047 453.794C311.746 452.161 314.079 450.346 316.597 450.675C318.657 450.945 319.511 452.61 319.611 454.556C319.76 457.449 318.852 460.394 317.928 463.098C316.71 466.553 315.278 469.929 313.641 473.207C311.397 477.81 308.884 482.256 306.292 486.668C306.25 486.74 306.205 486.811 306.161 486.883C305.851 487.385 306.448 487.872 306.92 487.642C308.497 486.871 310.126 486.193 311.763 485.562C314.775 484.4 317.943 483.315 321.168 482.964C323.202 482.742 326.694 482.709 327.067 485.415C327.239 486.666 326.587 487.928 325.938 488.947C325.051 490.275 324.014 491.496 322.848 492.586C321.179 494.22 319.375 495.709 317.454 497.038C317.223 497.183 317.131 497.475 317.237 497.726C317.343 497.978 317.616 498.116 317.881 498.052C321.249 497.335 324.683 496.98 328.126 496.993C330.181 497.014 332.596 497.112 334.384 498.252C336.523 499.616 335.82 502.887 334.925 504.815C334.012 506.77 332.572 508.431 330.766 509.611C330.257 509.932 330.576 510.841 331.194 510.625C332.009 510.324 332.893 510.261 333.742 510.444C335.958 510.978 335.935 513.676 335.689 515.49C335.652 515.76 335.75 516.12 336.076 516.172C338.84 516.613 342.131 517.598 343.418 520.355C343.718 521.005 343.878 521.711 343.886 522.427C343.889 522.653 343.878 522.879 343.852 523.103C343.862 523.016 343.851 523.141 343.824 523.255C343.664 523.95 344.733 524.247 344.894 523.55C345.136 522.275 344.954 520.956 344.376 519.795C342.943 516.788 339.428 515.59 336.371 515.102L336.758 515.785C337.073 513.465 336.993 510.371 334.358 509.468C333.225 509.126 332.013 509.156 330.899 509.555L331.326 510.569C332.969 509.496 334.345 508.061 335.349 506.375C336.234 504.929 336.744 503.284 336.833 501.591C336.887 500.377 336.774 499.144 335.974 498.18C334.591 496.516 332.071 496.139 330.048 495.969C327.437 495.798 324.816 495.893 322.224 496.253C320.673 496.441 319.117 496.664 317.586 496.982L318.014 497.996C319.78 496.772 321.455 495.42 323.024 493.95C324.288 492.804 325.436 491.535 326.45 490.162C327.383 488.997 327.982 487.6 328.184 486.121C328.291 484.845 327.743 483.602 326.73 482.819C325.633 482.086 324.333 481.716 323.015 481.763C319.595 481.691 316.125 482.801 312.942 483.943C310.7 484.736 308.502 485.651 306.36 486.684L307.119 487.443C309.509 483.568 311.698 479.552 313.747 475.488C315.46 472.144 316.995 468.712 318.345 465.205C319.478 462.203 320.533 459.025 320.713 455.797C320.831 453.682 320.444 451.158 318.371 450.079C316.093 448.893 313.443 449.813 311.476 451.177C308.673 453.122 306.498 455.923 304.573 458.7C302.282 462.076 300.22 465.601 298.402 469.253C295.849 474.254 293.561 479.385 291.547 484.626C291.513 484.715 291.478 484.804 291.445 484.893L292.534 485.04C292.191 478.237 291.215 471.373 289.021 464.903C287.677 460.941 285.866 456.693 282.814 453.722C281.191 452.142 278.657 450.735 276.565 452.341C275.581 453.195 274.881 454.33 274.56 455.594C274.022 457.518 273.775 459.513 273.828 461.511C273.827 468.382 275.518 475.279 277.449 481.827C277.78 482.951 278.126 484.072 278.484 485.188L279.412 484.648C276.219 481.618 272.616 479.052 268.708 477.026C265.919 475.615 262.834 474.399 259.679 474.227C257.837 474.127 255.508 474.479 254.612 476.331C253.541 478.545 254.978 481.266 256.155 483.121C259.385 488.207 264.21 492.326 268.835 496.089L269.227 495.142C265.872 495.062 262.522 495.448 259.273 496.291C256.803 496.893 254.48 497.988 252.444 499.511C251.032 500.634 249.821 502.168 249.636 504.017C249.448 505.892 250.474 507.598 251.795 508.843C254.374 511.273 257.963 512.549 261.302 513.513V512.443C257.804 512.992 253.938 514.325 252.118 517.611C251.124 519.533 250.842 521.745 251.32 523.856C251.405 524.322 251.532 524.779 251.698 525.222L252.626 524.682C250.832 522.747 248.352 521.591 245.716 521.464C242.071 521.331 237.469 523.646 236.507 527.416C236.285 528.203 236.26 529.032 236.434 529.83L237.249 529.204C234.17 527.832 229.329 526.891 226.9 529.894C225.775 531.285 225.482 533.126 225.47 534.867C225.48 535.166 225.725 535.403 226.024 535.403C226.323 535.403 226.569 535.166 226.579 534.867L226.578 534.867Z" fill="black"/>
<path d="M299.138 512.83C298.75 511.602 298.269 510.406 297.699 509.251C296.806 507.411 295.65 505.453 293.899 504.309C292.204 503.121 289.874 503.47 288.602 505.104C287.373 506.814 287.774 509.261 288.269 511.157C288.695 512.781 289.295 514.355 290.06 515.85L290.686 515.035C288.219 514.029 284.963 513.608 282.534 514.894C281.484 515.449 280.772 516.424 281.196 517.633C281.584 518.737 282.557 519.602 283.449 520.307C284.144 520.863 284.88 521.365 285.651 521.809V520.851C283.443 522.286 282.069 524.985 283.724 527.37C284.128 527.953 285.09 527.399 284.682 526.811C283.858 525.734 283.891 524.23 284.761 523.191C285.16 522.649 285.651 522.182 286.211 521.809C286.378 521.708 286.48 521.526 286.48 521.33C286.48 521.135 286.378 520.953 286.211 520.851C285.483 520.437 284.789 519.967 284.134 519.444C283.454 518.9 281.982 517.789 282.183 516.754C282.315 516.069 283.291 515.714 283.855 515.533C284.843 515.244 285.878 515.155 286.901 515.271C288.099 515.376 289.275 515.657 290.391 516.105C290.876 516.303 291.215 515.675 291.018 515.29C290.49 514.244 290.046 513.158 289.688 512.043C289.129 510.335 288.536 508.221 289.146 506.449C289.736 504.738 291.728 504.29 293.19 505.173C294.786 506.136 295.819 507.959 296.627 509.58C297.203 510.72 297.686 511.906 298.068 513.125C298.277 513.806 299.348 513.516 299.138 512.831V512.83Z" fill="black"/>
<rect x="186.695" y="38.4167" width="376.389" height="271.8" rx="24.4048" fill="white"/>
<path d="M549.285 309.107H203.905C202.851 309.107 201.796 309.114 200.742 309.107C193.676 309.148 187.9 303.482 187.804 296.416C187.752 293.016 187.804 289.611 187.804 286.21V65.8094C187.804 61.3853 187.78 56.9602 187.804 52.5363C187.727 45.4429 193.404 39.6241 200.497 39.5261C201.168 39.5158 201.84 39.5261 202.512 39.5261H539.6C542.759 39.5261 545.921 39.4928 549.081 39.5261C556.133 39.5078 561.885 45.1716 561.975 52.2232C561.989 53.1829 561.975 54.1441 561.975 55.1039V291.969C561.975 293.345 561.982 294.721 561.975 296.097C562.05 303.188 556.376 309.005 549.285 309.107C547.859 309.134 547.854 311.353 549.285 311.326C557.508 311.213 564.132 304.548 564.194 296.324C564.209 295.104 564.194 293.882 564.194 292.662V54.9697C564.194 54.0526 564.208 53.1341 564.194 52.217C564.086 44.0049 557.438 37.3829 549.225 37.3074C546.368 37.2671 543.508 37.3074 540.651 37.3074H202.263C201.326 37.3074 200.376 37.2763 199.441 37.3469C191.626 37.9942 185.607 44.5146 185.586 52.356C185.533 56.4764 185.586 60.6011 185.586 64.7221V286.372C185.586 289.968 185.407 293.615 185.611 297.208C186.121 305.113 192.657 311.278 200.579 311.326C201.465 311.337 202.352 311.326 203.238 311.326H549.285C550.712 311.326 550.715 309.107 549.285 309.107Z" fill="black"/>
<path d="M186.695 76.3334V47.4416C186.695 42.4573 190.735 38.4167 195.72 38.4167H554.059C556.453 38.4167 558.748 39.3676 560.441 41.0601C562.133 42.7525 563.084 45.048 563.084 47.4416V76.3334H186.695Z" fill="black"/>
<path d="M187.805 76.3334V52.8245C187.805 49.5789 187.268 45.707 189.228 42.9061C190.839 40.6038 193.393 39.5447 196.127 39.5261C202.027 39.4861 207.929 39.5261 213.828 39.5261H551.702C555.248 39.5261 558.654 39.8289 560.812 43.3089C562.564 46.1339 561.975 50.2461 561.975 53.4327V76.3333L563.084 75.224H201.974C197.097 75.224 192.212 75.1391 187.335 75.224C187.122 75.2276 186.908 75.224 186.695 75.224C185.268 75.224 185.265 77.4427 186.695 77.4427H547.806C552.682 77.4427 557.568 77.5275 562.444 77.4427C562.657 77.439 562.871 77.4427 563.084 77.4427C563.693 77.4342 564.185 76.9425 564.194 76.3333V52.5289C564.194 49.2177 564.594 45.6261 562.967 42.6064C561.132 39.3196 557.655 37.2899 553.89 37.3074C548.35 37.2034 542.797 37.3074 537.256 37.3074H197.502C196.959 37.3074 196.414 37.2971 195.871 37.3074C191.854 37.2957 188.196 39.6184 186.497 43.259C185.143 46.2405 185.586 49.9302 185.586 53.1259V76.3335C185.586 77.7612 187.805 77.7634 187.805 76.3334Z" fill="black"/>
<rect x="369.48" y="176.315" width="137.454" height="101.086" rx="7.7932" fill="#458DC9"/>
<path d="M502.527 276.292H374.949C374.608 276.292 374.267 276.297 373.926 276.292C373.039 276.29 372.189 275.936 371.563 275.307C370.937 274.678 370.586 273.826 370.589 272.939C370.568 271.445 370.589 269.95 370.589 268.456V186.042C370.589 184.33 370.582 182.618 370.589 180.906C370.556 180.004 370.887 179.128 371.507 178.473C372.128 177.818 372.985 177.44 373.887 177.424C374.136 177.42 374.385 177.424 374.633 177.424H499.278C500.35 177.424 501.425 177.407 502.497 177.424C503.386 177.429 504.236 177.787 504.86 178.419C505.484 179.052 505.831 179.906 505.824 180.794C505.831 181.276 505.824 181.758 505.824 182.24V271.143C505.824 271.696 505.826 272.25 505.824 272.803C505.859 273.705 505.529 274.584 504.908 275.24C504.288 275.896 503.43 276.275 502.527 276.292C501.101 276.323 501.096 278.542 502.527 278.511C505.584 278.463 508.038 275.974 508.043 272.917C508.049 272.417 508.043 271.916 508.043 271.416V182.181C508.043 181.712 508.05 181.243 508.043 180.774C508.026 177.725 505.574 175.25 502.525 175.206C501.569 175.189 500.611 175.206 499.655 175.206H374.54C374.193 175.206 373.842 175.194 373.496 175.223C370.59 175.467 368.359 177.903 368.37 180.819C368.359 182.422 368.37 184.025 368.37 185.627V268.521C368.37 269.999 368.348 271.479 368.37 272.956C368.394 276.001 370.847 278.468 373.891 278.51C374.163 278.515 374.435 278.51 374.707 278.51H502.527C503.955 278.51 503.957 276.292 502.527 276.292Z" fill="black"/>
<path d="M338.106 276.195H196.183C195.664 276.195 195.131 276.222 194.613 276.177C191.903 275.941 190.137 273.582 190.129 270.984C190.123 269.008 190.129 267.031 190.129 265.055V119.466C190.129 117.573 190.12 115.681 190.129 113.789C190.099 112.447 190.606 111.149 191.537 110.183C192.468 109.216 193.747 108.662 195.089 108.642C195.498 108.636 195.909 108.642 196.319 108.642H337.091C337.721 108.61 338.352 108.634 338.977 108.715C341.525 109.188 343.058 111.397 343.064 113.894C343.065 114.592 343.064 115.29 343.064 115.989V269.244C343.064 269.844 343.066 270.443 343.064 271.042C343.095 272.384 342.589 273.683 341.658 274.651C340.727 275.618 339.448 276.174 338.106 276.195C336.68 276.223 336.675 278.441 338.106 278.414C342.081 278.355 345.274 275.121 345.283 271.145C345.289 270.593 345.283 270.041 345.283 269.489V115.787C345.283 115.128 345.285 114.469 345.283 113.81C345.326 110.728 343.435 107.948 340.553 106.857C338.665 106.145 336.234 106.424 334.247 106.424H196.183C195.623 106.424 195.054 106.4 194.496 106.453C190.754 106.809 187.899 109.958 187.91 113.717C187.899 115.507 187.91 117.298 187.91 119.089V265.372C187.91 267.269 187.901 269.165 187.91 271.062C187.872 274.343 190.027 277.246 193.179 278.158C194.101 278.371 195.048 278.457 195.993 278.414H338.106C339.534 278.414 339.536 276.195 338.106 276.195Z" fill="black"/>
<path d="M369.48 271.508V240.145L400.468 206.656C402.469 204.493 405.268 203.243 408.215 203.196C411.162 203.149 413.999 204.31 416.068 206.409L447.657 238.456L467.927 218.186C472.092 214.02 478.828 213.966 483.06 218.064L506.934 241.186V284.017H369.629L369.48 271.508Z" fill="white"/>
<path d="M370.589 271.508V240.145L370.264 240.929L373.799 237.109L382.146 228.088L391.749 217.71L399.207 209.649C401.017 207.693 402.688 205.652 405.339 204.792C408.392 203.798 411.738 204.364 414.294 206.305C414.912 206.816 415.494 207.369 416.037 207.959L422.366 214.379L432.019 224.172L441.367 233.656L446.622 238.986L446.872 239.24C447.309 239.665 448.004 239.665 448.441 239.24L457.73 229.952C461.329 226.352 464.929 222.752 468.529 219.152C471.06 216.537 474.827 215.531 478.324 216.538C480.432 217.16 481.934 218.518 483.456 219.992L495.731 231.88L502.285 238.228C503.51 239.415 504.701 240.656 505.97 241.797C506.032 241.852 506.09 241.913 506.149 241.971L505.825 241.186V284.017L506.934 282.907H375.215C373.437 282.907 371.633 282.82 369.856 282.907C369.78 282.911 369.704 282.907 369.628 282.907L370.738 284.017L370.608 273.081L370.589 271.508C370.572 270.081 368.353 270.077 368.37 271.508L368.5 282.443L368.519 284.017C368.528 284.626 369.02 285.117 369.628 285.126H501.347C503.132 285.126 504.921 285.16 506.706 285.126C506.782 285.125 506.858 285.126 506.934 285.126C507.543 285.118 508.035 284.626 508.043 284.017V242.632C508.043 241.839 508.206 240.917 507.616 240.303C505.268 237.858 502.729 235.57 500.295 233.212L488.84 222.118L484.909 218.311C483.899 217.244 482.761 216.306 481.521 215.517C478.045 213.534 473.811 213.407 470.222 215.179C468.702 216.013 467.331 217.094 466.165 218.379L456.41 228.134L447.387 237.156L446.872 237.671H448.441L442.184 231.324L429.348 218.301L418.637 207.435C418.042 206.832 417.452 206.224 416.853 205.625C413.639 202.408 408.884 201.281 404.569 202.713C400.841 203.994 398.407 207.25 395.824 210.042L384.141 222.668L372.489 235.261L369.222 238.791C369.049 238.978 368.865 239.16 368.7 239.355C368.409 239.758 368.29 240.261 368.37 240.751V271.508C368.37 272.935 370.589 272.938 370.589 271.508Z" fill="black"/>
<circle cx="445.938" cy="198.079" r="9.73631" fill="white"/>
<path d="M454.566 198.079C454.563 201.718 452.277 204.964 448.851 206.193C445.426 207.421 441.598 206.367 439.283 203.559C436.969 200.75 436.666 196.792 438.526 193.664C440.386 190.536 444.01 188.912 447.582 189.605C451.623 190.42 454.537 193.957 454.566 198.079C454.58 199.506 456.799 199.509 456.784 198.079C456.786 193.494 453.905 189.404 449.587 187.861C445.27 186.319 440.45 187.656 437.545 191.203C434.64 194.75 434.279 199.74 436.643 203.668C439.006 207.596 443.584 209.615 448.078 208.71C453.111 207.64 456.728 203.223 456.784 198.079C456.799 196.651 454.58 196.649 454.566 198.079Z" fill="black"/>
<path d="M527.33 133.318H381.045C378.583 133.318 375.614 133.708 373.466 132.303C371.728 131.12 370.709 129.135 370.762 127.032C370.757 125.536 370.762 124.04 370.762 122.543V116.636C370.762 115.325 370.657 113.971 371.062 112.706C371.928 109.995 374.478 108.528 377.209 108.528H520.627C522.828 108.528 525.03 108.508 527.23 108.528C528.9 108.529 530.498 109.206 531.66 110.405C532.822 111.603 533.45 113.221 533.4 114.89C533.407 118.371 533.4 121.852 533.4 125.333C533.492 126.574 533.402 127.821 533.132 129.036C532.331 131.571 529.988 133.3 527.33 133.318C525.904 133.34 525.9 135.559 527.33 135.537C530.294 135.513 533.027 133.93 534.523 131.37C535.45 129.751 535.619 128.017 535.619 126.203V115.333C535.715 113.428 535.212 111.541 534.181 109.936C532.62 107.687 530.066 106.335 527.328 106.309C526.824 106.303 526.319 106.309 525.814 106.309H377.173C373.976 106.222 371.004 107.943 369.487 110.758C368.661 112.365 368.543 114.034 368.543 115.79V126.594C368.452 128.545 369.001 130.472 370.105 132.083C371.786 134.334 374.459 135.623 377.267 135.538H527.33C528.758 135.537 528.76 133.318 527.33 133.318Z" fill="black"/>
<path d="M522.781 188.749H546.43C547.858 188.749 547.86 186.531 546.43 186.531H522.781C521.353 186.531 521.351 188.749 522.781 188.749Z" fill="black"/>
<path d="M522.781 202.739H546.43C547.858 202.739 547.86 200.52 546.43 200.52H522.781C521.353 200.52 521.351 202.739 522.781 202.739Z" fill="black"/>
<path d="M522.781 216.729H546.43C547.858 216.729 547.86 214.51 546.43 214.51H522.781C521.353 214.51 521.351 216.729 522.781 216.729Z" fill="black"/>
<path d="M522.781 230.718H546.43C547.858 230.718 547.86 228.5 546.43 228.5H522.781C521.353 228.5 521.351 230.718 522.781 230.718Z" fill="black"/>
<path d="M522.781 244.708H546.43C547.858 244.708 547.86 242.489 546.43 242.489H522.781C521.353 242.489 521.351 244.708 522.781 244.708Z" fill="black"/>
<path d="M538.365 283.336H532.589C531.846 283.336 531.094 283.365 530.351 283.32C528.743 283.21 527.225 282.54 526.06 281.427C524.872 280.302 524.117 278.794 523.928 277.169C523.874 276.382 523.861 275.594 523.89 274.806C523.89 272.867 523.871 270.926 523.89 268.986C523.921 265.64 526.301 262.778 529.586 262.139C530.41 262.023 531.243 261.986 532.074 262.029H535.718C536.577 262.029 537.436 262.023 538.295 262.029C539.72 262.026 541.112 262.448 542.295 263.242C543.609 264.138 544.574 265.459 545.028 266.983C545.264 267.908 545.363 268.864 545.32 269.818C545.32 271.943 545.326 274.068 545.32 276.192C545.373 279.151 543.574 281.827 540.815 282.896C540.03 283.181 539.201 283.33 538.365 283.336C536.938 283.353 536.934 285.572 538.365 285.555C542.386 285.516 545.927 282.897 547.14 279.062C547.842 276.791 547.539 274.122 547.539 271.778C547.539 269.06 547.642 266.403 546.074 264.012C544.209 261.167 541.166 259.81 537.834 259.81C535.566 259.81 533.299 259.805 531.032 259.81C527.49 259.769 524.233 261.743 522.631 264.902C521.455 267.319 521.671 269.937 521.671 272.542C521.671 275.093 521.427 277.728 522.475 280.123C523.988 283.448 527.313 285.575 530.966 285.555C533.201 285.563 535.436 285.555 537.671 285.555H538.365C539.793 285.555 539.795 283.336 538.365 283.336Z" fill="black"/>
<path d="M60.6277 184.972L57.9212 169.033C57.6205 157.305 71.9102 149.41 82.566 145.819L92.2032 142.57L94.9097 173.845L90.3987 182.566" fill="#FC7272"/>
<path d="M61.6975 184.677L60.2028 175.875L59.2665 170.361C59.1855 169.884 59.0838 169.406 59.0228 168.926C59.0115 168.837 59.0253 168.62 59.0272 168.855C59.0164 168.197 59.0545 167.539 59.1414 166.886C59.9114 161.464 64.0172 157.184 68.2953 154.124C72.7882 151.001 77.7162 148.556 82.921 146.868C86.1124 145.789 89.3048 144.713 92.4982 143.64L91.0939 142.57L92.0103 153.163L93.4646 169.968L93.8001 173.845L93.9516 173.285L89.4411 182.006C88.786 183.272 90.7 184.396 91.3569 183.126L95.478 175.158C95.8166 174.655 95.9936 174.062 95.9855 173.456L95.7515 170.752L93.8649 148.951L93.3127 142.57C93.3074 142.226 93.1443 141.903 92.8704 141.694C92.5964 141.485 92.2418 141.414 91.9084 141.5C83.8601 144.213 75.6028 146.603 68.4472 151.334C63.7062 154.469 59.1433 158.697 57.453 164.296C56.8607 166.091 56.6863 167.997 56.9433 169.869L57.7412 174.568L59.558 185.266C59.7965 186.671 61.9351 186.075 61.6975 184.677V184.677Z" fill="black"/>
<rect x="81.396" y="75.0265" width="210.607" height="154.884" rx="11.9408" fill="#458DC9"/>
<path d="M285.251 228.801H89.7749C89.2521 228.801 88.7288 228.809 88.206 228.801C85.0537 228.789 82.5048 226.23 82.505 223.078C82.4734 220.792 82.505 218.503 82.505 216.217V89.937C82.505 87.3101 82.4954 84.683 82.505 82.0562C82.5168 78.8394 84.846 76.1935 88.1486 76.136C88.527 76.1294 88.9063 76.136 89.2845 76.136H280.28C281.922 76.136 283.566 76.1091 285.208 76.136C288.364 76.1573 290.907 78.7287 290.894 81.8844C290.903 82.6234 290.894 83.3632 290.894 84.1023V220.339C290.894 221.183 290.897 222.027 290.894 222.87C290.882 226.1 288.561 228.731 285.251 228.801C283.825 228.832 283.821 231.051 285.251 231.02C289.611 230.953 293.111 227.4 293.112 223.039C293.122 222.275 293.112 221.51 293.112 220.746V84.0142C293.112 83.2961 293.122 82.5774 293.112 81.8595C293.093 77.5114 289.596 73.9793 285.248 73.9171C283.781 73.8902 282.31 73.9171 280.842 73.9171H89.1626C88.6321 73.9171 88.0939 73.8981 87.565 73.9419C83.43 74.3032 80.264 77.7767 80.2864 81.9274C80.2695 84.3905 80.2864 86.8544 80.2864 89.3177V216.315C80.2864 218.575 80.2506 220.839 80.2864 223.099C80.3162 227.441 83.8135 230.961 88.1551 231.02C88.5806 231.027 89.0069 231.02 89.4324 231.02H285.251C286.679 231.02 286.681 228.801 285.251 228.801Z" fill="black"/>
<path d="M81.396 220.881V172.827L128.875 121.514C131.942 118.2 136.231 116.285 140.746 116.213C145.261 116.142 149.609 117.921 152.779 121.137L201.179 170.239L232.237 139.18C238.619 132.799 248.94 132.716 255.424 138.995L292.003 174.422V240.047H81.6239L81.396 220.881Z" fill="#389B48"/>
<path d="M82.5054 220.881V172.827L82.1805 173.611L87.6225 167.73L100.388 153.933L115.138 137.993L126.531 125.681C129.406 122.573 132.056 119.399 136.287 118.057C141.162 116.512 146.485 117.462 150.525 120.598C151.463 121.385 152.351 122.231 153.185 123.129L162.873 132.958L177.669 147.968L191.986 162.492L200.018 170.641L200.395 171.023C200.832 171.447 201.527 171.447 201.964 171.023L216.229 156.758C221.738 151.249 227.247 145.739 232.757 140.23C236.793 136.075 242.792 134.486 248.356 136.097C251.675 137.084 254.059 139.217 256.459 141.542L275.266 159.757L285.361 169.533C287.216 171.33 289.005 173.263 290.958 174.954C291.049 175.033 291.132 175.123 291.219 175.207L290.894 174.422V240.047L292.003 238.938H90.1749C87.4604 238.938 84.6832 238.767 81.9725 238.938C81.8574 238.945 81.7396 238.938 81.6241 238.938L82.7335 240.047L82.5344 223.308L82.5056 220.881C82.4886 219.454 80.2698 219.45 80.2868 220.881L80.4858 237.62L80.5147 240.047C80.5239 240.656 81.0152 241.147 81.6241 241.156H283.453C286.185 241.156 288.923 241.207 291.655 241.156C291.771 241.154 291.887 241.156 292.003 241.156C292.613 241.148 293.104 240.656 293.113 240.047V176.667C293.113 175.681 293.383 174.273 292.651 173.505C289.092 169.776 285.216 166.304 281.514 162.719L263.932 145.691L257.889 139.838C256.415 138.282 254.766 136.902 252.974 135.725C247.81 132.678 241.46 132.433 236.075 135.071C233.675 136.25 231.817 138.032 229.959 139.889L215.031 154.818L201.17 168.678L200.395 169.454H201.964L192.437 159.79L172.778 139.846L156.369 123.2C155.435 122.251 154.507 121.296 153.565 120.355C148.821 115.603 141.808 113.922 135.424 116.006C129.779 117.91 126.069 122.915 122.165 127.135L104.208 146.541L86.342 165.85L81.3986 171.192C81.142 171.469 80.8465 171.737 80.6166 172.037C80.2013 172.58 80.2865 173.157 80.2865 173.8V220.881C80.2868 222.308 82.5054 222.311 82.5054 220.881Z" fill="black"/>
<circle cx="198.546" cy="108.373" r="14.918" fill="#FFC41F"/>
<path d="M212.355 108.373C212.352 114.197 208.695 119.394 203.213 121.362C197.73 123.33 191.603 121.647 187.896 117.154C184.189 112.661 183.7 106.325 186.674 101.317C189.648 96.3083 195.445 93.7046 201.164 94.8085C207.636 96.1083 212.308 101.771 212.355 108.373C212.364 109.8 214.583 109.803 214.574 108.373C214.593 99.7447 207.796 92.6407 199.176 92.2787C190.555 91.9167 183.187 98.4259 182.483 107.025C181.779 115.624 187.99 123.245 196.555 124.29C205.119 125.335 212.981 119.432 214.365 110.915C214.496 110.074 214.565 109.224 214.574 108.373C214.583 106.945 212.364 106.943 212.355 108.373Z" fill="black"/>
<path d="M160.325 497.235V523.763L129.424 529.885L128.55 489.655" fill="#FC7272"/>
<path d="M159.216 497.235V523.763L160.03 522.694L149.55 524.77L132.939 528.061L129.129 528.816L130.533 529.885L130.236 516.238L129.767 494.646L129.659 489.655C129.628 488.23 127.409 488.225 127.44 489.655L127.736 503.303L128.206 524.895L128.314 529.885C128.321 530.229 128.484 530.551 128.758 530.76C129.031 530.968 129.385 531.04 129.719 530.955L140.199 528.879L156.81 525.588L160.62 524.833C161.099 524.697 161.431 524.261 161.434 523.763V497.235C161.434 495.807 159.215 495.805 159.215 497.235H159.216Z" fill="black"/>
<path d="M127.66 521.21L127.784 550.583H193.004C193.004 550.583 194.116 532.063 169.762 530.111C165.215 529.728 161.737 525.898 161.793 521.336C161.806 520.047 161.82 519.004 161.834 518.162C161.849 517.255 161.499 516.381 160.863 515.735C160.227 515.089 159.359 514.726 158.452 514.726H155.661L148.235 519.308C144.395 521.678 139.54 521.654 135.722 519.246L133.608 517.912C132.41 517.157 130.896 517.115 129.658 517.801C128.42 518.487 127.654 519.794 127.66 521.21Z" fill="#FFC41F"/>
<path d="M126.551 521.21L126.593 531.171L126.659 546.957L126.674 550.583C126.683 551.192 127.175 551.684 127.784 551.693H184.967C187.601 551.693 190.256 551.791 192.888 551.693C192.926 551.691 192.965 551.693 193.004 551.693C193.611 551.68 194.101 551.191 194.113 550.583C194.179 547.996 193.689 545.425 192.675 543.044C190.404 537.409 185.815 533.414 180.209 531.225C178.287 530.487 176.298 529.937 174.27 529.581C173.035 529.358 171.788 529.191 170.54 529.07C169.481 529.019 168.437 528.796 167.45 528.41C165.556 527.574 164.083 526.006 163.368 524.063C163.018 523.012 162.862 521.906 162.908 520.798C162.921 519.576 163.101 518.216 162.809 517.017C162.261 514.962 160.372 513.554 158.245 513.617C157.547 513.614 156.849 513.617 156.151 513.617C155.747 513.583 155.343 513.661 154.981 513.842C152.715 515.113 150.54 516.582 148.329 517.947C147.017 518.813 145.557 519.433 144.022 519.775C141.505 520.253 138.899 519.81 136.68 518.529C135.519 517.857 134.441 516.943 133.172 516.481C131.645 515.953 129.956 516.198 128.641 517.137C127.326 518.076 126.547 519.594 126.551 521.21C126.524 522.638 128.743 522.638 128.769 521.21C128.782 520.184 129.355 519.247 130.262 518.769C131.17 518.29 132.267 518.347 133.12 518.916C135.084 520.115 136.92 521.369 139.22 521.869C142.5 522.578 145.927 522.004 148.796 520.265C149.94 519.573 151.072 518.861 152.209 518.159L156.221 515.684L155.661 515.835C157.205 515.835 159.45 515.387 160.402 516.939C160.683 517.492 160.792 518.116 160.715 518.731C160.701 519.664 160.668 520.601 160.684 521.534C160.709 523.007 161.057 524.458 161.701 525.783C163.004 528.431 165.431 530.35 168.307 531.008C169.87 531.35 171.503 531.356 173.083 531.617C174.466 531.842 175.834 532.15 177.18 532.538C181.254 533.724 185.011 535.795 187.755 539.033C188.741 540.224 189.572 541.535 190.228 542.935C190.495 543.492 190.725 544.067 190.915 544.655C191.12 545.258 191.295 545.87 191.441 546.49C191.576 547.064 191.678 547.643 191.768 548.226C191.804 548.46 191.734 547.947 191.762 548.178C191.769 548.237 191.777 548.297 191.784 548.356C191.798 548.488 191.813 548.619 191.826 548.751C191.845 548.951 191.861 549.15 191.874 549.35C191.905 549.76 191.912 550.172 191.894 550.583L193.004 549.474H130.426C129.599 549.474 128.724 549.391 127.899 549.474C127.862 549.477 127.822 549.474 127.784 549.474L128.893 550.583L128.851 540.622L128.785 524.835L128.769 521.209C128.763 519.782 126.545 519.779 126.551 521.21Z" fill="black"/>
<path d="M81.9759 482.633L67.7624 505.032L38.3906 493.645L59.2062 459.208" fill="#FC7272"/>
<path d="M81.0184 482.073L76.2178 489.638L68.5643 501.7L66.8052 504.472L68.0581 503.962L58.0965 500.1L42.3072 493.979L38.6859 492.575L39.3488 494.205L46.4103 482.523L57.5825 464.04L60.1646 459.768C60.9053 458.543 58.9873 457.427 58.2488 458.648L51.1873 470.33L40.0151 488.813L37.433 493.085C37.2658 493.384 37.2436 493.743 37.3725 494.06C37.5015 494.377 37.7676 494.618 38.0958 494.715L48.0575 498.577L63.8465 504.698L67.4679 506.102C67.9526 506.232 68.4647 506.024 68.7207 505.592L73.5213 498.027L81.1748 485.965L82.9338 483.193C83.7012 481.984 81.7818 480.869 81.018 482.073L81.0184 482.073Z" fill="black"/>
<path d="M41.5494 485.375L25.916 510.243L80.9853 545.186C80.9853 545.186 91.847 530.144 72.3295 515.447C68.6956 512.689 67.8107 507.591 70.302 503.769C71.0031 502.687 71.5739 501.814 72.0372 501.111C72.5353 500.353 72.7084 499.428 72.5177 498.542C72.327 497.656 71.7884 496.883 71.0229 496.398L68.666 494.903L59.9413 494.793C55.4285 494.736 51.3419 492.115 49.4085 488.037L48.3376 485.778C47.7311 484.498 46.4759 483.651 45.0626 483.567C43.6494 483.483 42.3028 484.176 41.5494 485.375Z" fill="#FFC41F"/>
<path d="M40.5914 484.815L35.2898 493.248L26.888 506.613L24.9582 509.683C24.6596 510.214 24.8357 510.885 25.3562 511.201L30.8489 514.686L43.9771 523.016L59.9134 533.129L73.6398 541.838C75.8602 543.247 78.0429 544.779 80.3277 546.082C80.3611 546.101 80.3929 546.123 80.4255 546.144C80.9564 546.439 81.6253 546.264 81.9433 545.746C83.8078 543.155 84.7515 539.715 85.0332 536.586C85.7331 528.809 81.4398 521.845 75.7999 516.852C74.0527 515.304 71.9333 514.112 70.8278 511.981C69.952 510.258 69.764 508.266 70.3019 506.409C70.6594 505.352 71.1745 504.355 71.8298 503.452C72.5198 502.565 73.086 501.589 73.5128 500.549C74.0754 498.587 73.2681 496.489 71.535 495.41C71.0306 495.075 70.5116 494.76 70.0001 494.436C69.611 494.11 69.1453 493.889 68.647 493.793C67.7778 493.735 66.8913 493.771 66.0205 493.76C63.6995 493.731 61.3252 493.846 59.011 493.635C55.0174 493.27 51.8625 490.632 50.188 487.1C49.6022 485.864 49.1172 484.506 48.0308 483.611C46.921 482.684 45.4637 482.285 44.0364 482.516C42.6091 482.747 41.3523 483.586 40.5916 484.815C39.8034 486.011 41.724 487.123 42.5075 485.935C43.0827 485.05 44.1078 484.564 45.1572 484.68C46.1559 484.817 47.0096 485.468 47.4066 486.394C48.428 488.458 49.2977 490.48 50.9701 492.14C53.2126 494.35 56.1771 495.678 59.3195 495.878C60.7642 495.972 62.2258 495.931 63.6726 495.949L68.6663 496.012L68.1065 495.861L69.7988 496.935C70.4544 497.244 70.9904 497.759 71.3241 498.403C71.7884 499.548 71.147 500.446 70.5412 501.371C69.6816 502.553 68.9561 503.826 68.3783 505.168C67.4966 507.614 67.6131 510.309 68.7027 512.669C69.9636 515.453 72.6235 516.931 74.7907 518.925C78.379 522.226 81.3886 526.306 82.475 531.132C83.1581 534.2 83.0043 537.395 82.0296 540.384C81.9233 540.72 81.8081 541.054 81.6838 541.384C81.6312 541.525 81.5764 541.664 81.5212 541.803C81.4947 541.87 81.4668 541.937 81.4394 542.003C81.4237 542.041 81.5075 541.854 81.404 542.084C81.1997 542.538 80.988 542.988 80.7518 543.427C80.5367 543.842 80.2949 544.243 80.028 544.626L81.5458 544.228L76.0531 540.743L62.9244 532.413L46.9881 522.301L33.2617 513.591L28.7072 510.701C28.008 510.257 27.3135 509.722 26.5738 509.347C26.5399 509.33 26.5082 509.306 26.476 509.285L26.874 510.803L32.1755 502.369L40.5774 489.005L42.5073 485.935C43.2694 484.722 41.3504 483.608 40.5914 484.815Z" fill="black"/>
<path d="M139.826 300.166L136.036 406.571L92.599 499.275L45.1128 473.012C45.1128 473.012 76.7845 410.537 89.684 393.161L91.9158 344.06C92.364 334.201 95.3221 324.62 100.51 316.224L114.755 293.169" fill="#EA2F2F"/>
<path d="M138.716 300.166L138.352 310.389L137.473 335.069L136.402 365.123L135.45 391.871L134.946 406.009C134.928 406.159 134.923 406.31 134.93 406.461C134.98 406.797 134.754 406.273 135.072 406.024C134.898 406.16 134.771 406.666 134.68 406.86L132.23 412.088L122.528 432.794L109.879 459.791L98.2973 484.509L91.9345 498.088L91.6408 498.715L93.1586 498.317L77.1329 489.454L51.5683 475.315L45.6723 472.054L46.0703 473.572C47.4082 470.933 48.7576 468.3 50.1184 465.673C53.419 459.274 56.7547 452.893 60.1256 446.531C64.3069 438.642 68.5605 430.793 72.8864 422.982C76.8492 415.865 80.8772 408.774 85.1953 401.864C86.799 399.298 88.4402 396.749 90.2176 394.299C90.5875 393.845 90.7972 393.282 90.8141 392.696L90.9045 390.702L91.7363 372.403L92.7032 351.125C92.9558 345.567 93.0733 340.027 94.2722 334.564C95.659 328.272 98.0935 322.257 101.474 316.772C102.466 315.157 103.463 313.545 104.463 311.935L114.964 294.94L115.712 293.729C116.465 292.511 114.546 291.395 113.796 292.609L105.279 306.394C101.724 312.147 97.8645 317.815 95.2553 324.078C92.6899 330.261 91.1947 336.835 90.8336 343.52C90.7677 344.722 90.7214 345.925 90.6668 347.128L89.807 366.043L88.8524 387.044L88.6008 392.579C88.5815 392.742 88.574 392.906 88.5785 393.07C88.5798 393.082 88.5654 393.146 88.5746 393.154C88.4181 393.024 88.8791 392.633 88.5732 392.808C88.4553 392.875 88.3413 393.125 88.2628 393.233C87.4525 394.352 86.6736 395.494 85.9106 396.646C81.7342 402.949 77.9465 409.515 74.2156 416.088C69.7891 423.887 65.4981 431.763 61.267 439.67C57.5415 446.632 53.8628 453.619 50.231 460.631C48.2821 464.389 46.3461 468.153 44.4229 471.924C44.3333 472.1 44.2438 472.276 44.1544 472.452C43.8567 472.983 44.0327 473.654 44.5524 473.97L60.5782 482.834L86.1427 496.972L92.0388 500.233C92.5687 500.536 93.2437 500.359 93.5567 499.835L98.0632 490.218L108.771 467.364L121.569 440.05L132.375 416.988L135.701 409.891C136.127 408.981 136.633 408.074 136.992 407.135C137.335 406.237 137.198 405.069 137.232 404.124L137.489 396.916L138.36 372.445L139.434 342.319L140.39 315.461L140.911 300.833L140.935 300.166C140.986 298.738 138.767 298.74 138.716 300.166L138.716 300.166Z" fill="black"/>
<path d="M69.1158 509.312C68.6148 509.29 68.1131 509.332 67.6223 509.435C66.639 509.605 65.7091 510.003 64.907 510.596C64.2446 511.092 63.6766 511.702 63.2301 512.398C62.9261 512.928 63.1033 513.603 63.6281 513.916C64.1589 514.211 64.8283 514.036 65.1459 513.518C65.2006 513.433 65.2563 513.349 65.3148 513.266C65.3433 513.226 65.3724 513.187 65.402 513.147C65.302 513.275 65.2888 513.293 65.3624 513.201C65.4833 513.06 65.6035 512.92 65.7356 512.789C65.8603 512.664 65.9927 512.551 66.1266 512.437C66.2175 512.364 66.1927 512.383 66.052 512.493C66.0853 512.468 66.1189 512.443 66.1527 512.419C66.2027 512.383 66.2534 512.348 66.3046 512.314C66.5638 512.145 66.8359 511.997 67.1185 511.87C67.295 511.79 66.8362 511.982 67.1038 511.879C67.1689 511.854 67.2346 511.83 67.3007 511.808C67.419 511.767 67.5384 511.731 67.6591 511.698C67.8818 511.637 68.107 511.592 68.3345 511.554C68.5814 511.512 68.0598 511.585 68.2327 511.567C68.2807 511.562 68.3286 511.555 68.3766 511.551C68.4569 511.543 68.5373 511.537 68.6179 511.532C68.7837 511.52 68.9501 511.52 69.116 511.53C69.7276 511.528 70.2227 511.032 70.2254 510.421C70.2107 509.814 69.7225 509.326 69.116 509.311L69.1158 509.312Z" fill="black"/>
<path d="M71.5082 513.575C71.0072 513.554 70.5055 513.595 70.0147 513.698C69.0314 513.868 68.1016 514.266 67.2994 514.86C66.6371 515.355 66.0691 515.966 65.6227 516.662C65.3187 517.191 65.4958 517.867 66.0206 518.18C66.5515 518.475 67.2209 518.299 67.5385 517.782C67.5932 517.697 67.6488 517.613 67.7074 517.53C67.7359 517.49 67.765 517.45 67.7945 517.411C67.6947 517.539 67.6815 517.557 67.755 517.464C67.8759 517.323 67.9961 517.183 68.1282 517.052C68.2529 516.928 68.3853 516.814 68.5192 516.701C68.6101 516.628 68.5853 516.647 68.4446 516.757C68.4779 516.732 68.5115 516.707 68.5453 516.683C68.5953 516.647 68.6459 516.612 68.6972 516.578C68.9564 516.409 69.2285 516.26 69.5111 516.134C69.6876 516.054 69.2288 516.246 69.4964 516.143C69.5616 516.118 69.6272 516.094 69.6933 516.072C69.8115 516.031 69.931 515.994 70.0517 515.961C70.2743 515.901 70.4996 515.856 70.7271 515.818C70.974 515.776 70.4524 515.849 70.6253 515.83C70.6733 515.825 70.7212 515.819 70.7692 515.815C70.8494 515.807 70.9299 515.8 71.0104 515.796C71.1762 515.784 71.3427 515.783 71.5086 515.794C72.1202 515.791 72.6153 515.296 72.618 514.685C72.6033 514.078 72.1151 513.59 71.5086 513.575H71.5082Z" fill="black"/>
<path d="M75.1704 517.075C74.6694 517.054 74.1677 517.095 73.6769 517.198C72.6935 517.369 71.7637 517.766 70.9616 518.36C70.2992 518.855 69.7313 519.466 69.2848 520.162C68.9808 520.692 69.1579 521.367 69.6828 521.68C70.2136 521.975 70.883 521.799 71.2006 521.282C71.2553 521.197 71.311 521.113 71.3695 521.03C71.398 520.99 71.4271 520.95 71.4567 520.911C71.3568 521.039 71.3436 521.057 71.4171 520.964C71.538 520.823 71.6582 520.684 71.7903 520.552C71.915 520.428 72.0474 520.315 72.1813 520.201C72.2723 520.128 72.2474 520.147 72.1067 520.257C72.14 520.232 72.1736 520.207 72.2074 520.183C72.2574 520.147 72.3081 520.112 72.3593 520.078C72.6185 519.909 72.8906 519.76 73.1732 519.634C73.3497 519.554 72.8909 519.746 73.1585 519.643C73.2237 519.618 73.2893 519.594 73.3554 519.572C73.4736 519.531 73.5931 519.494 73.7138 519.461C73.9364 519.401 74.1617 519.356 74.3892 519.318C74.6361 519.276 74.1145 519.349 74.2874 519.33C74.3354 519.325 74.3833 519.319 74.4313 519.315C74.5116 519.307 74.592 519.301 74.6725 519.296C74.8384 519.284 75.0048 519.284 75.1707 519.294C75.7823 519.291 76.2774 518.796 76.2801 518.185C76.2654 517.578 75.7772 517.09 75.1707 517.075H75.1704Z" fill="black"/>
<path d="M83.6259 538.628C83.1798 540.965 82.2829 543.192 80.9853 545.186L25.916 510.243L28.3587 506.258L28.3283 506.238L32.6965 499.354C32.6965 499.354 41.6556 501.586 46.5223 512.961C51.0242 518.925 56.3396 514.356 62.0248 519C67.71 523.643 64.3581 524.379 68.1169 526.714C68.1169 526.714 72.4453 529.755 77.1172 528.921C81.7891 528.088 84.7467 531.797 83.6259 538.628Z" fill="white"/>
<path d="M82.5563 538.333C82.1524 540.582 81.2918 542.723 80.0277 544.626L81.5456 544.228L76.0528 540.743L62.9246 532.413L46.9883 522.301L33.2618 513.591L28.7073 510.701C28.0081 510.257 27.3136 509.722 26.5739 509.347C26.54 509.33 26.5083 509.306 26.4761 509.285L26.8741 510.803L29.3168 506.818C29.6148 506.287 29.4388 505.616 28.9188 505.3L28.8883 505.281L29.2863 506.799L33.6546 499.914L32.4017 500.424C32.5897 500.471 32.7746 500.534 32.9578 500.596C33.1643 500.667 33.3676 500.746 33.5714 500.825C33.6158 500.842 33.6595 500.861 33.7038 500.878C33.9466 500.974 33.4707 500.775 33.7213 500.885C33.8771 500.953 34.0327 501.022 34.1869 501.094C35.8449 501.868 37.3903 502.863 38.7809 504.052C40.8601 505.844 42.6196 507.976 43.984 510.357C44.3772 511.036 44.7419 511.731 45.0781 512.441C45.2518 512.886 45.4662 513.314 45.7184 513.72C46.0066 514.112 46.3248 514.481 46.6702 514.824C47.7341 515.894 49.0537 516.675 50.5038 517.092C53.1422 517.846 55.9603 517.409 58.5741 518.299C60.1477 518.911 61.5649 519.866 62.722 521.095C63.1655 521.51 63.5699 521.965 63.93 522.453C64.0544 522.631 64.1724 522.813 64.2802 523.001C64.3371 523.101 64.3913 523.202 64.4429 523.304C64.4621 523.343 64.6334 523.735 64.5411 523.507C64.7956 524.135 64.9332 524.803 65.2387 525.412C65.6981 526.229 66.3571 526.916 67.1541 527.409C68.806 528.553 70.6581 529.377 72.6141 529.837C73.4875 530.041 74.3797 530.154 75.2764 530.174C76.1676 530.189 77.0158 529.996 77.8967 529.933C78.9467 529.804 80.0065 530.079 80.8603 530.704C82.9859 532.358 82.9462 535.867 82.5561 538.333C82.4126 538.922 82.7522 539.52 83.3308 539.698C83.9209 539.856 84.5287 539.511 84.6955 538.923C85.1433 536.091 85.218 532.804 83.5016 530.341C82.1304 528.401 79.781 527.403 77.433 527.762C75.8269 528.022 74.1845 527.949 72.608 527.547C71.4621 527.227 70.3617 526.763 69.3332 526.165C68.777 525.865 68.2538 525.508 67.7722 525.099C67.6179 524.96 67.4755 524.809 67.3464 524.647C67.4959 524.84 67.2642 524.494 67.2289 524.436C67.187 524.368 67.1554 524.292 67.1203 524.22C67.2496 524.483 67.1332 524.255 67.113 524.195C67.0625 524.045 67.0112 523.895 66.9629 523.744C66.1972 521.347 64.5753 519.603 62.6155 518.06C61.2758 516.987 59.7115 516.23 58.0388 515.845C56.5906 515.575 55.1247 515.41 53.6525 515.353C52.3722 515.323 51.1109 515.036 49.9433 514.51C49.3132 514.183 48.7382 513.76 48.239 513.256C47.9568 512.998 47.7025 512.712 47.4804 512.401C47.2257 511.915 46.9961 511.416 46.7926 510.906C45.4517 508.16 43.6554 505.661 41.4798 503.516C39.1806 501.274 36.1698 499.084 32.9917 498.285C32.5075 498.162 32 498.369 31.7389 498.795L27.3706 505.679C27.0718 506.209 27.248 506.881 27.7686 507.197L27.799 507.216L27.401 505.698L24.9583 509.683C24.6603 510.214 24.8363 510.885 25.3563 511.201L30.8491 514.687L43.9772 523.017L59.9136 533.129L73.64 541.839C75.8604 543.248 78.0431 544.779 80.3279 546.082C80.3613 546.101 80.3932 546.124 80.4257 546.145C80.9566 546.44 81.6256 546.264 81.9435 545.747C83.3139 543.682 84.2503 541.361 84.6959 538.924C84.9852 537.53 82.8469 536.934 82.5563 538.333Z" fill="black"/>
<path d="M116.484 343.599C114.901 365.182 124.045 508.862 124.045 508.862L180.732 509.133L164.407 303.956L123.302 298.417" fill="#EA2F2F"/>
<path d="M115.374 343.599C115.144 346.775 115.175 349.974 115.199 353.156C115.236 358.173 115.369 363.19 115.525 368.204C115.724 374.559 115.963 380.912 116.243 387.264C116.55 394.462 116.882 401.659 117.241 408.854C117.613 416.402 118.002 423.948 118.409 431.494C118.808 438.934 119.219 446.372 119.642 453.81C120.025 460.572 120.417 467.333 120.816 474.094C121.149 479.722 121.486 485.349 121.828 490.977C122.072 494.978 122.318 498.979 122.566 502.979C122.683 504.858 122.771 506.742 122.92 508.62C122.926 508.7 122.93 508.781 122.935 508.862C122.947 509.47 123.437 509.96 124.045 509.972L143.274 510.063L173.691 510.209L180.732 510.243C181.342 510.238 181.837 509.744 181.841 509.133L181.406 503.657L180.214 488.687L178.459 466.619L176.317 439.701L173.963 410.113L171.595 380.353L169.387 352.607L167.521 329.159L166.179 312.296C165.967 309.631 165.774 306.964 165.543 304.301C165.533 304.186 165.525 304.071 165.516 303.956C165.509 303.459 165.178 303.025 164.701 302.886L150.81 301.014L128.673 298.031L123.597 297.347C122.201 297.159 121.597 299.296 123.007 299.486L136.899 301.358L159.036 304.341L164.112 305.025L163.297 303.956L163.733 309.431L164.924 324.402L166.68 346.47L168.822 373.388L171.176 402.976L173.544 432.736L175.752 460.482L177.617 483.929L178.959 500.793C179.169 503.43 179.185 506.173 179.595 508.788C179.613 508.901 179.614 509.019 179.623 509.133L180.732 508.024L161.503 507.932L131.086 507.786L124.045 507.753L125.155 508.862C125.073 507.577 124.992 506.291 124.912 505.006C124.691 501.479 124.473 497.952 124.258 494.425C123.935 489.151 123.617 483.876 123.303 478.601C122.914 472.072 122.533 465.543 122.158 459.014C121.74 451.724 121.332 444.435 120.934 437.144C120.52 429.55 120.12 421.956 119.735 414.36C119.365 407.033 119.015 399.705 118.685 392.376C118.391 385.772 118.125 379.166 117.888 372.56C117.701 367.172 117.539 361.782 117.456 356.391C117.399 352.714 117.352 349.028 117.498 345.352C117.521 344.767 117.551 344.183 117.593 343.599C117.696 342.174 115.477 342.181 115.374 343.599L115.374 343.599Z" fill="black"/>
<path d="M163.795 526.631C163.364 526.874 162.965 527.17 162.608 527.512C161.814 528.243 161.204 529.15 160.828 530.161C160.57 530.869 160.44 531.617 160.444 532.371C160.444 532.983 160.941 533.48 161.553 533.48C162.166 533.48 162.663 532.983 162.663 532.371C162.664 532.229 162.668 532.088 162.678 531.946C162.684 531.867 162.694 531.788 162.701 531.708C162.713 531.583 162.681 531.847 162.684 531.838C162.694 531.796 162.697 531.751 162.705 531.708C162.752 531.44 162.819 531.176 162.907 530.919C162.926 530.863 162.946 530.807 162.967 530.751C162.978 530.724 162.99 530.697 162.999 530.669C163.037 530.557 162.936 530.813 162.943 530.8C163.004 530.683 163.053 530.559 163.114 530.442C163.221 530.237 163.341 530.04 163.474 529.85C163.503 529.809 163.532 529.767 163.563 529.727C163.577 529.706 163.593 529.687 163.607 529.667C163.674 529.573 163.492 529.813 163.509 529.794C163.578 529.717 163.64 529.634 163.708 529.557C163.833 529.415 163.965 529.279 164.103 529.149C164.222 529.038 164.345 528.932 164.471 528.83C164.662 528.674 164.221 529.013 164.436 528.858C164.484 528.823 164.532 528.788 164.581 528.755C164.688 528.679 164.799 528.609 164.915 528.546C165.439 528.234 165.617 527.558 165.313 527.029C164.995 526.511 164.326 526.335 163.795 526.631H163.795Z" fill="black"/>
<path d="M168.1 528.948C167.669 529.192 167.27 529.488 166.912 529.83C166.119 530.561 165.509 531.468 165.132 532.479C164.875 533.187 164.745 533.935 164.749 534.689C164.749 535.301 165.245 535.798 165.858 535.798C166.471 535.798 166.967 535.301 166.967 534.689C166.968 534.547 166.973 534.405 166.983 534.264C166.989 534.185 166.999 534.106 167.006 534.026C167.017 533.901 166.986 534.165 166.988 534.156C166.999 534.113 167.002 534.068 167.01 534.025C167.056 533.758 167.124 533.494 167.211 533.237C167.231 533.181 167.251 533.125 167.272 533.069C167.282 533.042 167.295 533.014 167.304 532.987C167.342 532.875 167.241 533.131 167.248 533.117C167.309 533.001 167.357 532.877 167.419 532.76C167.526 532.555 167.646 532.357 167.779 532.168C167.808 532.126 167.837 532.085 167.867 532.044C167.882 532.024 167.898 532.005 167.912 531.984C167.979 531.891 167.797 532.131 167.814 532.112C167.883 532.035 167.944 531.952 168.013 531.875C168.138 531.733 168.269 531.597 168.408 531.467C168.526 531.356 168.65 531.25 168.776 531.147C168.967 530.992 168.526 531.33 168.741 531.176C168.789 531.141 168.837 531.106 168.886 531.073C168.993 530.997 169.104 530.927 169.219 530.864C169.744 530.552 169.921 529.876 169.617 529.346C169.299 528.829 168.63 528.653 168.099 528.948H168.1Z" fill="black"/>
<path d="M173.067 529.942C172.636 530.185 172.237 530.482 171.879 530.824C171.085 531.554 170.476 532.462 170.099 533.473C169.842 534.181 169.712 534.929 169.715 535.682C169.715 536.295 170.212 536.792 170.825 536.792C171.437 536.792 171.934 536.295 171.934 535.682C171.935 535.54 171.939 535.399 171.95 535.258C171.956 535.178 171.966 535.099 171.973 535.02C171.984 534.895 171.953 535.159 171.955 535.149C171.966 535.107 171.969 535.062 171.976 535.019C172.023 534.751 172.091 534.488 172.178 534.231C172.197 534.174 172.218 534.118 172.239 534.062C172.249 534.035 172.261 534.008 172.271 533.98C172.308 533.869 172.208 534.124 172.215 534.111C172.276 533.994 172.324 533.87 172.385 533.754C172.493 533.549 172.613 533.351 172.745 533.161C172.774 533.12 172.804 533.079 172.834 533.038C172.849 533.018 172.864 532.998 172.879 532.978C172.946 532.885 172.764 533.124 172.781 533.105C172.85 533.029 172.911 532.945 172.979 532.868C173.104 532.726 173.236 532.59 173.374 532.461C173.493 532.349 173.617 532.244 173.743 532.141C173.933 531.985 173.493 532.324 173.708 532.169C173.756 532.134 173.804 532.1 173.852 532.066C173.959 531.99 174.071 531.921 174.186 531.858C174.711 531.545 174.888 530.87 174.584 530.34C174.266 529.822 173.597 529.647 173.066 529.942H173.067Z" fill="black"/>
<path d="M191.719 543.631C192.595 545.843 193.031 548.205 193.003 550.583H127.783L127.711 545.91H127.675V537.756C127.675 537.756 136.435 534.841 146.639 541.838C153.635 544.461 155.676 537.756 162.964 538.631C170.252 539.505 167.816 541.923 172.241 541.88C172.241 541.88 177.525 542.129 181.023 538.922C184.522 535.716 189.006 537.262 191.719 543.631Z" fill="white"/>
<path d="M190.65 543.926C191.514 546.037 191.938 548.303 191.894 550.583L193.004 549.474H130.426C129.599 549.474 128.723 549.391 127.899 549.474C127.861 549.478 127.822 549.474 127.783 549.474L128.893 550.583L128.82 545.91C128.811 545.301 128.32 544.809 127.711 544.8H127.675L128.784 545.91V537.756L127.97 538.826C128.849 538.555 129.758 538.391 130.677 538.336C133.092 538.14 135.523 538.354 137.867 538.971C139.486 539.39 141.058 539.977 142.556 540.72C144.208 541.54 145.688 542.816 147.486 543.266C149.999 543.895 152.343 543.348 154.602 542.191C156.64 541.148 158.593 539.858 160.943 539.687C162.471 539.608 164 539.787 165.468 540.217C165.937 540.335 166.392 540.499 166.829 540.705C166.993 540.788 167.154 540.876 167.311 540.972C167.406 541.031 167.888 541.374 167.698 541.227C168.17 541.652 168.676 542.039 169.211 542.382C170.056 542.799 170.988 543.007 171.929 542.988C173.69 543.034 175.446 542.801 177.134 542.298C178.826 541.793 180.392 540.934 181.728 539.778C182.549 538.963 183.64 538.477 184.795 538.412C187.785 538.418 189.713 541.77 190.762 544.191C191.074 544.717 191.75 544.894 192.28 544.589C192.796 544.27 192.971 543.602 192.678 543.071C191.488 540.327 189.59 537.48 186.617 536.488C185.482 536.115 184.261 536.098 183.116 536.438C181.754 536.846 180.846 537.712 179.752 538.554C177.746 539.981 175.349 540.754 172.887 540.769C172.682 540.775 172.478 540.774 172.273 540.772C172.11 540.771 171.946 540.771 171.782 540.766C171.69 540.763 171.597 540.758 171.505 540.752C171.46 540.749 171.015 540.694 171.194 540.723C170.993 540.69 170.802 540.636 170.607 540.584C170.302 540.503 170.657 540.644 170.401 540.503C170.266 540.428 170.139 540.346 170.008 540.265C169.991 540.254 169.793 540.106 169.941 540.218C170.087 540.329 169.844 540.137 169.82 540.117C169.251 539.602 168.623 539.156 167.948 538.789C166.706 538.21 165.381 537.83 164.021 537.663C162.451 537.384 160.843 537.399 159.279 537.706C158.035 538.007 156.836 538.469 155.712 539.081C153.791 540.074 151.913 541.366 149.665 541.34C149.065 541.329 148.469 541.241 147.892 541.078C146.991 540.739 146.14 540.28 145.361 539.714C143.75 538.772 142.051 537.991 140.287 537.383C137.363 536.362 134.269 535.92 131.176 536.081C129.89 536.121 128.615 536.324 127.38 536.686C126.905 536.828 126.576 537.261 126.566 537.756V545.909C126.575 546.518 127.066 547.01 127.675 547.019H127.711L126.602 545.909L126.675 550.583C126.684 551.192 127.175 551.683 127.784 551.692H184.967C187.601 551.692 190.256 551.791 192.888 551.692C192.926 551.691 192.965 551.692 193.004 551.692C193.611 551.68 194.101 551.191 194.113 550.583C194.167 548.103 193.717 545.637 192.789 543.336C192.291 542.013 190.145 542.586 190.65 543.926Z" fill="black"/>
<path d="M123.026 492.974H175.298C176.002 492.974 176.729 493.027 177.431 492.974C177.462 492.972 177.494 492.974 177.525 492.974C177.824 492.964 178.061 492.719 178.061 492.42C178.061 492.121 177.824 491.876 177.525 491.865H125.253C124.549 491.865 123.822 491.812 123.12 491.865C123.089 491.867 123.057 491.865 123.026 491.865C122.727 491.876 122.49 492.121 122.49 492.42C122.49 492.719 122.727 492.964 123.026 492.974Z" fill="black"/>
<path d="M52.9521 458.171L100.47 482.659L52.9521 458.171Z" fill="#FC7272"/>
<path d="M52.6719 458.65L57.4068 461.09L68.7146 466.917L82.458 474L94.3419 480.124C96.2515 481.108 98.1413 482.219 100.105 483.094C100.134 483.107 100.162 483.123 100.19 483.138C100.823 483.464 101.385 482.507 100.75 482.18L96.015 479.74L84.7072 473.912L70.9638 466.83L59.08 460.705C57.1704 459.722 55.2806 458.61 53.317 457.736C53.288 457.723 53.2601 457.706 53.2318 457.692C52.5982 457.365 52.0364 458.322 52.672 458.65L52.6719 458.65Z" fill="black"/>
<path d="M92.469 339.403H104.551L103.442 338.293L102.569 350.291L102.085 356.942C101.92 359.206 101.356 361.288 99.68 362.945C98.1929 364.404 96.1948 365.225 94.1114 365.232C93.0541 365.242 91.9967 365.232 90.9393 365.232C89.5116 365.232 89.5093 367.451 90.9393 367.451C93.9603 367.451 96.9098 367.576 99.5707 365.856C102.335 364.039 104.072 361.017 104.248 357.713C104.6 352.961 104.946 348.209 105.285 343.456L105.661 338.293C105.654 337.683 105.161 337.19 104.551 337.184H92.4688C91.0412 337.184 91.0388 339.403 92.4688 339.403L92.469 339.403Z" fill="black"/>
<path d="M133.303 367.451C136.324 367.451 139.274 367.576 141.935 365.856C144.699 364.039 146.436 361.017 146.612 357.713C146.964 352.961 147.31 348.209 147.649 343.456L148.025 338.293C148.018 337.683 147.525 337.19 146.915 337.184H126.071C125.462 337.192 124.971 337.684 124.962 338.293V356.094C124.91 357.342 124.927 358.592 125.014 359.838C125.494 364.087 129.029 367.333 133.303 367.451C134.732 367.479 134.732 365.261 133.303 365.232C130.059 365.134 127.416 362.593 127.191 359.355C127.135 358.272 127.181 357.178 127.181 356.094V338.293L126.071 339.403H146.915L145.806 338.293L144.933 350.291L144.449 356.943C144.284 359.206 143.72 361.288 142.044 362.945C140.557 364.404 138.559 365.225 136.475 365.232C135.418 365.242 134.361 365.232 133.303 365.232C131.876 365.232 131.873 367.451 133.303 367.451Z" fill="black"/>
<path d="M304.078 162.482C304.078 162.482 302.406 159.521 292.482 160.123C286.769 161.927 294.588 176.061 294.588 176.061L301.504 173.354" fill="#FC7272"/>
<path d="M305.036 161.922C304.489 160.971 303.305 160.415 302.341 160.025C301.126 159.569 299.856 159.271 298.565 159.139C297.639 159.024 296.708 158.958 295.775 158.941C294.628 158.868 293.476 158.899 292.335 159.033C289.853 159.44 289.153 162.297 289.311 164.409C289.602 167.004 290.305 169.535 291.395 171.908C292.054 173.518 292.8 175.091 293.629 176.621C293.885 177.053 294.397 177.262 294.882 177.131L301.799 174.424C302.378 174.246 302.718 173.648 302.573 173.059C302.407 172.471 301.799 172.126 301.209 172.285L294.292 174.991L295.545 175.501C293.788 172.477 292.503 169.203 291.733 165.792C291.527 164.872 291.461 163.926 291.537 162.987C291.538 162.977 291.612 162.596 291.656 162.44C291.683 162.347 291.713 162.256 291.745 162.165C291.751 162.148 291.812 162.003 291.76 162.123C291.701 162.258 291.822 162.006 291.823 162.005C291.87 161.927 291.915 161.848 291.962 161.771C292.07 161.595 291.867 161.86 292.006 161.71C292.067 161.643 292.129 161.58 292.194 161.516C292.237 161.474 292.283 161.435 292.331 161.398C292.25 161.461 292.236 161.466 292.33 161.41C292.412 161.361 292.493 161.313 292.578 161.269C292.738 161.183 292.492 161.257 292.679 161.225C293.21 161.165 293.744 161.142 294.278 161.159C295.224 161.14 296.172 161.155 297.116 161.218C298.418 161.287 299.707 161.509 300.956 161.881C301.209 161.96 301.46 162.049 301.706 162.147C301.887 162.218 301.599 162.091 301.824 162.199C301.924 162.247 302.025 162.294 302.124 162.345C302.274 162.423 302.422 162.506 302.566 162.597C302.678 162.667 303.031 162.947 302.747 162.707C302.89 162.828 303.02 162.987 303.167 163.099C303.321 163.216 302.994 162.823 303.12 163.042C303.831 164.279 305.749 163.163 305.035 161.922L305.036 161.922Z" fill="black"/>
<path d="M257.642 205.42L260.273 200.664C262.055 197.439 263.47 194.024 264.492 190.484C265.282 187.751 265.89 186.462 266.621 182.075C268.726 169.445 281.957 165.536 284.363 166.137C286.769 166.738 289.393 171.56 288.874 173.354C286.624 181.13 284.807 189.586 284.807 189.586L284.289 208.958L278.319 222.616" fill="#FC7272"/>
<path d="M258.599 205.98C259.889 203.649 261.249 201.341 262.415 198.944C263.674 196.355 264.715 193.665 265.526 190.902C266.032 189.174 266.618 187.468 267.032 185.714C267.567 183.446 267.789 181.119 268.602 178.923C269.248 177.194 270.176 175.584 271.349 174.16C273.406 171.708 276.003 169.766 278.935 168.486C279.419 168.27 280.023 168.037 280.635 167.835C281.172 167.655 281.717 167.504 282.269 167.381C282.491 167.332 282.715 167.294 282.938 167.252C283.252 167.193 282.84 167.257 283.024 167.237C283.14 167.225 283.255 167.212 283.372 167.204C283.533 167.192 283.694 167.19 283.856 167.189C283.925 167.189 283.995 167.202 284.063 167.2C284.134 167.198 283.795 167.114 284.03 167.198C285.518 167.73 286.57 169.356 287.252 170.788C287.596 171.439 287.793 172.158 287.829 172.894C287.824 173.139 287.868 172.885 287.768 173.185C287.658 173.515 287.575 173.858 287.481 174.192C287.28 174.906 287.083 175.62 286.89 176.335C285.767 180.494 284.746 184.678 283.825 188.889C283.629 190.21 283.556 191.547 283.609 192.882L283.189 208.584L283.179 208.958L283.331 208.398L278.102 220.363L277.361 222.057C277.072 222.588 277.246 223.253 277.759 223.575C278.289 223.879 278.965 223.702 279.277 223.177L282.599 215.576L284.654 210.873C285.017 210.238 285.27 209.545 285.401 208.826C285.552 206.023 285.552 203.204 285.627 200.399L285.893 190.435C285.937 190.165 285.945 189.892 285.915 189.62C285.889 189.538 285.819 190.068 285.902 189.76C285.97 189.51 286.014 189.25 286.07 188.997C286.607 186.583 287.175 184.176 287.773 181.776C288.208 180.029 288.661 178.286 289.131 176.548C289.493 175.218 290.177 173.75 290.013 172.348C289.634 169.904 288.384 167.678 286.494 166.083C285.371 165.129 283.862 164.764 282.427 165.1C280.933 165.365 279.479 165.818 278.099 166.446C274.128 168.126 270.739 170.936 268.352 174.526C266.971 176.673 266.03 179.074 265.584 181.587C265.114 184.168 264.488 186.718 263.71 189.224C262.759 192.541 261.511 195.765 259.981 198.858C259.182 200.406 258.312 201.918 257.468 203.441L256.683 204.86C255.992 206.11 257.907 207.231 258.599 205.98H258.599Z" fill="black"/>
<path d="M277.446 174.734L302.547 161.65C302.547 161.65 306.285 162.718 305.484 166.723C308.154 168.86 307.887 170.996 306.552 172.865C308.955 174.734 309.489 177.671 307.353 179.273C309.489 181.143 309.756 184.08 307.086 186.483C304.89 188.46 302.329 190.511 299.358 191.614C293.667 193.712 289.197 198.223 287.152 203.934L285.19 209.447L279.841 221.413" fill="#FC7272"/>
<path d="M301.51 162.095C301.689 162.163 301.188 161.937 301.46 162.074C301.617 162.154 301.777 162.226 301.932 162.31C302.335 162.523 302.715 162.778 303.064 163.071C304.094 163.86 304.611 165.147 304.414 166.428C304.31 166.813 304.419 167.225 304.699 167.508C305.467 168.14 306.306 168.929 306.418 169.978C306.432 170.828 306.14 171.654 305.594 172.305C305.339 172.74 305.411 173.293 305.767 173.649C307.305 174.885 308.438 177.014 306.569 178.489C306.138 178.923 306.138 179.623 306.569 180.058C307.349 180.678 307.836 181.596 307.912 182.59C307.869 183.727 307.351 184.794 306.483 185.53C304.495 187.525 302.167 189.15 299.608 190.328C298.402 190.845 297.184 191.288 296.03 191.922C294.947 192.523 293.917 193.214 292.95 193.987C290.982 195.553 289.305 197.452 287.995 199.599C286.317 202.345 285.41 205.53 284.336 208.545C284.262 208.722 284.197 208.904 284.143 209.088C284.091 209.311 284.309 208.732 284.203 208.951C284.066 209.237 283.944 209.532 283.814 209.821L282.155 213.534L278.883 220.853C278.594 221.385 278.768 222.05 279.281 222.371C279.811 222.675 280.487 222.498 280.799 221.973L283.674 215.542C284.553 213.574 285.556 211.622 286.31 209.601C287.349 206.815 288.114 203.853 289.594 201.256C290.849 199.054 292.522 197.117 294.519 195.556C295.487 194.807 296.522 194.15 297.611 193.592C298.83 192.962 300.138 192.549 301.369 191.946C302.854 191.189 304.256 190.279 305.551 189.231C306.87 188.299 308.05 187.185 309.056 185.922C310.728 183.582 310.328 180.352 308.138 178.489V180.058C310.932 177.853 309.763 174.031 307.337 172.08L307.51 173.425C308.299 172.391 308.693 171.109 308.62 169.81C308.381 168.259 307.535 166.866 306.268 165.939L306.554 167.018C306.949 165.057 306.294 163.032 304.825 161.675C304.037 160.93 303.111 160.346 302.1 159.955C301.51 159.797 300.902 160.142 300.735 160.73C300.586 161.318 300.928 161.92 301.51 162.094L301.51 162.095Z" fill="black"/>
<path d="M278.006 175.692L296.465 166.07L299.11 164.691C300.376 164.031 299.256 162.116 297.99 162.776L279.531 172.398L276.887 173.776C275.62 174.436 276.74 176.352 278.006 175.692H278.006Z" fill="black"/>
<path d="M123.976 224.687L124.501 198.64L146.596 207.147L147.286 224.247" fill="#FC7272"/>
<path d="M125.085 224.687L125.262 215.896L125.546 201.873L125.611 198.64L124.206 199.71L143.603 207.178L146.301 208.216L145.487 207.147L146.091 222.132L146.176 224.247C146.234 225.67 148.453 225.677 148.395 224.247L147.791 209.262L147.705 207.147C147.69 206.653 147.363 206.224 146.891 206.077L127.495 198.609L124.797 197.57C124.463 197.482 124.107 197.553 123.833 197.762C123.558 197.971 123.396 198.295 123.392 198.64L123.215 207.431L122.932 221.454L122.866 224.687C122.838 226.116 125.056 226.115 125.085 224.687L125.085 224.687Z" fill="black"/>
<path d="M142.924 210.614C144.874 211.031 146.85 211.311 148.839 211.452C149.45 211.498 150.064 211.442 150.658 211.289C159.105 209.099 162.487 201.18 163.58 192.772H164.387C167.046 193.147 168.055 192.497 167.748 190.827C165.34 188.196 164.326 186.728 164.062 184.828L163.997 183.597C163.857 178.671 163.291 173.766 162.305 168.937L119.893 167.419C119.893 167.419 114.384 176.495 114.789 180.676C115.486 187.874 122.5 193.03 124.438 202.311" fill="#FC7272"/>
<path d="M142.629 211.684C143.975 211.971 145.333 212.19 146.699 212.355C148.104 212.616 149.546 212.618 150.952 212.359C152.973 211.854 154.873 210.948 156.538 209.695C159.805 207.228 161.893 203.638 163.166 199.798C163.894 197.509 164.404 195.157 164.689 192.772L163.58 193.882C165.259 193.882 167.663 194.451 168.626 192.595C168.833 192.176 168.93 191.711 168.907 191.245C168.882 190.385 168.448 189.959 167.902 189.344C167.061 188.458 166.329 187.474 165.722 186.414C165.541 186.072 165.398 185.71 165.295 185.336C165.235 185.121 165.187 184.903 165.154 184.683C165.197 184.988 165.156 184.555 165.152 184.469C165.091 183.32 165.063 182.17 164.994 181.021C164.828 178.231 164.52 175.449 164.1 172.685C163.894 171.333 163.672 169.978 163.374 168.642C163.236 168.164 162.802 167.834 162.305 167.828L147.969 167.315L125.126 166.497L119.893 166.31C119.498 166.31 119.134 166.519 118.935 166.859C118.205 168.064 117.535 169.309 116.897 170.564C115.657 172.85 114.683 175.27 113.996 177.779C112.672 183.235 116.303 188.175 119.001 192.583C120.926 195.729 122.591 198.973 123.368 202.606C123.666 204.001 125.805 203.411 125.507 202.016C124.764 198.829 123.521 195.78 121.825 192.982C120.395 190.518 118.747 188.175 117.47 185.624C116.482 183.65 115.591 181.218 115.983 179.08C116.508 176.719 117.354 174.442 118.499 172.312C119.225 170.84 120 169.383 120.851 167.979L119.893 168.528L134.228 169.042L157.071 169.859L162.305 170.046L161.235 169.232C161.715 171.388 162.038 173.588 162.302 175.779C162.576 178.056 162.765 180.343 162.855 182.635C162.809 183.913 162.964 185.191 163.314 186.422C164.05 188.429 165.546 190.057 166.963 191.611L166.678 191.122C166.727 191.42 166.689 191.573 166.608 191.654C166.792 191.47 166.593 191.633 166.54 191.654C166.414 191.692 166.287 191.723 166.157 191.745C165.297 191.778 164.436 191.751 163.58 191.663C162.975 191.681 162.488 192.167 162.47 192.773C161.545 199.771 158.657 207.541 151.337 209.934C150.784 210.138 150.209 210.276 149.624 210.346C148.911 210.37 148.197 210.329 147.491 210.225C146.056 210.075 144.63 209.848 143.219 209.544C141.827 209.247 141.232 211.385 142.629 211.684L142.629 211.684Z" fill="black"/>
<path d="M144.651 187.621C144.375 186.718 144.044 185.833 143.658 184.972C143.076 183.637 142.336 182.185 141.179 181.259C140.451 180.608 139.456 180.344 138.502 180.548C137.914 180.716 137.57 181.323 137.727 181.913C137.9 182.496 138.503 182.837 139.092 182.688C139.123 182.683 139.153 182.676 139.183 182.667C139.315 182.613 139.046 182.692 139.025 182.687C139.085 182.69 139.145 182.687 139.205 182.679C139.233 182.68 139.265 182.685 139.294 182.683C139.442 182.676 139.138 182.662 139.131 182.659C139.203 182.68 139.276 182.697 139.349 182.709C139.377 182.717 139.407 182.731 139.435 182.737C139.58 182.771 139.305 182.681 139.298 182.676C139.352 182.707 139.408 182.735 139.466 182.758C139.523 182.789 139.578 182.822 139.632 182.857C139.739 182.926 139.879 183.105 139.65 182.859C139.854 183.078 140.089 183.26 140.283 183.492C140.314 183.529 140.344 183.567 140.375 183.604C140.444 183.688 140.375 183.687 140.309 183.518C140.349 183.587 140.396 183.651 140.449 183.71C140.549 183.851 140.645 183.995 140.736 184.142C141.099 184.732 141.419 185.347 141.695 185.982C141.727 186.055 141.758 186.127 141.789 186.199C141.851 186.339 141.687 185.951 141.789 186.2C141.851 186.352 141.913 186.503 141.972 186.656C142.068 186.904 142.16 187.154 142.248 187.405C142.342 187.672 142.433 187.94 142.512 188.21C142.616 188.594 142.918 188.892 143.302 188.993C143.687 189.094 144.095 188.981 144.374 188.697C144.653 188.414 144.759 188.003 144.651 187.62L144.651 187.621Z" fill="black"/>
<path d="M160.963 178.237C160.099 177.683 159.139 177.296 158.132 177.097C155.899 176.619 153.569 176.979 151.585 178.108C151.058 178.419 150.882 179.096 151.19 179.624C151.499 180.152 152.176 180.331 152.705 180.024C153.168 179.761 153.658 179.548 154.167 179.389C154.578 179.263 155 179.174 155.428 179.124C156.2 179.039 156.981 179.092 157.735 179.281C158.055 179.359 158.372 179.455 158.681 179.569C158.756 179.596 158.829 179.628 158.903 179.654C159.099 179.724 158.758 179.584 158.876 179.642C158.983 179.695 159.094 179.74 159.202 179.793C159.424 179.898 159.638 180.018 159.843 180.153C160.185 180.353 160.608 180.355 160.952 180.159C161.296 179.963 161.51 179.598 161.512 179.201C161.514 178.805 161.305 178.437 160.962 178.237H160.963Z" fill="black"/>
<path d="M123.762 225.078L107.941 225.551C101.416 225.748 91.8814 227.218 87.0026 233.926L81.5263 240.047L81.9791 186.776L59.1246 186.752L51.696 201.623C48.3034 208.415 46.9863 216.055 47.9092 223.59L57.1383 282.519C60.0481 296.362 72.2589 306.272 86.4044 306.272H114.574" fill="white"/>
<path d="M123.762 223.969L108.474 224.426C104.891 224.475 101.327 224.95 97.856 225.841C95.4779 226.464 93.2024 227.428 91.1 228.702C90.057 229.349 89.0788 230.095 88.179 230.93C87.7484 231.332 87.3406 231.757 86.9577 232.204C86.7243 232.477 86.4997 232.759 86.2838 233.046C86.2717 233.062 86.067 233.319 86.2155 233.144C86.2055 233.156 86.1946 233.167 86.1847 233.179C84.4311 235.255 82.5536 237.237 80.7413 239.262L82.6352 240.047L82.6804 234.748L82.7885 222.024L82.9194 206.631L83.0324 193.326C83.0507 191.183 83.1653 189.015 83.0873 186.872C83.0861 186.84 83.0879 186.808 83.0881 186.776C83.0798 186.167 82.5879 185.675 81.9787 185.666L61.9113 185.646L59.1237 185.643C58.7288 185.641 58.3631 185.85 58.1658 186.192L51.6389 199.258C50.0942 202.191 48.8446 205.269 47.9086 208.449C46.5051 213.477 46.1426 218.739 46.8431 223.913C47.2321 226.56 47.6712 229.201 48.0851 231.844L50.7558 248.896L53.6945 267.66L55.7371 280.7C55.8472 281.402 55.9381 282.111 56.0676 282.81C56.9307 287.102 58.738 291.148 61.3586 294.654C66.7704 301.996 75.1137 306.614 84.2085 307.302C85.8576 307.422 87.5201 307.382 89.1727 307.382H114.574C116.001 307.382 116.004 305.163 114.574 305.163H86.9619C79.6216 305.252 72.5149 302.585 67.0465 297.688C62.3266 293.443 59.1722 287.734 58.0911 281.48L56.411 270.752L53.604 252.829L50.8018 234.937L49.1061 224.11C48.0362 216.585 49.2854 208.912 52.6874 202.115C54.9206 197.631 57.1593 193.149 59.4035 188.67L60.082 187.312L59.1241 187.862L79.1916 187.882L81.9792 187.885L80.8698 186.776L80.8246 192.074L80.7165 204.798L80.5856 220.191L80.4725 233.497C80.4543 235.64 80.3396 237.808 80.4177 239.951C80.4189 239.983 80.4171 240.015 80.4169 240.047C80.4277 240.49 80.6988 240.886 81.1086 241.055C81.5183 241.225 81.9896 241.137 82.3107 240.831L87.4152 235.126C88.4384 233.841 89.5788 232.654 90.8218 231.581C92.6773 230.191 94.7544 229.124 96.9653 228.427C103.081 226.404 109.631 226.61 115.993 226.419L123.762 226.187C125.187 226.144 125.193 223.925 123.762 223.968L123.762 223.969Z" fill="black"/>
<circle cx="157.516" cy="184.16" r="1.48507" fill="black"/>
<path d="M155.477 184.136C155.477 184.997 156.01 185.768 156.815 186.073C157.605 186.363 158.492 186.137 159.047 185.505C159.643 184.826 159.721 183.836 159.238 183.072C158.756 182.309 157.829 181.953 156.96 182.199C156.091 182.445 155.487 183.233 155.477 184.137C155.479 184.442 155.726 184.689 156.031 184.691C156.335 184.685 156.58 184.441 156.586 184.137C156.581 184.095 156.584 184.053 156.593 184.013C156.562 184.06 156.575 184.104 156.59 184.039C156.605 183.975 156.618 183.909 156.639 183.846L156.652 183.808C156.674 183.751 156.67 183.759 156.64 183.831C156.648 183.807 156.66 183.783 156.674 183.761C156.702 183.688 156.744 183.621 156.797 183.563C156.71 183.619 156.758 183.608 156.795 183.57C156.817 183.547 156.838 183.522 156.861 183.499C156.879 183.481 156.898 183.463 156.917 183.446L156.946 183.421C156.993 183.383 156.986 183.388 156.925 183.436C156.945 183.396 157.055 183.351 157.089 183.332C157.112 183.32 157.136 183.309 157.159 183.297C157.254 183.247 157.054 183.324 157.19 183.287C157.254 183.269 157.316 183.249 157.382 183.236L157.402 183.233C157.464 183.223 157.455 183.224 157.375 183.236C157.392 183.223 157.455 183.23 157.477 183.23C157.512 183.229 157.546 183.229 157.581 183.231C157.589 183.231 157.725 183.236 157.63 183.232C157.538 183.228 157.663 183.239 157.676 183.241C157.715 183.25 157.754 183.259 157.792 183.271C157.832 183.277 157.869 183.29 157.904 183.309C157.9 183.305 157.786 183.25 157.88 183.3C157.938 183.331 157.995 183.36 158.05 183.396C158.057 183.401 158.159 183.477 158.088 183.42C158.017 183.364 158.115 183.445 158.121 183.451C158.184 183.497 158.238 183.554 158.28 183.62C158.246 183.533 158.239 183.562 158.263 183.601C158.283 183.634 158.305 183.665 158.325 183.699C158.338 183.722 158.35 183.744 158.362 183.767L158.379 183.802C158.404 183.858 158.401 183.85 158.37 183.778C158.404 183.805 158.418 183.926 158.427 183.967C158.434 183.993 158.438 184.019 158.444 184.045C158.466 184.158 158.437 183.931 158.445 184.079C158.448 184.142 158.443 184.203 158.443 184.266C158.443 184.403 158.47 184.147 158.443 184.28C158.437 184.306 158.432 184.332 158.426 184.359C158.415 184.404 158.402 184.515 158.367 184.548L158.393 184.488C158.382 184.512 158.371 184.535 158.359 184.558C158.341 184.593 158.322 184.627 158.301 184.66C158.285 184.687 158.261 184.713 158.247 184.741C158.214 184.808 158.335 184.647 158.251 184.735C158.206 184.782 158.164 184.83 158.115 184.873C158.108 184.88 158.008 184.954 158.082 184.904C158.157 184.852 158.05 184.923 158.043 184.928C157.983 184.977 157.913 185.015 157.838 185.039C157.848 185.037 157.96 184.997 157.861 185.026C157.823 185.038 157.786 185.051 157.748 185.061C157.722 185.068 157.696 185.074 157.67 185.079C157.654 185.083 157.536 185.087 157.624 185.088C157.719 185.089 157.586 185.088 157.576 185.089C157.542 185.09 157.507 185.09 157.473 185.089C157.438 185.093 157.403 185.091 157.37 185.083C157.449 185.095 157.458 185.096 157.396 185.086L157.357 185.078C157.306 185.067 157.166 185.052 157.128 185.01L157.188 185.036C157.17 185.028 157.153 185.019 157.135 185.01C157.096 184.988 157.055 184.968 157.016 184.944C156.994 184.931 156.973 184.915 156.951 184.902C156.902 184.866 156.909 184.872 156.97 184.919C156.95 184.902 156.931 184.885 156.912 184.868C156.864 184.825 156.821 184.777 156.777 184.729C156.689 184.635 156.837 184.83 156.77 184.719C156.75 184.686 156.727 184.654 156.708 184.62C156.688 184.586 156.672 184.551 156.653 184.517C156.602 184.419 156.682 184.62 156.65 184.504C156.628 184.427 156.606 184.353 156.589 184.274C156.574 184.203 156.566 184.266 156.593 184.301C156.572 184.274 156.586 184.17 156.586 184.136C156.586 183.83 156.338 183.582 156.031 183.582C155.725 183.582 155.477 183.83 155.477 184.136H155.477Z" fill="black"/>
<path d="M135.72 191.803C136.879 193.603 138.675 194.901 140.748 195.437C141.826 195.688 142.942 195.729 144.035 195.559C144.625 195.395 144.972 194.785 144.81 194.194C144.631 193.616 144.033 193.277 143.445 193.42C143.67 193.389 143.252 193.434 143.212 193.437C143.077 193.447 142.941 193.453 142.804 193.455C142.545 193.46 142.285 193.45 142.027 193.426C141.965 193.42 141.903 193.413 141.841 193.405C141.983 193.425 141.99 193.425 141.863 193.406C141.745 193.383 141.627 193.364 141.51 193.338C141.312 193.294 141.117 193.242 140.924 193.181C140.817 193.147 140.711 193.11 140.606 193.071C140.549 193.05 140.214 192.899 140.493 193.03C140.304 192.941 140.115 192.852 139.931 192.751C139.757 192.655 139.588 192.553 139.422 192.443C139.343 192.391 139.265 192.337 139.187 192.281C139.16 192.262 138.92 192.087 139.078 192.203C139.234 192.318 139.008 192.146 138.982 192.124C138.916 192.07 138.851 192.014 138.786 191.958C138.667 191.852 138.55 191.744 138.436 191.631C138.251 191.449 138.076 191.259 137.909 191.06C137.831 190.965 137.64 190.657 137.879 191.03C137.838 190.966 137.787 190.907 137.744 190.845C137.706 190.792 137.669 190.738 137.635 190.683C137.435 190.341 137.067 190.131 136.671 190.133C136.275 190.136 135.909 190.349 135.713 190.693C135.517 191.038 135.519 191.461 135.719 191.803L135.72 191.803Z" fill="black"/>
<path d="M123.762 225.078L147.241 222.008L179.713 254.849C179.713 254.849 167.342 289.426 165.579 308.378L106.037 307.475C100.42 282.731 93.9528 263.44 96.9887 245.846" fill="white"/>
<path d="M123.762 226.188L144.374 223.492L147.241 223.117L146.457 222.792L157.469 233.93L174.906 251.566L178.928 255.634L178.643 254.555C177.112 258.834 175.696 263.157 174.318 267.488C171.541 276.223 168.961 285.042 166.935 293.985C165.806 298.725 164.982 303.532 164.469 308.378L165.579 307.268L159.646 307.179L145.404 306.962L128.251 306.702L113.362 306.477L108.473 306.403C107.695 306.349 106.915 306.337 106.135 306.367C106.102 306.368 106.069 306.368 106.036 306.366L107.106 307.18C105.09 298.309 102.778 289.507 100.791 280.629C99.1163 273.147 97.6502 265.559 97.3687 257.879C97.1958 253.952 97.4268 250.019 98.0582 246.14C98.2963 244.743 96.1583 244.143 95.9187 245.55C94.6773 252.831 95.0232 260.207 96.0558 267.49C97.2295 275.769 99.2296 283.911 101.207 292.026C102.484 297.268 103.771 302.508 104.967 307.77C105.104 308.248 105.539 308.579 106.037 308.584L111.969 308.674L126.212 308.89L143.365 309.15L158.254 309.375C160.653 309.412 163.081 309.558 165.48 309.485C165.513 309.484 165.546 309.486 165.579 309.486C166.186 309.472 166.674 308.984 166.689 308.377C167.524 299.507 169.847 290.742 172.234 282.184C174.351 274.592 176.711 267.065 179.241 259.601C179.746 258.112 180.253 256.624 180.783 255.144C180.891 254.759 180.782 254.346 180.497 254.065L173.592 247.08L159.8 233.131L149.118 222.327C148.503 221.706 147.924 220.842 146.969 220.934C144.838 221.137 142.71 221.491 140.588 221.768L124.105 223.924L123.762 223.969C123.158 223.988 122.672 224.473 122.653 225.078C122.656 225.689 123.151 226.184 123.762 226.188H123.762Z" fill="black"/>
<path d="M256.177 206.453L261.846 197.707L285.081 211.098L280.953 219.356" fill="white"/>
<path d="M257.135 207.012L262.804 198.267L261.286 198.665L269.114 203.176L281.66 210.406L284.522 212.056L284.124 210.538L279.995 218.796C279.358 220.07 281.271 221.195 281.911 219.916L286.04 211.658C286.336 211.127 286.16 210.457 285.642 210.14L277.813 205.628L265.268 198.399L262.406 196.749C261.875 196.453 261.205 196.629 260.888 197.147L255.22 205.892C254.441 207.094 256.361 208.207 257.135 207.012Z" fill="black"/>
<path d="M142.979 224.592L164.523 224.534C168.618 224.523 172.657 225.49 176.302 227.356L212.723 245.991L230.112 255.486L239.198 230.735C243.055 220.229 249.549 210.892 258.058 203.621L259.274 202.581L282.759 216.775L286.019 231.185C287.074 235.852 286.299 240.746 283.852 244.858L260.163 284.671C251.39 298.089 234.019 302.905 219.59 295.921L200.523 286.692L155.27 263.745" fill="white"/>
<path d="M142.979 225.701L162.02 225.65C162.848 225.648 163.675 225.643 164.503 225.644C167.977 225.63 171.415 226.352 174.59 227.76C176.2 228.486 177.758 229.345 179.329 230.149L199.708 240.576C203.889 242.716 208.117 244.785 212.258 247.001C217.867 250.003 223.426 253.099 229.009 256.148L229.552 256.444C229.851 256.611 230.209 256.633 230.526 256.504C230.843 256.375 231.084 256.109 231.181 255.781L237.224 239.32L240.09 231.514C241.806 226.796 244.055 222.289 246.792 218.08C250.488 212.566 254.956 207.611 260.059 203.366L258.714 203.539L266.665 208.345L279.277 215.967L282.199 217.733L281.689 217.07L283.461 224.902L284.589 229.891C284.905 231.115 285.14 232.359 285.293 233.614C285.608 237.583 284.637 241.547 282.523 244.921L279.383 250.199L268.294 268.836L259.682 283.309C252.245 295.467 237.424 300.914 223.884 296.465C221.386 295.556 218.952 294.48 216.599 293.244C211.427 290.741 206.229 288.285 201.081 285.733C197.588 284.001 194.125 282.206 190.648 280.443L170.582 270.268L156.556 263.155L155.83 262.787C154.559 262.143 153.435 264.056 154.71 264.703L168.331 271.61L191.738 283.479C195.258 285.264 198.767 287.071 202.32 288.791L213.78 294.337C216.772 295.786 219.757 297.4 222.909 298.476C235.504 302.665 249.384 298.96 258.217 289.052C259.871 287.09 261.339 284.978 262.601 282.743L267.855 273.913L281.081 251.685L284.629 245.723C287.349 241.211 288.214 235.82 287.042 230.683C286.215 227.005 285.383 223.328 284.546 219.652L284.023 217.338C283.987 216.854 283.821 216.389 283.544 215.991C282.958 215.526 282.322 215.128 281.647 214.807L261.507 202.634L259.834 201.623C259.397 201.38 258.851 201.45 258.49 201.797C253.915 205.624 249.831 210.001 246.33 214.83C242.9 219.676 240.13 224.957 238.093 230.535C235.912 236.466 233.734 242.399 231.56 248.334L229.042 255.192L230.672 254.529L214.203 245.536C210.583 243.559 206.866 241.75 203.195 239.871L182.13 229.094C180.407 228.212 178.683 227.33 176.96 226.448C172.858 224.392 168.321 223.356 163.733 223.427L143.552 223.481L142.979 223.482C141.552 223.486 141.549 225.705 142.979 225.701H142.979Z" fill="black"/>
<path d="M154.698 224.433H117.355C118.103 219.429 122.401 215.725 127.461 215.725H135.003C136.601 215.725 138.178 216.1 139.605 216.82L154.698 224.433Z" fill="white"/>
<path d="M154.698 223.324H117.355L118.425 224.728C119.036 220.483 122.494 217.221 126.768 216.858C129.225 216.692 131.729 216.834 134.191 216.834C135.861 216.763 137.525 217.087 139.046 217.779C139.545 218.024 140.039 218.279 140.535 218.529L148.215 222.404L154.138 225.391C155.41 226.033 156.534 224.119 155.258 223.476L141.899 216.737C141.324 216.447 140.752 216.151 140.174 215.867C138.425 215.016 136.5 214.588 134.555 214.615C132.063 214.615 129.555 214.527 127.064 214.623C121.674 214.849 117.178 218.818 116.286 224.139C116.202 224.472 116.274 224.825 116.482 225.099C116.69 225.372 117.012 225.535 117.356 225.543H154.698C156.125 225.543 156.128 223.324 154.698 223.324Z" fill="black"/>
<path d="M156.965 196.962C157.74 198.254 158.979 199.2 160.428 199.61C161.161 199.786 161.923 199.797 162.661 199.644C163.249 199.478 163.595 198.869 163.435 198.279C163.26 197.698 162.659 197.358 162.071 197.504C161.967 197.524 161.706 197.514 162.053 197.514C161.973 197.514 161.89 197.531 161.81 197.535C161.655 197.544 161.499 197.542 161.344 197.531C161.243 197.523 160.996 197.457 161.362 197.54C161.292 197.524 161.219 197.516 161.148 197.501C161.01 197.471 160.874 197.434 160.74 197.389C160.675 197.368 160.612 197.343 160.547 197.319C160.37 197.253 160.832 197.449 160.581 197.331C160.463 197.276 160.347 197.215 160.235 197.148C160.126 197.085 160.02 197.017 159.918 196.944C159.868 196.909 159.82 196.872 159.771 196.837C160.087 197.063 159.892 196.931 159.821 196.873C159.523 196.618 159.248 196.336 159.001 196.031C158.902 195.912 159.208 196.307 159.093 196.15C159.075 196.124 159.056 196.099 159.037 196.074C159.008 196.033 158.979 195.992 158.951 195.951C158.927 195.915 158.903 195.879 158.881 195.843C158.571 195.316 157.893 195.14 157.365 195.448C156.838 195.757 156.659 196.434 156.965 196.962L156.965 196.962Z" fill="black"/>
<path d="M216.27 249.191L224.012 253.595L236.37 260.625L239.23 262.251C240.473 262.958 241.592 261.042 240.35 260.335L232.607 255.931L220.249 248.902L217.389 247.276C216.146 246.569 215.027 248.485 216.269 249.191L216.27 249.191Z" fill="black"/>
<path d="M89.8525 241.336H129.846C141.471 223.113 138.37 193.128 138.37 193.128C136.311 191.615 133.245 185.692 133.143 182.245C132.99 177.037 135.749 175.73 139.386 175.623C143.024 175.515 147.247 182.268 147.397 187.343L147.658 176.338C147.697 174.714 148.418 173.182 149.646 172.119C150.874 171.056 152.493 170.56 154.106 170.754L161.997 170.89C163.566 170.917 165.036 170.123 165.874 168.795C166.713 167.468 166.798 165.8 166.099 164.394L165.449 163.087C162.952 158.065 157.905 152.121 152.3 151.923L131.009 151.172C124.833 150.954 113.309 158.394 110.796 169.076L107.619 185.607C100.906 188.963 96.666 195.823 96.6661 203.328V203.968L92.5949 205.597C83.7471 209.136 78.672 218.472 80.5136 227.822C79.3542 230.889 79.7749 234.33 81.6391 237.028C83.5033 239.725 86.5734 241.336 89.8525 241.336Z" fill="#FFC41F"/>
<path d="M89.8524 242.445H128.85C129.126 242.445 129.404 242.453 129.68 242.445C130.468 242.422 130.817 241.888 131.206 241.251C132.807 238.582 134.142 235.762 135.193 232.832C137.239 227.008 138.577 220.959 139.179 214.815C139.725 209.821 139.942 204.797 139.828 199.775C139.783 197.569 139.728 195.336 139.48 193.14C139.406 192.485 139.06 192.3 138.705 191.961C138.306 191.57 137.947 191.14 137.632 190.679C136.763 189.426 136.028 188.085 135.439 186.679C134.442 184.326 133.535 181.17 134.866 178.755C135.329 177.932 136.103 177.328 137.015 177.08C138.013 176.723 139.088 176.639 140.13 176.837C141.263 177.177 142.201 178.131 142.949 179.025C143.914 180.205 144.691 181.526 145.256 182.942C145.852 184.338 146.201 185.827 146.287 187.343C146.308 187.941 146.798 188.415 147.396 188.415C147.994 188.415 148.485 187.941 148.506 187.343L148.747 177.193C148.736 176.68 148.765 176.167 148.833 175.659C149.097 174.242 149.992 173.024 151.265 172.349C152.808 171.518 154.957 171.878 156.669 171.907C158.427 171.938 160.186 171.994 161.945 171.998C164.927 172.031 167.427 169.75 167.667 166.777C167.772 165.411 167.262 164.247 166.671 163.058C166.078 161.84 165.408 160.66 164.666 159.527C162.768 156.679 160.352 153.98 157.33 152.3C155.599 151.35 153.664 150.832 151.689 150.792L147.355 150.639L134.577 150.188C133.436 150.148 132.296 150.103 131.155 150.067C129.433 150.047 127.723 150.359 126.119 150.984C120.586 153.111 115.877 156.95 112.679 161.941C111.269 164.07 110.259 166.439 109.698 168.93C109.421 170.278 109.178 171.634 108.918 172.985L106.705 184.5L106.549 185.311L107.059 184.648C103.42 186.485 100.395 189.343 98.356 192.873C96.4566 196.258 95.4906 200.087 95.5567 203.968L96.3709 202.898C93.2831 204.133 90.1098 205.217 87.4266 207.24C83.4191 210.252 80.6162 214.593 79.5213 219.485C78.9106 222.327 78.8842 225.264 79.4438 228.117V227.527C78.2054 230.883 78.6665 234.631 80.6813 237.587C82.7607 240.608 86.185 242.422 89.8522 242.445C91.2803 242.458 91.2815 240.24 89.8522 240.226C86.5913 240.21 83.5971 238.422 82.0374 235.558C80.8893 233.45 80.6551 230.963 81.3894 228.677C81.5691 228.249 81.6227 227.779 81.544 227.322C81.4668 226.876 81.3942 226.432 81.3486 225.981C80.6234 218.756 84.1036 211.754 90.3013 207.97C92.3796 206.722 94.7178 205.935 96.9608 205.038C97.433 204.892 97.7602 204.462 97.775 203.968C97.7078 200.652 98.4814 197.372 100.024 194.435C101.733 191.288 104.304 188.693 107.436 186.955C107.952 186.669 108.516 186.49 108.695 185.863C108.735 185.725 108.751 185.575 108.778 185.434L109.179 183.344L110.489 176.531C111.227 172.69 111.646 168.6 113.439 165.071C116.191 159.658 121.342 154.948 127.127 152.975C128.526 152.468 130.011 152.238 131.499 152.298L136.26 152.466L149.893 152.948C150.983 152.933 152.072 152.989 153.155 153.114C156.712 153.707 159.642 156.488 161.753 159.247C162.808 160.636 163.731 162.12 164.507 163.682C165.013 164.692 165.613 165.683 165.439 166.864C165.232 168.224 164.236 169.331 162.906 169.68C162.215 169.798 161.512 169.825 160.814 169.76L154.444 169.65C153.279 169.549 152.106 169.684 150.995 170.048C149.36 170.67 148.021 171.888 147.247 173.457C146.399 175.234 146.527 177.211 146.482 179.129L146.319 185.954L146.287 187.343H148.505C148.318 184.185 147.235 181.145 145.382 178.579C143.858 176.427 141.73 174.36 138.91 174.535C136.536 174.682 134.103 175.469 132.916 177.7C131.551 180.265 131.915 183.429 132.839 186.07C133.408 187.702 134.144 189.27 135.035 190.75C135.742 192.026 136.683 193.158 137.809 194.086L137.26 193.128C137.6 196.834 137.72 200.557 137.619 204.277C137.488 212.126 136.653 220.03 134.54 227.608C133.311 232.25 131.407 236.687 128.888 240.776L129.846 240.226H89.8523C88.4248 240.226 88.4224 242.445 89.8524 242.445Z" fill="black"/>
<path d="M131.081 151.138L166.823 151.684C172.694 151.785 176.757 160.455 174.526 165.886C174.526 165.886 173.633 170.647 167.664 174.417C167.978 174.732 169.863 169.705 169.235 167.505C166.532 170.646 162.901 172.847 158.866 173.789C158.866 173.789 160.367 171.175 160.402 168.869" fill="#FFC41F"/>
<path d="M131.081 152.248L138.332 152.358L153.15 152.585L165.13 152.768C165.906 152.739 166.683 152.764 167.456 152.842C170.29 153.284 172.329 155.976 173.271 158.505C173.832 159.958 174.088 161.51 174.023 163.066C173.927 163.996 173.721 164.911 173.409 165.793C173.208 166.545 172.906 167.267 172.512 167.938C171.741 169.299 170.756 170.526 169.593 171.572C168.819 172.271 167.986 172.903 167.104 173.459C166.771 173.664 166.568 174.026 166.568 174.417C166.568 174.808 166.771 175.171 167.104 175.375C168.65 176.378 169.464 173.515 169.757 172.584C170.28 170.916 170.756 168.944 170.305 167.21C170.196 166.833 169.896 166.541 169.516 166.44C169.136 166.34 168.732 166.446 168.451 166.721C165.939 169.533 162.381 172.072 158.572 172.719L159.825 174.349C160.814 172.682 161.392 170.803 161.512 168.869C161.561 167.441 159.343 167.443 159.293 168.869C159.182 170.411 158.707 171.905 157.909 173.229C157.696 173.62 157.734 174.099 158.005 174.452C158.276 174.804 158.73 174.964 159.162 174.859C160.437 174.598 161.674 174.178 162.844 173.608C165.58 172.354 168.024 170.543 170.019 168.29L168.165 167.8C168.428 168.813 168.115 170.201 167.822 171.29C167.667 171.877 167.478 172.454 167.257 173.019C167.187 173.196 167.174 173.209 167.055 173.462C167.009 173.526 166.97 173.595 166.938 173.668C167.125 173.451 167.396 173.325 167.682 173.32L168.242 173.471L168.224 173.459V175.375C171.183 173.481 173.753 170.896 175.117 167.617C175.985 165.663 176.357 163.523 176.198 161.39C175.674 156.177 172.105 150.655 166.414 150.568L156.106 150.411L140.515 150.173C137.425 150.126 134.314 149.968 131.223 150.031C131.176 150.032 131.128 150.03 131.081 150.029C129.653 150.007 129.652 152.226 131.081 152.248L131.081 152.248Z" fill="black"/>
<path d="M71.0024 181.062H81.9787V172.335L89.063 167.381C90.2547 166.548 90.8874 165.123 90.7071 163.681C90.5592 162.497 89.881 161.446 88.8643 160.823C87.8476 160.2 86.6027 160.073 85.4814 160.479L79.0117 162.819C78.2241 163.104 77.3536 163.048 76.6086 162.666C75.8635 162.284 75.311 161.609 75.0833 160.803V160.802" fill="#FC7272"/>
<path d="M71.0028 182.172H81.9791C82.5882 182.163 83.0799 181.671 83.0884 181.062V172.335L82.539 173.293L86.5993 170.454C88.045 169.443 89.9769 168.441 90.9962 166.96C93.1287 163.863 90.9829 159.585 87.3435 159.169C85.4639 158.954 83.4123 160.051 81.6902 160.674C80.7466 161.015 79.8054 161.364 78.8591 161.698C77.7596 162.086 76.5026 161.743 76.1537 160.507C75.7661 159.136 73.6247 159.719 74.0142 161.097C74.3321 162.179 75.074 163.085 76.071 163.611C77.068 164.137 78.2353 164.237 79.3073 163.889C80.2408 163.58 81.16 163.219 82.0846 162.884C83.261 162.459 84.4354 162.026 85.6142 161.608C87.0802 161.087 88.7398 161.514 89.4041 163.042C89.6074 163.438 89.6847 163.886 89.6255 164.327C89.5958 164.861 89.4143 165.376 89.1024 165.812C88.8438 166.144 88.5295 166.429 88.1736 166.654L84.9615 168.9L81.7766 171.127C81.3299 171.44 80.9115 171.722 80.87 172.337C80.853 172.59 80.87 172.85 80.87 173.103V181.062L81.9794 179.953H71.0028C69.5751 179.953 69.5727 182.172 71.0028 182.172V182.172Z" fill="black"/>
<path d="M82.1247 240.049L72.5068 268.984L82.1247 240.049Z" fill="#FC7272"/>
<path d="M81.0546 239.754L77.801 249.542L72.6198 265.13L71.4366 268.689C70.9852 270.047 73.1273 270.63 73.5762 269.279L76.8297 259.491L82.011 243.903L83.1941 240.344C83.6455 238.985 81.5034 238.403 81.0546 239.754Z" fill="black"/>
<rect x="59.124" y="181.062" width="22.8547" height="5.71366" fill="white"/>
<path d="M81.979 185.667H59.1245L60.2339 186.776V181.062L59.1245 182.172H81.979L80.8697 181.062V186.776C80.8697 188.204 83.0884 188.206 83.0884 186.776V181.062C83.0798 180.453 82.5881 179.961 81.979 179.953H59.1245C58.5154 179.961 58.0237 180.453 58.0151 181.062V186.776C58.0237 187.385 58.5154 187.877 59.1245 187.885H81.979C83.4067 187.885 83.409 185.667 81.979 185.667Z" fill="black"/>
<circle cx="217.903" cy="57.2071" r="5.6354" fill="#EA2F2F"/>
<circle cx="239.762" cy="57.2071" r="5.6354" fill="#FFC41F"/>
<circle cx="261.62" cy="57.2071" r="5.6354" fill="#389B48"/>
</svg>
