<svg width="175" height="65" viewBox="0 0 175 65" fill="none" xmlns="http://www.w3.org/2000/svg">
<path d="M27.0192 15.5082L13.5077 7.75412L0 15.5082V7.75412L13.5096 0L27.0212 7.75412L27.0192 15.5082Z" fill="#A435F0"/>
<path d="M0 22.0197H7.07692V39.1128C7.07692 43.529 10.3942 45.6816 13.5096 45.6816C16.6519 45.6816 19.9442 43.4716 19.9442 39.0535V22.0197H27.0212V39.52C27.0212 43.5882 25.7346 46.7274 23.1615 48.88C20.5865 51.0307 17.3712 52.0784 13.45 52.0784C9.53269 52.0784 6.31538 51.0326 3.80192 48.88C1.28654 46.7293 0 43.7068 0 39.694V22.0197ZM88.2038 43.2632C86.0615 45.1597 83.6211 46.0888 80.8385 46.0888C75.7615 46.0888 72.3577 43.2135 71.9731 38.761H94.8385C94.8385 38.761 94.9923 37.3234 94.9923 35.9737C94.9923 31.7869 93.6461 28.2979 90.8961 25.4494C88.2077 22.6009 84.7 21.2053 80.4288 21.2053C75.9269 21.2053 72.2404 22.6009 69.3154 25.4494C66.45 28.2979 64.9885 32.0182 64.9885 36.6715V36.9009C64.9885 41.4949 66.45 45.1578 69.3154 47.8916C72.1808 50.6235 75.9827 52.0191 80.6038 52.0191C85.9769 52.0191 90.2519 49.9124 93.4596 46.28L88.2038 43.2632ZM74.7538 28.9957C76.3308 27.7741 78.2635 27.1356 80.4269 27.1356C82.4731 27.1356 84.1692 27.7741 85.6327 29.055C87.0288 30.2212 87.7827 31.6531 87.8481 33.2991H72.1538C72.3808 31.5976 73.2462 30.1638 74.7558 28.9976L74.7538 28.9957ZM159.442 55.9688C156.571 62.7078 153.567 65 148.962 65H145.769V58.7638H148.35C149.935 58.7638 151.408 58.1712 152.812 54.9518L154.215 51.7285L142.108 22.0197H149.302L157.9 43.4162L166.733 22.0197H173.925L159.442 55.9688ZM54.5712 10.7996V24.6732C52.2519 22.6085 48.6442 21.3793 45.1558 21.3793C41.0019 21.3793 37.4942 22.8322 34.6288 25.7954C31.8212 28.7032 30.4173 32.3069 30.4173 36.6676C30.4173 41.0303 31.8212 44.634 34.6288 47.5991C37.4942 50.5069 41.0038 51.9618 45.1558 51.9618C49.9442 51.9618 52.9712 50.0901 54.5712 48.6238V51.3213H61.5904V10.8015L54.5712 10.7996ZM52.4654 43.0663C50.7692 44.7525 48.6058 45.6262 46.0904 45.6262C43.575 45.6262 41.5288 44.7525 39.8327 43.0663C38.1981 41.3801 37.3769 39.2294 37.3769 36.6715C37.3769 34.1116 38.1962 31.9609 39.8327 30.2747C41.5288 28.5885 43.575 27.7168 46.0904 27.7168C48.6058 27.7168 50.7692 28.5885 52.4654 30.2747C54.2192 31.9609 55.1 34.1116 55.1 36.6715C55.1 39.2294 54.2192 41.3801 52.4654 43.0663ZM131.196 21.4385C125.865 21.4385 123.094 23.6371 121.196 25.7553C120.437 24.3157 118.298 21.4385 113.302 21.4385C109.079 21.4385 106.59 23.5606 105.348 25.0709V22.0235H98.3904V51.3251H105.348V34.4634C105.348 30.5099 107.806 27.6613 111.079 27.6613C114.415 27.6613 116.344 30.1619 116.344 34.1728V51.3232H123.304V34.4615C123.304 30.4506 125.7 27.6594 129.15 27.6594C132.485 27.6594 134.413 30.16 134.413 34.169V51.3213H141.433V33.1825C141.433 25.5431 137.302 21.4404 131.196 21.4404V21.4385Z" fill="black"/>
</svg>
