<svg width="218" height="64" viewBox="0 0 218 64" fill="none" xmlns="http://www.w3.org/2000/svg">
<path d="M8.91885 40.5911C8.52629 39.4004 8.33154 37.8974 8.33154 35.8766C8.33154 33.855 8.52629 32.3489 8.91885 31.1613C10.0156 27.7536 12.9208 25.8916 16.7249 25.8916C19.55 25.8916 21.7869 27.041 23.2793 28.864C23.3946 29.0214 23.4335 29.2589 23.2395 29.417L20.7689 31.5967C20.5718 31.7563 20.3763 31.7166 20.2182 31.5188C19.2758 30.4495 18.2952 29.8538 16.7257 29.8538C15.0394 29.8538 13.7456 30.6863 13.195 32.3505C12.8834 33.3036 12.8032 34.4118 12.8032 35.8774C12.8032 37.343 12.8826 38.4916 13.195 39.4432C13.7449 41.0661 15.0394 41.8986 16.7257 41.8986C18.2952 41.8986 19.2758 41.3037 20.2182 40.2367C20.3763 40.0359 20.5718 40.0359 20.7689 40.1947L23.2395 42.3744C23.4335 42.5325 23.3946 42.7311 23.2793 42.9296C21.7877 44.7137 19.5507 45.8616 16.7249 45.8616C12.9208 45.8601 10.0156 43.9966 8.91885 40.5911Z" fill="#204156"/>
<path d="M94.64 40.5911C94.2475 39.4004 94.0527 37.8974 94.0527 35.8766C94.0527 33.855 94.2475 32.3489 94.64 31.1613C95.739 27.7536 98.6412 25.8916 102.445 25.8916C105.271 25.8916 107.509 27.041 108.999 28.864C109.116 29.0214 109.156 29.2589 108.958 29.417L106.487 31.5967C106.291 31.7563 106.096 31.7166 105.939 31.5188C104.998 30.4495 104.016 29.8538 102.445 29.8538C100.76 29.8538 99.4645 30.6863 98.9162 32.3505C98.6015 33.3036 98.5251 34.4118 98.5251 35.8774C98.5251 37.343 98.6015 38.4916 98.9162 39.4432C99.4645 41.0661 100.76 41.8986 102.445 41.8986C104.016 41.8986 104.998 41.3037 105.939 40.2367C106.096 40.0359 106.291 40.0359 106.487 40.1947L108.958 42.3744C109.156 42.5325 109.116 42.7311 108.999 42.9296C107.509 44.7137 105.271 45.8616 102.445 45.8616C98.6412 45.8601 95.739 43.9966 94.64 40.5911Z" fill="#204156"/>
<path d="M193.715 45.4255C193.48 45.4255 193.323 45.2682 193.323 45.0284V34.0146C193.323 31.5577 192.106 29.8531 189.751 29.8531C187.476 29.8531 186.142 31.5569 186.142 34.0146V45.0284C186.142 45.2674 185.984 45.4255 185.751 45.4255H182.14C181.904 45.4255 181.746 45.2682 181.746 45.0284V34.0146C181.746 31.5577 180.53 29.8531 178.18 29.8531C175.903 29.8531 174.568 31.5569 174.568 34.0146V45.0284C174.568 45.2674 174.411 45.4255 174.175 45.4255H170.566C170.329 45.4255 170.174 45.2682 170.174 45.0284V26.7233C170.174 26.485 170.329 26.3262 170.566 26.3262H174.175C174.411 26.3262 174.568 26.485 174.568 26.7233V28.1102H174.608C175.433 26.9211 177.079 25.8916 179.59 25.8916C181.827 25.8916 183.631 26.8012 184.767 28.4264H184.807C186.258 26.8432 188.143 25.8916 190.85 25.8916C195.242 25.8916 197.716 28.9022 197.716 32.9836V45.0276C197.716 45.2674 197.558 45.4255 197.322 45.4255H193.715Z" fill="#204156"/>
<path d="M203.167 52.5565C202.932 52.5565 202.775 52.3976 202.775 52.1586V48.9899C202.775 48.7531 202.932 48.592 203.167 48.592H203.874C205.364 48.592 206.111 47.9214 206.699 46.3352L207.249 44.7107L200.343 26.7226C200.264 26.4843 200.422 26.3254 200.658 26.3254H204.541C204.776 26.3254 204.934 26.4843 205.01 26.7226L209.289 39.2034H209.366L213.447 26.7226C213.526 26.4843 213.683 26.3254 213.916 26.3254H217.642C217.88 26.3254 218.037 26.4843 217.957 26.7226L210.74 46.6124C209.093 51.1298 207.521 52.555 204.384 52.555L203.167 52.5565Z" fill="#204156"/>
<path d="M26.8885 40.5927C26.457 39.2431 26.2607 37.9761 26.2607 35.8766C26.2607 33.7802 26.457 32.5116 26.8885 31.1675C27.9478 27.8391 30.8485 25.897 34.6923 25.897C38.4957 25.897 41.3979 27.8384 42.4572 31.1675C42.8864 32.5116 43.0842 33.7802 43.0842 35.8766C43.0842 37.9761 42.8864 39.2431 42.4572 40.5927C41.3971 43.9187 38.4957 45.8593 34.6923 45.8593C30.8485 45.8601 27.9478 43.9195 26.8885 40.5927ZM38.2215 39.4043C38.5362 38.4153 38.6141 37.5026 38.6141 35.8774C38.6141 34.2568 38.5362 33.3838 38.2215 32.3551C37.6732 30.7719 36.4565 29.8584 34.6923 29.8584C32.9289 29.8584 31.6718 30.7719 31.1242 32.3551C30.8118 33.3846 30.7324 34.2568 30.7324 35.8774C30.7324 37.5026 30.8118 38.4153 31.1242 39.4043C31.6718 40.9906 32.9296 41.8986 34.6923 41.8986C36.4565 41.8979 37.6732 40.9898 38.2215 39.4043Z" fill="#204156"/>
<path d="M119.512 25.8916C116.412 25.8916 114.334 26.6439 112.802 27.7536C112.647 27.8742 112.607 28.0698 112.726 28.2676L114.174 30.8841C114.295 31.0827 114.528 31.1224 114.725 30.9635C115.628 30.2517 116.921 29.6553 119.041 29.6553C122.132 29.6553 123.181 30.5931 123.235 32.6544H123.236V32.6796C123.237 32.7277 123.237 32.7766 123.237 32.8278V39.0094C123.237 41.1883 121.747 42.256 119.041 42.256C116.921 42.256 115.785 41.4656 115.785 39.8816C115.785 38.0975 117.041 37.3032 119.865 37.3032L120.723 37.3048C120.958 37.3048 121.116 37.1459 121.116 36.9099V34.3698C121.116 34.133 120.958 33.9749 120.723 33.9749H120.534L119.159 33.9741C114.491 33.9741 111.585 35.8789 111.585 40.0366C111.585 44.0393 114.491 45.8608 117.941 45.8608C120.607 45.8608 122.373 44.9505 123.276 43.643H123.314V45.0299C123.314 45.2682 123.473 45.427 123.708 45.427H127.002C127.238 45.427 127.396 45.2689 127.396 45.0299V32.549C127.396 27.8742 125.279 25.8916 119.512 25.8916Z" fill="#204156"/>
<path d="M72.6409 33.9726C72.5386 33.9726 72.4714 34.0406 72.4714 34.1429V34.2559V34.5874V36.6861V36.9679V37.1306C72.4714 37.233 72.5386 37.3017 72.6409 37.3017H72.7387H82.3556C82.6305 37.3017 82.7878 37.1444 82.7878 36.9084C82.7878 33.8153 82.59 32.507 82.1601 31.1613C81.0992 27.9124 78.2757 25.8923 74.3914 25.8923C70.6254 25.8923 67.7233 27.833 66.6625 31.1613C66.2722 32.3894 66.0347 33.8955 66.0347 35.8766C66.0347 37.8577 66.3096 39.3225 66.7045 40.5521C67.763 43.8789 70.5865 45.86 74.5877 45.86C78.0779 45.86 80.7479 44.5128 82.3548 42.6111C82.5106 42.4141 82.5106 42.2163 82.3151 42.0559L80.0025 39.9961C79.8047 39.838 79.6092 39.8793 79.4122 40.0756C78.472 41.1066 77.0988 41.8986 74.9802 41.8986C72.8639 41.8986 71.3716 40.8691 70.7438 39.0079C70.6491 38.7474 70.5705 38.474 70.5208 38.1769H70.5201C70.3772 37.3704 70.2932 36.5853 70.2932 35.4321C70.3238 34.3453 70.3864 33.6511 70.5407 32.769C70.5422 32.7567 70.5445 32.746 70.5468 32.7346C70.5483 32.7254 70.5498 32.7185 70.5514 32.7094V32.7101C70.5888 32.5024 70.64 32.3069 70.7033 32.1121C71.2135 30.5671 72.6257 29.656 74.4319 29.656C76.1976 29.656 77.6075 30.5671 78.1176 32.1121C78.2757 32.5902 78.3529 33.063 78.3529 33.7381C78.3529 33.8962 78.275 33.9741 78.1176 33.9741H72.9632L72.964 33.9734L72.6409 33.9726Z" fill="#204156"/>
<path d="M62.3901 18.4841H58.7868C58.5493 18.4841 58.3927 18.6422 58.3927 18.8775V28.1346V35.7902V35.8513V35.9124V36.929H58.3729C58.3309 38.0211 58.2125 38.739 58.0025 39.4118C57.4931 40.9928 56.2765 41.8626 54.4763 41.8626C52.7137 41.8626 51.5001 40.9928 50.9884 39.4118C50.715 38.5404 50.5989 37.5919 50.5989 35.8513C50.5989 34.1116 50.715 33.1607 50.9884 32.2924C51.4902 30.7412 52.6648 29.8652 54.3694 29.8309H55.9076C55.9824 29.8125 56.0313 29.7537 56.0313 29.6682L56.0512 26.0512C56.0512 25.9588 55.9931 25.8969 55.9076 25.8862L54.6795 25.8816H53.236V25.8824C50.078 25.916 47.7662 27.4557 46.7978 30.4686C46.3274 31.9342 46.1318 33.2814 46.1318 35.8513C46.1318 38.4221 46.3274 39.7677 46.7978 41.2303C47.7769 44.2776 50.1277 45.8203 53.3391 45.8203C55.887 45.8203 57.4541 44.8725 58.353 43.565H58.3912V44.9894C58.3912 45.2276 58.5485 45.3857 58.7853 45.3857H62.3886C62.6238 45.3857 62.7811 45.2284 62.7811 44.9894V18.8775C62.7827 18.6415 62.6253 18.4841 62.3901 18.4841Z" fill="#204156"/>
<path d="M156.852 33.9726C156.751 33.9726 156.682 34.0406 156.682 34.1429V34.2559V34.5874V36.6861V36.9679V37.1306C156.682 37.233 156.751 37.3017 156.852 37.3017H156.951H166.569C166.843 37.3017 167 37.1444 167 36.9084C167 33.8153 166.803 32.507 166.373 31.1613C165.313 27.9124 162.488 25.8923 158.606 25.8923C154.839 25.8923 151.937 27.833 150.876 31.1613C150.485 32.3894 150.248 33.8955 150.248 35.8766C150.248 37.8577 150.523 39.3225 150.918 40.5521C151.976 43.8789 154.8 45.86 158.801 45.86C162.291 45.86 164.961 44.5128 166.569 42.6111C166.725 42.4141 166.725 42.2163 166.528 42.0559L164.216 39.9961C164.019 39.838 163.823 39.8793 163.626 40.0756C162.686 41.1066 161.314 41.8986 159.194 41.8986C157.077 41.8986 155.586 40.8691 154.957 39.0079C154.863 38.7474 154.784 38.474 154.736 38.1769H154.735C154.591 37.3704 154.507 36.5853 154.507 35.4321C154.536 34.3453 154.599 33.6511 154.754 32.769C154.757 32.7567 154.759 32.746 154.76 32.7346C154.762 32.7254 154.763 32.7185 154.765 32.7094V32.7101C154.804 32.5024 154.854 32.3069 154.917 32.1121C155.427 30.5671 156.84 29.656 158.646 29.656C160.412 29.656 161.822 30.5671 162.332 32.1121C162.489 32.5902 162.568 33.063 162.568 33.7381C162.568 33.8962 162.489 33.9741 162.332 33.9741H157.177V33.9734L156.852 33.9726Z" fill="#204156"/>
<path d="M143.178 18.4841C142.942 18.4841 142.784 18.643 142.784 18.8782V28.1484V35.8162V35.9384V36.9565C142.723 38.0501 142.603 38.7688 142.393 39.4424C141.883 41.0264 140.664 41.8985 138.863 41.8985C137.099 41.8985 135.883 41.0264 135.37 39.4424C135.098 38.5695 134.978 37.6201 134.978 35.8765C134.978 34.1345 135.096 33.1813 135.37 32.3122C135.872 30.7588 137.049 29.8897 138.757 29.8553L140.297 29.8561C140.533 29.8561 140.69 29.698 140.69 29.462V26.2872C140.69 26.0504 140.533 25.8923 140.297 25.8923H140.108L137.78 25.8915H137.726H137.675H137.622C134.46 25.9251 132.144 27.4679 131.175 30.4854C130.704 31.9533 130.508 33.3012 130.508 35.875C130.508 38.4495 130.704 39.7983 131.175 41.2631C132.155 44.3135 134.51 45.8592 137.726 45.8592C140.277 45.8592 141.847 44.9107 142.748 43.6009L142.786 45.0268C142.786 45.2666 142.943 45.4239 143.18 45.4239H146.789C147.025 45.4239 147.183 45.2674 147.183 45.0268V18.8782C147.18 18.6422 147.022 18.4841 146.788 18.4841H143.178Z" fill="#204156"/>
<path d="M94.3452 50.8274V54.4375C94.3452 54.675 94.5025 54.8324 94.7385 54.8324H108.116C108.355 54.8324 108.513 54.6743 108.513 54.4375V50.8274C108.513 50.5929 108.355 50.4348 108.116 50.4348H94.7385C94.5025 50.4348 94.3452 50.5929 94.3452 50.8274Z" fill="#204156"/>
<path d="M90.9488 9.13536C90.9427 9.12925 90.9389 9.12161 90.9335 9.11626C90.9328 9.1155 90.932 9.1155 90.932 9.1155C90.8633 9.04753 90.7655 9.00781 90.6494 9.00781H90.6449H0.475139C0.445354 9.00781 0.417096 9.01087 0.389601 9.01545C0.381964 9.01698 0.375091 9.02003 0.36669 9.02156C0.349124 9.02614 0.33003 9.02996 0.313992 9.03683C0.310937 9.0376 0.308646 9.03913 0.306355 9.04065C0.166592 9.09793 0.0810547 9.22853 0.0810547 9.40113V9.40266V54.4322V54.4352C0.0810547 54.5727 0.134516 54.6804 0.224636 54.7491C0.231509 54.756 0.237619 54.7621 0.246784 54.7667V54.7674C0.30941 54.8071 0.385783 54.8285 0.475139 54.8285H90.6441H90.6487C90.7816 54.8285 90.8893 54.7774 90.9572 54.6895C91.0107 54.6238 91.042 54.5375 91.042 54.4344V54.4314V9.40266V9.40113C91.042 9.29345 91.0076 9.20256 90.9488 9.13536ZM4.86658 50.4333C4.83833 50.4333 4.81083 50.431 4.78639 50.4272C4.77875 50.4256 4.77035 50.4218 4.76272 50.4195C4.74439 50.4157 4.72606 50.4119 4.70926 50.405C4.7062 50.4042 4.70467 50.402 4.70162 50.4012C4.56262 50.3447 4.47784 50.2148 4.47708 50.0438V17.405V13.7964C4.47708 13.623 4.56262 13.494 4.70162 13.4359C4.70544 13.4352 4.70773 13.4329 4.71002 13.4321C4.72606 13.426 4.77799 13.413 4.78639 13.4107C4.81236 13.4069 4.83985 13.4046 4.86811 13.4046H86.2542C86.2832 13.4046 86.3099 13.4069 86.3359 13.4107C86.3443 13.413 86.3519 13.4161 86.3588 13.4184C86.3771 13.4222 86.3955 13.426 86.4123 13.4329C86.4161 13.4336 86.4176 13.4359 86.4207 13.4367C86.5604 13.494 86.6452 13.6238 86.6452 13.7972V50.0445C86.6444 50.2164 86.5589 50.3462 86.4214 50.4027C86.4184 50.4035 86.4168 50.4058 86.413 50.4065C86.397 50.4126 86.3779 50.4172 86.3603 50.421C86.3519 50.4233 86.3451 50.4272 86.3367 50.4287C86.3107 50.4333 86.2855 50.4348 86.2572 50.4348H4.86658V50.4333Z" fill="#204156"/>
</svg>
