<svg width="735" height="735" viewBox="0 0 735 735" fill="none" xmlns="http://www.w3.org/2000/svg">
<path d="M328.044 482.148C328.044 495.298 317.384 505.958 304.234 505.958H56.1503C43.0004 505.958 32.3403 495.298 32.3403 482.148V143.205H328.044V482.148Z" fill="white"/>
<path d="M326.782 482.148C326.683 492.963 319.004 502.221 308.394 504.317C306.349 504.641 304.277 504.767 302.208 504.696H61.8958C60.1957 504.696 58.4955 504.696 56.7953 504.696C50.6536 504.869 44.707 502.53 40.3295 498.219C35.952 493.908 33.5225 487.997 33.6022 481.854C33.5986 480.701 33.6022 479.548 33.6022 478.395V143.205L32.3404 144.467H323.574C324.899 144.545 326.228 144.545 327.553 144.467C327.716 144.458 327.88 144.458 328.044 144.467L326.782 143.205V468.407C326.782 472.793 326.694 477.191 326.782 481.577C326.785 481.767 326.782 481.958 326.782 482.148C326.808 482.826 327.365 483.362 328.044 483.362C328.722 483.362 329.279 482.826 329.306 482.148V156.947C329.306 152.56 329.393 148.163 329.306 143.777C329.302 143.586 329.306 143.396 329.306 143.205C329.296 142.512 328.737 141.953 328.044 141.943H44.3609C40.5219 141.943 36.6699 141.85 32.8314 141.943C32.668 141.947 32.504 141.943 32.3405 141.943C31.6476 141.953 31.0883 142.512 31.0785 143.205V473.262C31.0785 476.21 31.0535 479.159 31.0785 482.107C31.1246 490.873 35.6901 498.996 43.1551 503.592C47.3439 506.06 52.136 507.316 56.9969 507.22H296.971C302.961 507.22 308.81 507.548 314.47 505.034C323.449 500.944 329.237 492.014 329.306 482.148C329.323 480.524 326.799 480.522 326.782 482.148Z" fill="black"/>
<path d="M56.1503 99.0503H304.234C317.384 99.0503 328.044 109.71 328.044 122.86V143.279H32.3403V122.86C32.3403 109.71 43.0004 99.0503 56.1503 99.0503V99.0503Z" fill="black"/>
<path d="M56.1503 100.312H297.383C301.931 100.312 306.66 99.9796 311.049 101.36C320.168 104.309 326.457 112.661 326.773 122.24C326.907 127.496 326.782 132.771 326.782 138.029V143.279L328.044 142.017H44.3438C40.5523 142.017 36.6265 141.723 32.8432 142.017C32.6777 142.03 32.5066 142.017 32.3403 142.017L33.6024 143.279V126.738C33.4888 124.2 33.589 121.657 33.9021 119.136C35.7309 108.273 45.1345 100.317 56.1503 100.312C57.7738 100.298 57.7777 97.7745 56.1503 97.7883C45.5041 97.8756 36.0447 104.6 32.4645 114.627C31.433 117.866 30.9641 121.258 31.0783 124.656V143.28C31.0882 143.972 31.6475 144.532 32.3403 144.542H316.04C319.872 144.542 323.71 144.614 327.541 144.542C327.708 144.538 327.876 144.542 328.044 144.542C328.737 144.532 329.296 143.972 329.306 143.279V127.47C329.306 125.459 329.382 123.427 329.262 121.418C328.995 116.769 327.438 112.287 324.765 108.474C320.028 101.807 312.37 97.8287 304.191 97.788C303.223 97.7815 302.254 97.788 301.285 97.788H69.6248C65.3231 97.788 61.0165 97.7261 56.7148 97.788C56.5268 97.7908 56.3384 97.788 56.1503 97.788C55.4708 97.8124 54.9326 98.3703 54.9326 99.0502C54.9326 99.7302 55.4708 100.288 56.1503 100.312Z" fill="black"/>
<path d="M100.79 347.153H244.701C247.28 347.192 249.849 346.798 252.298 345.987C260.801 343.077 266.628 335.224 266.95 326.242C267.271 317.261 262.021 309.011 253.748 305.5C250.932 304.329 247.908 303.741 244.859 303.769H102.585C101.991 303.769 101.397 303.766 100.803 303.769C93.0445 303.753 85.8678 307.882 81.9823 314.598C78.0968 321.314 78.0943 329.594 81.9756 336.312C85.857 343.031 93.0311 347.164 100.79 347.153C102.414 347.163 102.416 344.639 100.79 344.629C93.9127 344.629 87.5626 340.944 84.1493 334.974C80.7361 329.003 80.7829 321.662 84.2719 315.736C87.761 309.809 94.1575 306.206 101.034 306.293C103.616 306.29 106.198 306.29 108.78 306.293H236.822C239.522 306.293 242.223 306.293 244.923 306.293C248 306.254 251.043 306.938 253.807 308.29C261.563 312.144 265.772 320.718 264.078 329.211C262.383 337.704 255.205 344.007 246.564 344.588C244.419 344.722 242.243 344.628 240.095 344.628H100.79C100.109 344.651 99.5681 345.209 99.5681 345.891C99.5681 346.572 100.109 347.131 100.79 347.153Z" fill="black"/>
<path d="M100.79 409.495H244.701C247.281 409.534 249.849 409.14 252.299 408.329C260.802 405.418 266.629 397.566 266.95 388.584C267.272 379.603 262.021 371.353 253.748 367.842C250.932 366.671 247.909 366.083 244.859 366.111H102.585C101.992 366.111 101.398 366.108 100.804 366.111C88.8239 366.108 79.1092 375.816 79.1055 387.796C79.1018 399.776 88.8105 409.491 100.79 409.495C102.415 409.505 102.417 406.981 100.79 406.971C93.9132 406.971 87.5631 403.286 84.1499 397.316C80.7366 391.345 80.7834 384.004 84.2724 378.077C87.7615 372.151 94.1581 368.548 101.035 368.635C103.617 368.632 106.199 368.632 108.781 368.635H236.823C239.523 368.635 242.223 368.635 244.924 368.635C248 368.596 251.043 369.28 253.807 370.632C261.563 374.486 265.773 383.06 264.078 391.553C262.383 400.046 255.205 406.349 246.565 406.93C244.419 407.064 242.243 406.97 240.096 406.97H100.79C100.109 406.993 99.5686 407.551 99.5686 408.233C99.5686 408.914 100.109 409.473 100.79 409.495Z" fill="black"/>
<path d="M253.907 450.779H97.5245C95.4059 450.779 93.282 450.735 91.1638 450.779C91.0731 450.781 90.9821 450.779 90.8913 450.779C90.2137 450.806 89.6782 451.363 89.6782 452.041C89.6782 452.719 90.2137 453.276 90.8913 453.303H247.274C249.393 453.303 251.517 453.347 253.635 453.303C253.726 453.301 253.816 453.303 253.907 453.303C254.585 453.276 255.12 452.719 255.12 452.041C255.12 451.363 254.585 450.806 253.907 450.779Z" fill="black"/>
<path d="M221.473 470.155H148.379C144.999 470.155 141.588 470.022 138.21 470.155C138.163 470.157 138.116 470.155 138.069 470.155C137.391 470.182 136.856 470.739 136.856 471.417C136.856 472.096 137.391 472.653 138.069 472.679H211.163C214.542 472.679 217.953 472.813 221.331 472.679C221.378 472.678 221.426 472.679 221.473 472.679C222.15 472.653 222.686 472.096 222.686 471.417C222.686 470.739 222.15 470.182 221.473 470.155Z" fill="black"/>
<circle cx="60.0713" cy="124.339" r="6.25147" fill="#EA2F2F"/>
<circle cx="84.3193" cy="124.339" r="6.25147" fill="#FFC41F"/>
<circle cx="108.567" cy="124.339" r="6.25147" fill="#389B48"/>
<path d="M514.484 331.795L515.959 339.732C517.956 350.481 515.31 361.574 508.674 370.263L501.427 379.753L474.924 328.85" fill="black"/>
<path d="M513.267 332.13L514.563 339.105C515.376 343.222 515.539 347.441 515.047 351.608C514.365 356.824 512.593 361.838 509.845 366.323C508.351 368.629 506.738 370.855 505.013 372.994L500.338 379.116H502.517L493.546 361.885L479.265 334.459L476.014 328.214C475.264 326.772 473.085 328.047 473.834 329.488L482.806 346.718L497.086 374.145L500.338 380.39C500.57 380.769 500.983 380.999 501.427 380.999C501.872 380.999 502.284 380.769 502.517 380.39L506.619 375.019C508.203 372.944 509.873 370.902 511.312 368.721C516.987 359.999 519.074 349.422 517.139 339.198C516.662 336.618 516.183 334.038 515.701 331.46C515.404 329.865 512.971 330.54 513.266 332.13H513.267Z" fill="black"/>
<path d="M564.18 525.262L613.908 552.528L575.535 623.144C575.535 623.144 556.699 611.524 568.461 584.946C570.691 579.948 568.678 574.077 563.85 571.5C557.762 568.265 551.857 565.163 551.857 565.163" fill="#389B48"/>
<path d="M563.543 526.352L580.427 535.609L607.137 550.255L613.271 553.618L612.818 551.891L609.004 558.911L599.842 575.771L588.757 596.169L579.173 613.808L576.004 619.639C575.453 620.524 574.954 621.441 574.512 622.385C574.492 622.427 574.47 622.467 574.446 622.506L576.172 622.054C576.078 621.998 575.986 621.937 575.898 621.872C575.807 621.801 575.707 621.738 575.614 621.67C575.469 621.566 575.076 621.26 575.381 621.501C574.515 620.817 573.695 620.077 572.926 619.285C570.518 616.812 568.655 613.862 567.459 610.624C565.743 605.719 565.393 600.439 566.444 595.35C567.236 591.778 568.368 588.289 569.824 584.933C571.009 581.858 570.854 578.429 569.396 575.474C567.49 571.562 563.618 569.945 559.973 568.017C557.482 566.699 554.989 565.385 552.494 564.073C551.057 563.318 549.78 565.496 551.22 566.252C553.296 567.343 555.37 568.436 557.443 569.533C559.367 570.549 561.304 571.545 563.213 572.589C567.444 574.812 569.254 579.915 567.371 584.308C565.905 587.644 564.779 591.118 564.01 594.679C562.894 599.986 563.167 605.491 564.802 610.662C566.038 614.316 568.02 617.673 570.624 620.52C571.874 621.945 573.312 623.195 574.898 624.233C575.501 624.577 576.269 624.376 576.625 623.78L580.44 616.761L589.601 599.901L600.686 579.502L610.271 561.864C611.822 559.009 613.467 556.186 614.932 553.287C614.953 553.245 614.976 553.206 614.998 553.165C615.339 552.562 615.138 551.797 614.545 551.438L597.661 542.181L570.951 527.536L564.817 524.172C563.392 523.391 562.117 525.57 563.543 526.352Z" fill="black"/>
<path d="M587.484 600.174L566.729 589.385C559.601 610.479 572.437 620.948 575.074 622.829L575.051 622.871L584.016 628.705C585.806 627.659 590.161 626.081 591.509 623.621C593.288 620.377 589.921 618.531 591.7 615.288C593.478 612.045 596.845 613.891 598.624 610.648C600.402 607.405 597.035 605.558 598.814 602.315C600.593 599.071 603.96 600.918 605.738 597.674C607.517 594.43 604.151 592.584 605.929 589.34C607.708 586.096 611.074 587.943 612.853 584.7C614.632 581.456 611.265 579.61 613.044 576.366C614.823 573.122 618.19 574.968 619.969 571.723C621.748 568.479 618.381 566.632 620.161 563.388C621.247 561.407 622.925 561.323 624.472 560.821C625.151 560.603 625.629 559.994 625.679 559.282C625.729 558.571 625.342 557.901 624.7 557.59L620.626 555.618L613.569 552.555L587.484 600.174Z" fill="white"/>
<path d="M588.121 599.084L569.961 589.645L567.366 588.296C567.026 588.106 566.618 588.081 566.258 588.228C565.897 588.375 565.623 588.677 565.512 589.05C563.298 595.675 562.499 602.909 564.498 609.692C565.785 614.036 568.12 617.998 571.298 621.228C572.265 622.213 573.315 623.113 574.437 623.919L573.984 622.193L573.961 622.234C573.626 622.838 573.825 623.599 574.414 623.961L583.379 629.795C583.772 630.025 584.26 630.025 584.653 629.795C587.952 627.907 593.083 626.382 593.304 621.82C593.389 620.052 592.039 618.287 592.528 616.557C593.133 614.414 595.257 614.415 596.982 613.7C599.109 612.828 600.476 610.732 600.416 608.434C600.324 606.716 599.031 604.883 599.78 603.192C600.642 601.248 602.847 601.357 604.523 600.54C606.55 599.502 607.73 597.322 607.49 595.056C607.267 593.198 605.999 591.399 607.226 589.635C608.284 588.115 610.507 588.265 611.996 587.374C613.968 586.146 614.975 583.828 614.527 581.549C614.194 579.71 613.085 577.996 614.593 576.344C615.224 575.775 616.004 575.399 616.842 575.261C617.807 575.048 618.723 574.655 619.543 574.103C621.35 572.717 622.145 570.38 621.56 568.18C621.126 566.382 620.205 564.434 622.064 563.039C623.674 561.83 626.173 562.368 626.835 559.971C627.312 558.242 626.248 556.94 624.787 556.233C623.629 555.673 622.48 555.091 621.313 554.552C619.223 553.586 617.084 552.714 614.972 551.797L614.206 551.465C613.602 551.13 612.841 551.33 612.479 551.918L603.646 568.044L589.589 593.705L586.394 599.537C585.613 600.963 587.792 602.238 588.574 600.811L597.408 584.685L611.464 559.024L614.659 553.192L612.932 553.645L619.276 556.398C619.922 556.678 620.553 556.98 621.187 557.287L623.144 558.234C623.548 558.365 623.929 558.558 624.274 558.806C624.675 559.245 624.243 559.568 623.832 559.697C622.861 559.922 621.92 560.26 621.028 560.705C619.078 561.911 618.064 564.185 618.47 566.44C618.774 568.221 619.864 569.857 618.601 571.536C617.532 572.958 615.346 572.826 613.902 573.691C611.959 574.897 610.949 577.167 611.354 579.418C611.658 581.2 612.749 582.832 611.485 584.512C610.417 585.933 608.229 585.802 606.786 586.665C604.873 587.851 603.861 590.071 604.223 592.293C604.502 594.062 605.615 595.688 604.442 597.378C603.406 598.871 601.237 598.753 599.76 599.587C597.791 600.754 596.739 603.009 597.109 605.267C597.389 607.033 598.501 608.665 597.327 610.352C596.289 611.844 594.124 611.726 592.646 612.561C590.726 613.693 589.673 615.865 589.972 618.073C590.211 619.797 591.362 621.483 590.321 623.155C589.31 624.778 587.199 625.696 585.552 626.511C584.824 626.871 584.084 627.212 583.379 627.615H584.653L575.688 621.781L576.14 623.508L576.163 623.467C576.495 622.862 576.296 622.104 575.71 621.74C575.561 621.633 575.414 621.523 575.268 621.412C575.208 621.368 575.469 621.578 575.199 621.357C575.099 621.275 574.998 621.195 574.899 621.113C574.409 620.708 573.936 620.283 573.48 619.838C572.254 618.657 571.157 617.35 570.205 615.939C567.397 611.734 565.887 606.796 565.864 601.739C565.884 597.645 566.588 593.583 567.946 589.721L566.092 590.475L584.252 599.915L586.847 601.264C588.287 602.012 589.564 599.835 588.121 599.084Z" fill="black"/>
<path d="M575.005 593.627L579.407 584.953C579.973 583.839 580.549 582.73 581.104 581.611C582.423 579.01 582.773 576.025 582.092 573.189C581.329 570.156 579.422 567.534 576.77 565.875C576.022 565.407 575.218 565.018 574.441 564.603L564.133 559.104L556.01 554.77C554.577 554.006 553.3 556.184 554.736 556.95L571.764 566.034C574.474 567.48 577.219 568.71 578.774 571.558C580.134 574.076 580.295 577.071 579.212 579.721C578.786 580.751 578.214 581.736 577.71 582.729L572.826 592.353C572.092 593.798 574.269 595.077 575.005 593.627L575.005 593.627Z" fill="black"/>
<path d="M605.352 567.247C603.966 566.531 602.688 565.622 601.555 564.549C598.726 561.617 597.661 557.405 598.759 553.481C599.148 552.252 599.692 551.078 600.378 549.988L602.314 546.639C602.637 546.04 602.427 545.293 601.839 544.949C601.252 544.606 600.498 544.79 600.134 545.365C598.795 547.682 597.172 549.995 596.392 552.578C595.069 557.113 596.098 562.008 599.134 565.627C600.541 567.179 602.216 568.466 604.078 569.426C605.488 570.238 606.761 568.058 605.352 567.247Z" fill="black"/>
<path d="M569.947 578.603C572.135 578.067 574.439 578.281 576.491 579.21L569.947 578.603Z" fill="#A8542A"/>
<path d="M570.282 579.82C570.445 579.771 570.61 579.731 570.777 579.701C570.856 579.685 570.936 579.671 571.016 579.658C571.071 579.652 571.126 579.644 571.18 579.633C571.124 579.648 570.836 579.674 571.054 579.65C571.312 579.622 571.571 579.599 571.831 579.589C572.129 579.577 572.427 579.578 572.725 579.593C572.898 579.601 573.072 579.614 573.245 579.631C573.328 579.634 573.41 579.643 573.492 579.657C573.183 579.58 573.508 579.661 573.564 579.67C573.966 579.735 574.365 579.822 574.757 579.932C574.95 579.986 575.14 580.045 575.329 580.109C575.447 580.149 575.564 580.191 575.68 580.235C575.717 580.249 576.042 580.38 575.854 580.3C576.152 580.459 576.498 580.504 576.827 580.427C577.316 580.292 577.677 579.877 577.743 579.374C577.808 578.87 577.566 578.377 577.128 578.12C575.487 577.392 573.706 577.031 571.91 577.062C571.133 577.066 570.36 577.175 569.611 577.386C568.939 577.571 568.545 578.266 568.73 578.938C568.915 579.61 569.61 580.005 570.282 579.82L570.282 579.82Z" fill="black"/>
<path d="M567.944 574.208C569.359 572.456 571.322 571.229 573.517 570.724L567.944 574.208Z" fill="#A8542A"/>
<path d="M569.034 574.845C569.177 574.641 568.854 575.067 568.927 574.98C569.011 574.881 569.092 574.78 569.179 574.683C569.487 574.341 569.82 574.023 570.176 573.731C570.237 573.681 570.3 573.634 570.359 573.583C570.057 573.838 570.223 573.688 570.3 573.63C570.44 573.526 570.583 573.425 570.728 573.327C571.03 573.124 571.342 572.937 571.663 572.766C571.826 572.679 571.992 572.597 572.159 572.519C572.252 572.458 572.354 572.413 572.46 572.384C572.288 572.456 572.265 572.466 572.393 572.414C572.446 572.392 572.499 572.371 572.552 572.351C572.977 572.188 573.412 572.052 573.853 571.941C574.523 571.754 574.916 571.06 574.731 570.389C574.546 569.718 573.853 569.323 573.182 569.507C571.443 569.951 569.823 570.771 568.436 571.91C567.835 572.389 567.303 572.947 566.854 573.571C566.506 574.173 566.708 574.943 567.307 575.297C567.911 575.63 568.671 575.431 569.034 574.844L569.034 574.845Z" fill="black"/>
<path d="M562.879 570.764C563.405 568.573 564.65 566.623 566.415 565.224L562.879 570.764Z" fill="#A8542A"/>
<path d="M564.096 571.099C564.128 570.928 564.17 570.758 564.221 570.592C564.275 570.406 564.336 570.223 564.403 570.042C564.444 569.93 564.489 569.82 564.533 569.709C564.608 569.516 564.387 570.042 564.516 569.753C564.544 569.689 564.573 569.626 564.603 569.563C564.892 568.951 565.239 568.369 565.641 567.824C565.673 567.781 565.705 567.737 565.738 567.694C565.633 567.829 565.609 567.859 565.667 567.785C565.73 567.709 565.791 567.631 565.855 567.555C565.987 567.397 566.123 567.243 566.264 567.093C566.591 566.746 566.94 566.42 567.308 566.116C567.798 565.622 567.798 564.825 567.308 564.331C566.807 563.856 566.023 563.856 565.523 564.331C564.214 565.41 563.157 566.76 562.423 568.289C562.075 568.965 561.819 569.684 561.662 570.428C561.494 571.098 561.882 571.781 562.543 571.98C563.214 572.157 563.903 571.766 564.095 571.099L564.096 571.099Z" fill="black"/>
<path d="M556.894 567.527C557.42 565.337 558.665 563.386 560.431 561.987L556.894 567.527Z" fill="#A8542A"/>
<path d="M558.111 567.862C558.143 567.691 558.185 567.522 558.236 567.355C558.29 567.17 558.351 566.986 558.418 566.805C558.459 566.693 558.504 566.583 558.548 566.472C558.623 566.28 558.402 566.805 558.531 566.516C558.559 566.452 558.588 566.389 558.618 566.326C558.907 565.715 559.254 565.132 559.656 564.588C559.688 564.544 559.72 564.5 559.753 564.457C559.648 564.592 559.624 564.623 559.683 564.549C559.745 564.472 559.806 564.394 559.87 564.318C560.002 564.161 560.138 564.007 560.279 563.856C560.606 563.509 560.955 563.183 561.323 562.88C561.813 562.386 561.813 561.589 561.323 561.095C560.822 560.62 560.038 560.62 559.538 561.095C558.23 562.173 557.172 563.524 556.438 565.053C556.09 565.729 555.834 566.448 555.677 567.192C555.509 567.861 555.897 568.545 556.558 568.744C557.229 568.921 557.918 568.529 558.111 567.862H558.111Z" fill="black"/>
<path d="M403.278 568.699L386.96 623.014L309.904 600.18C309.904 600.18 317.349 579.338 345.793 585.31C351.145 586.451 356.469 583.26 357.985 578.001C359.881 571.373 361.686 564.952 361.686 564.952" fill="#389B48"/>
<path d="M402.061 568.364L396.521 586.805L387.756 615.978L385.743 622.678L387.295 621.797L379.635 619.527L361.238 614.075L338.978 607.479L319.731 601.776L313.368 599.89C312.387 599.538 311.386 599.241 310.372 599.002C310.327 598.992 310.283 598.979 310.239 598.963L311.121 600.516C311.14 600.461 311.192 600.242 311.235 600.225C311.348 600.182 311.113 600.498 311.184 600.345C311.212 600.285 311.236 600.224 311.264 600.164C311.335 600.008 311.406 599.852 311.48 599.698C311.939 598.752 312.46 597.837 313.042 596.961C314.866 594.227 317.204 591.874 319.925 590.031C324.107 587.319 328.938 585.775 333.918 585.556C337.311 585.384 340.713 585.617 344.052 586.251C345.811 586.683 347.627 586.833 349.433 586.694C353.066 586.247 356.277 584.117 358.102 580.944C359.25 578.938 359.706 576.572 360.332 574.37C361.193 571.344 362.049 568.316 362.902 565.287C363.342 563.721 360.908 563.052 360.468 564.616C359.777 567.073 359.083 569.53 358.385 571.985C357.35 575.633 356.799 579.864 353.618 582.34C352.388 583.288 350.943 583.915 349.41 584.166C347.614 584.463 345.929 584.022 344.171 583.718C340.79 583.101 337.35 582.871 333.917 583.032C324.916 583.543 316.541 587.595 311.305 595.037C310.223 596.516 309.342 598.133 308.686 599.845C308.51 600.515 308.901 601.204 309.568 601.397L317.228 603.667L335.625 609.118L357.885 615.714L377.132 621.418C380.239 622.339 383.343 623.416 386.491 624.191C386.536 624.202 386.58 624.217 386.624 624.23C387.294 624.404 387.982 624.014 388.176 623.349L393.717 604.908L402.481 575.734L404.494 569.035C404.963 567.475 402.527 566.809 402.06 568.364L402.061 568.364Z" fill="black"/>
<path d="M415.918 334.813L355.313 562.378L415.503 577.518C415.503 577.518 457.457 411.098 461.982 385.67C466.507 360.242 469.555 325.604 469.555 325.604" fill="#458DC9"/>
<path d="M414.701 334.478L413.08 340.564L408.67 357.126L402.145 381.622L394.186 411.51L385.468 444.247L376.668 477.289L368.463 508.096L361.532 534.123L356.55 552.829C355.767 555.77 354.924 558.703 354.198 561.66C354.167 561.788 354.13 561.915 354.096 562.043C353.921 562.713 354.312 563.402 354.978 563.595L375.349 568.719L407.777 576.876L415.168 578.735C415.839 578.909 416.527 578.518 416.721 577.853C417.262 575.708 417.802 573.562 418.34 571.416C419.782 565.682 421.22 559.947 422.656 554.212C424.751 545.845 426.841 537.478 428.926 529.109C431.4 519.178 433.866 509.246 436.324 499.312C438.94 488.739 441.543 478.164 444.135 467.585C446.614 457.457 449.075 447.325 451.518 437.189C453.627 428.427 455.707 419.658 457.759 410.882C459.23 404.559 460.69 398.232 462.032 391.879C464.066 382.247 465.434 372.481 466.714 362.725C468.248 351.028 469.557 339.303 470.64 327.551C470.7 326.902 470.76 326.252 470.818 325.603C470.96 323.986 468.435 323.995 468.294 325.603C467.53 334.269 466.594 342.922 465.576 351.56C464.138 363.776 462.646 376.059 460.233 388.128C459.102 393.782 457.814 399.405 456.524 405.024C454.617 413.333 452.665 421.63 450.668 429.918C448.299 439.819 445.905 449.715 443.487 459.605C440.917 470.136 438.332 480.664 435.731 491.188C433.222 501.355 430.702 511.52 428.173 521.683C425.982 530.491 423.785 539.297 421.583 548.102C419.969 554.556 418.351 561.009 416.731 567.461C415.958 570.541 414.96 573.648 414.389 576.774C414.364 576.911 414.321 577.047 414.286 577.182L415.839 576.301L395.468 571.177L363.039 563.02L355.648 561.161L356.53 562.714L358.151 556.628L362.561 540.065L369.085 515.569L377.045 485.681L385.763 452.945L394.563 419.902L402.768 389.096L409.699 363.068L414.681 344.362C415.464 341.421 416.307 338.488 417.032 335.532C417.064 335.404 417.1 335.276 417.134 335.149C417.553 333.578 415.119 332.907 414.7 334.478L414.701 334.478Z" fill="black"/>
<path d="M450.524 337.685L437.974 446.368C434.37 478.906 448.021 511.148 474.315 530.65C477.437 532.974 480.718 535.077 484.133 536.943L547.127 571.176L577.482 517.04C577.482 517.04 525.449 484.183 502.089 473.165L510.969 386.179C511.928 376.787 511.038 367.299 508.35 358.249L495.537 322.96H455.993" fill="#458DC9"/>
<path d="M449.262 337.685L447.909 349.401L444.73 376.937L440.945 409.712L437.868 436.357C437.321 441.096 436.65 445.847 436.339 450.61C435.257 467.569 438.759 484.508 446.478 499.648C454.578 515.566 467.17 528.759 482.693 537.591C487.574 540.321 492.521 542.938 497.434 545.608L525.687 560.961L545.454 571.703L546.491 572.267C547.094 572.607 547.859 572.406 548.218 571.814L558.509 553.46L574.829 524.353L578.572 517.678C578.909 517.074 578.709 516.312 578.119 515.952C571.84 511.987 565.528 508.074 559.182 504.214C546.735 496.603 534.216 489.096 521.489 481.96C515.326 478.504 509.117 475.096 502.726 472.076L503.351 473.166L505.297 454.107L509.144 416.421L512.004 388.407C512.614 383.145 512.724 377.837 512.332 372.555C511.748 366.16 510.322 359.87 508.091 353.848L497.036 323.399L496.755 322.626C496.592 322.087 496.101 321.713 495.538 321.699H455.993C455.316 321.726 454.78 322.283 454.78 322.961C454.78 323.639 455.316 324.197 455.993 324.223H495.537L494.32 323.297L504.373 350.982C505.95 355.327 507.562 359.526 508.53 364.063C510.092 371.637 510.458 379.409 509.613 387.096L507.07 412.01L503.189 450.027L501.644 465.166C501.384 467.708 501.01 470.268 500.863 472.819C500.856 472.935 500.839 473.05 500.827 473.165C500.818 473.616 501.059 474.035 501.452 474.255C513.69 480.038 525.41 486.982 537.058 493.854C548.164 500.405 559.186 507.096 570.125 513.927C572.369 515.322 574.609 516.723 576.845 518.13L576.392 516.404L566.102 534.757L549.781 563.864L546.038 570.539L547.765 570.087L533.457 562.312L505.471 547.103L485.778 536.401C473.428 529.73 462.824 520.242 454.826 508.707C445.201 494.709 439.647 478.315 438.783 461.349C438.428 454.282 439.123 447.348 439.93 440.356L442.677 416.573L446.39 384.415L449.815 354.759L451.699 338.445L451.787 337.684C451.973 336.074 449.447 336.087 449.263 337.684L449.262 337.685Z" fill="black"/>
<path d="M419.666 560.992L413.709 559.477L399.311 555.815L381.964 551.403L366.888 547.569C364.459 546.951 362.033 546.236 359.582 545.71C359.546 545.703 359.51 545.692 359.474 545.683C357.899 545.282 357.228 547.716 358.803 548.117L364.761 549.632L379.159 553.294L396.506 557.706L411.582 561.54C414.011 562.158 416.437 562.873 418.888 563.399C418.924 563.406 418.959 563.417 418.995 563.426C420.57 563.826 421.242 561.393 419.666 560.992V560.992Z" fill="black"/>
<path d="M563.999 509.163L560.986 514.539L553.751 527.452L544.995 543.081L537.418 556.602C536.19 558.795 534.871 560.959 533.724 563.195C533.707 563.228 533.688 563.26 533.67 563.292C532.875 564.711 535.054 565.985 535.849 564.566L538.861 559.19L546.097 546.277L554.853 530.649L562.429 517.127C563.658 514.935 564.977 512.771 566.124 510.534C566.141 510.501 566.16 510.47 566.178 510.437C566.973 509.019 564.793 507.745 563.998 509.163L563.999 509.163Z" fill="black"/>
<path d="M334.857 607.086L341.089 584.54C318.974 581.959 311.406 596.692 310.115 599.663L310.069 599.649L306.229 609.632C307.625 611.166 310.075 615.096 312.762 615.904C316.304 616.968 317.409 613.291 320.952 614.356C324.495 615.42 323.389 619.097 326.932 620.162C330.474 621.226 331.579 617.549 335.122 618.614C338.665 619.678 337.56 623.355 341.102 624.42C344.645 625.485 345.75 621.807 349.294 622.872C352.837 623.937 351.731 627.614 355.273 628.678C358.816 629.743 359.921 626.065 363.465 627.13C367.008 628.195 365.903 631.872 369.447 632.937C372.99 634.002 374.096 630.325 377.64 631.39C379.803 632.04 380.234 633.664 381.048 635.072C381.403 635.691 382.098 636.032 382.804 635.933C383.51 635.834 384.085 635.315 384.256 634.623L385.336 630.227L386.863 622.687L334.857 607.086Z" fill="white"/>
<path d="M336.074 607.421L341.527 587.695L342.306 584.875C342.402 584.496 342.32 584.094 342.083 583.783C341.846 583.472 341.48 583.286 341.089 583.278C334.155 582.49 326.96 583.243 320.747 586.594C316.803 588.74 313.442 591.815 310.954 595.552C310.209 596.651 309.564 597.813 309.025 599.026L310.451 598.446L310.405 598.432C309.735 598.265 309.052 598.653 308.853 599.314L305.013 609.297C304.892 609.735 305.016 610.204 305.338 610.525C307.948 613.447 310.973 618.764 315.725 617.067C317.405 616.467 318.84 614.958 320.734 615.611C322.498 616.219 322.861 618.311 323.934 619.634C325.364 621.341 327.682 622.02 329.808 621.354C331.427 620.814 332.853 619.301 334.668 619.798C336.554 620.314 336.895 622.3 337.949 623.692C339.317 625.48 341.632 626.262 343.804 625.668C345.448 625.189 346.905 623.591 348.721 624.024C350.66 624.486 350.983 626.403 352.021 627.822C353.357 629.664 355.679 630.508 357.885 629.953C359.481 629.523 360.923 627.945 362.661 628.231C364.711 628.567 365.066 630.459 366.087 631.933C367.367 633.81 369.655 634.729 371.878 634.257C373.53 633.89 374.97 632.252 376.731 632.472C379.229 632.784 379.101 635.375 380.796 636.628C381.619 637.208 382.675 637.343 383.617 636.988C384.558 636.633 385.263 635.835 385.498 634.856C385.868 633.549 386.151 632.21 386.474 630.89C387.033 628.602 387.424 626.263 387.892 623.955L388.081 623.023C388.249 622.353 387.861 621.669 387.199 621.47L369.587 616.187L341.562 607.78L335.193 605.869C333.633 605.401 332.967 607.836 334.522 608.303L352.133 613.587L380.158 621.994L386.527 623.905L385.646 622.353L384.205 629.468C384.033 630.32 383.807 631.161 383.6 632.006C383.49 632.453 383.269 634.895 382.445 634.685C381.876 634.539 381.507 633.206 381.219 632.736C380.677 631.791 379.87 631.026 378.897 630.535C376.788 629.537 374.851 629.989 372.906 631.074C371.433 631.897 369.676 632.332 368.408 630.839C367.941 630.184 367.539 629.486 367.206 628.755C366.739 627.869 366.06 627.113 365.229 626.553C363.41 625.441 361.125 625.424 359.289 626.508C357.786 627.297 356.235 628.239 354.638 626.978C354.053 626.413 353.594 625.731 353.29 624.977C352.892 624.125 352.331 623.361 351.637 622.727C349.94 621.33 347.585 621.05 345.607 622.009C344.022 622.731 342.679 623.924 340.881 622.979C339.388 622.195 339.017 620.141 337.945 618.928C336.449 617.323 334.144 616.755 332.074 617.483C330.46 618.073 329.094 619.495 327.267 618.945C325.516 618.419 325.169 616.536 324.204 615.212C322.888 613.398 320.613 612.55 318.431 613.059C316.851 613.447 315.465 614.975 313.777 614.829C311.69 614.647 310.085 612.426 308.888 610.93C308.302 610.198 307.746 609.44 307.122 608.74L307.446 609.968L311.286 599.985L309.734 600.866L309.779 600.88C310.331 601.03 310.914 600.792 311.205 600.3C314.325 593.153 321.098 588.022 328.793 586.271C332.836 585.425 336.993 585.266 341.089 585.802L339.872 584.204L334.42 603.931L333.64 606.75C333.48 607.413 333.875 608.083 334.532 608.264C335.19 608.446 335.872 608.072 336.074 607.421Z" fill="black"/>
<path d="M338.724 593.536L348.125 596.037C349.33 596.357 350.532 596.689 351.74 596.998C354.6 597.743 357.634 597.43 360.282 596.117C363.073 594.7 365.206 592.256 366.232 589.298C366.518 588.485 366.729 587.641 366.967 586.814L370.21 575.554L372.734 566.789C373.184 565.226 370.749 564.558 370.3 566.118L364.995 584.538C364.686 585.613 364.376 586.688 364.067 587.763C363.542 589.691 362.446 591.415 360.925 592.709C358.766 594.497 355.927 595.24 353.17 594.739C352.043 594.519 350.934 594.171 349.826 593.876L339.396 591.102C337.824 590.684 337.154 593.118 338.725 593.536H338.724Z" fill="black"/>
<path d="M370.802 617.647C371.211 616.17 371.822 614.757 372.619 613.448C374.904 610.046 378.828 608.12 382.917 608.394C384.233 608.528 385.527 608.831 386.766 609.294L390.368 610.466C391.916 610.969 392.579 608.532 391.039 608.031C388.47 607.196 385.875 606.105 383.161 605.887C378.496 605.56 373.975 607.575 371.1 611.263C369.859 612.991 368.934 614.925 368.368 616.976C367.867 618.525 370.303 619.189 370.802 617.647V617.647Z" fill="black"/>
<path d="M352.306 585.442C353.285 587.471 353.556 589.769 353.074 591.97L352.306 585.442Z" fill="#A8542A"/>
<path d="M351.217 586.079C351.298 586.222 351.356 586.375 351.428 586.521C351.21 586.081 351.376 586.398 351.422 586.519C351.462 586.622 351.499 586.726 351.535 586.831C351.618 587.073 351.69 587.318 351.753 587.566C351.828 587.863 351.89 588.164 351.939 588.467C351.954 588.56 352.042 588.797 351.944 588.481C351.963 588.571 351.973 588.663 351.975 588.755C351.992 588.93 352.005 589.105 352.014 589.281C352.034 589.68 352.032 590.079 352.007 590.477C351.993 590.702 351.973 590.926 351.945 591.149C351.968 590.961 351.948 591.12 351.932 591.22C351.91 591.359 351.884 591.497 351.857 591.635C351.738 592.07 351.859 592.535 352.175 592.857C352.492 593.178 352.956 593.306 353.392 593.192C353.829 593.078 354.171 592.741 354.291 592.306C354.651 590.541 354.622 588.719 354.204 586.968C354.033 586.214 353.762 585.487 353.396 584.806C353.044 584.204 352.271 584.001 351.669 584.353C351.068 584.705 350.865 585.478 351.217 586.08V586.079Z" fill="black"/>
<path d="M356.188 582.569C358.196 583.589 359.805 585.253 360.755 587.295L356.188 582.569Z" fill="#A8542A"/>
<path d="M355.551 583.658C355.917 583.824 356.266 584.026 356.593 584.259C356.669 584.311 356.744 584.364 356.818 584.418C356.855 584.444 356.891 584.471 356.927 584.498C356.952 584.516 356.977 584.535 357.001 584.553C357.129 584.649 356.857 584.442 356.859 584.444C357.028 584.612 357.237 584.751 357.415 584.912C357.833 585.292 358.221 585.704 358.573 586.145C358.742 586.356 358.422 585.941 358.586 586.161C358.642 586.236 358.698 586.312 358.752 586.389C358.857 586.537 358.959 586.689 359.057 586.843C359.28 587.194 359.483 587.558 359.666 587.932C360.02 588.53 360.79 588.732 361.392 588.384C361.98 588.022 362.179 587.262 361.845 586.658C360.835 584.571 359.222 582.836 357.215 581.676C357.088 581.604 356.958 581.538 356.825 581.479C356.527 581.32 356.181 581.274 355.853 581.352C355.536 581.442 355.266 581.649 355.098 581.932C354.928 582.226 354.882 582.576 354.971 582.904C355.054 583.224 355.263 583.497 355.551 583.659L355.551 583.658Z" fill="black"/>
<path d="M358.502 576.898C360.754 576.956 362.921 577.768 364.657 579.204L358.502 576.898Z" fill="#A8542A"/>
<path d="M358.502 578.16C358.669 578.155 358.836 578.16 359.003 578.175C359.093 578.181 359.183 578.189 359.273 578.199C359.315 578.203 359.357 578.209 359.4 578.213C359.619 578.236 359.072 578.163 359.285 578.197C359.545 578.24 359.803 578.284 360.06 578.344C360.356 578.412 360.648 578.493 360.937 578.588C361.09 578.638 361.242 578.691 361.393 578.748C361.481 578.775 361.567 578.809 361.65 578.849C361.382 578.693 361.628 578.841 361.7 578.873C362.075 579.042 362.441 579.233 362.794 579.444C362.986 579.558 363.173 579.678 363.357 579.804C363.437 579.858 363.516 579.914 363.594 579.97C363.63 579.997 363.943 580.237 363.764 580.096C364.007 580.323 364.324 580.454 364.657 580.466C365.167 580.466 365.627 580.158 365.823 579.686C366.018 579.215 365.91 578.672 365.549 578.311C364.159 577.18 362.539 576.367 360.802 575.927C360.052 575.727 359.279 575.629 358.502 575.636C357.809 575.641 357.25 576.204 357.25 576.898C357.25 577.591 357.809 578.155 358.502 578.16V578.16Z" fill="black"/>
<path d="M360.422 570.37C362.674 570.429 364.841 571.241 366.577 572.676L360.422 570.37Z" fill="#A8542A"/>
<path d="M360.422 571.632C360.589 571.628 360.756 571.633 360.923 571.647C361.013 571.654 361.103 571.662 361.193 571.671C361.235 571.676 361.277 571.681 361.32 571.685C361.539 571.708 360.992 571.635 361.205 571.67C361.465 571.712 361.723 571.757 361.98 571.816C362.276 571.885 362.568 571.966 362.857 572.06C363.01 572.11 363.162 572.164 363.313 572.221C363.401 572.248 363.487 572.282 363.57 572.322C363.302 572.166 363.548 572.313 363.62 572.345C363.995 572.515 364.361 572.706 364.714 572.917C364.906 573.031 365.093 573.151 365.277 573.277C365.357 573.331 365.436 573.386 365.514 573.443C365.55 573.469 365.863 573.71 365.684 573.569C365.927 573.796 366.244 573.927 366.577 573.938C367.087 573.938 367.547 573.631 367.743 573.159C367.938 572.688 367.83 572.145 367.469 571.784C366.079 570.653 364.459 569.839 362.722 569.399C361.972 569.199 361.199 569.101 360.422 569.108C359.725 569.108 359.16 569.673 359.16 570.37C359.16 571.067 359.725 571.632 360.422 571.632Z" fill="black"/>
<path d="M490.264 253.587C493.513 252.835 494.796 244.778 494.59 235.449L479.535 241.792C481.881 249.479 486.821 254.384 490.264 253.587Z" fill="black"/>
<path d="M490.599 254.804C493.293 254.105 494.318 250.792 494.863 248.413C495.719 244.148 496.051 239.794 495.851 235.449C495.836 234.72 495.041 233.9 494.254 234.232L481.111 239.769L479.199 240.575C478.537 240.773 478.149 241.457 478.318 242.127C479.343 245.769 481.202 249.122 483.746 251.922C485.51 253.745 487.955 255.357 490.6 254.804C492.189 254.472 491.516 252.038 489.929 252.369C489.642 252.407 489.352 252.409 489.065 252.375C488.65 252.295 488.248 252.155 487.874 251.957C486.873 251.406 485.977 250.681 485.23 249.815C483.148 247.387 481.62 244.534 480.752 241.456L479.87 243.008L493.012 237.471L494.925 236.665L493.327 235.448C493.498 239.33 493.247 243.22 492.578 247.048C492.365 248.337 491.978 249.592 491.428 250.778C491.235 251.189 490.982 251.569 490.679 251.907C490.483 252.135 490.221 252.297 489.928 252.369C488.357 252.778 489.023 255.213 490.599 254.804Z" fill="black"/>
<path d="M429.49 274.582L381.784 316.107L371.436 324.569C357.343 335.776 346.532 335.176 322.303 319.456L256.251 263.011L272.097 237.924L349.501 288.593L353.197 284.467L404.073 225.872C408.995 220.203 416.133 216.948 423.64 216.948H437.169" fill="#A8542A"/>
<path d="M428.598 273.69L418.522 282.46L398.209 300.141L382.564 313.759C378.803 317.032 374.887 320.125 371.028 323.281C367.744 325.967 364.088 328.429 360.041 329.794C355.53 331.236 350.692 331.309 346.139 330.004C339.579 328.278 333.51 324.895 327.752 321.394C325.667 320.221 323.681 318.879 321.814 317.383L308.847 306.302L288.453 288.874L268.809 272.087L257.675 262.573L257.144 262.119L257.341 263.648L271.247 241.633L273.188 238.56L271.461 239.013L279.166 244.057L297.666 256.167L320.043 270.815L339.373 283.47C342.479 285.503 345.528 287.72 348.732 289.596C348.777 289.623 348.82 289.654 348.864 289.683C349.361 289.969 349.987 289.888 350.394 289.485C353.351 286.185 356.265 282.855 359.17 279.508L376.571 259.467L395.643 237.502C398.749 233.925 401.838 230.334 404.96 226.772C409.697 221.344 416.546 218.224 423.75 218.211C427.814 218.203 431.877 218.211 435.941 218.211H437.169C437.846 218.184 438.382 217.627 438.382 216.949C438.382 216.27 437.846 215.713 437.169 215.687H425.459C423.213 215.636 420.967 215.786 418.747 216.135C414.726 216.861 410.923 218.495 407.628 220.913C405.455 222.6 403.477 224.524 401.731 226.65L396.102 233.134L377.506 254.55L359.131 275.713C356.171 279.122 353.229 282.544 350.217 285.906L348.609 287.701L350.138 287.503L342.434 282.459L323.933 270.349L301.557 255.701L282.226 243.047C279.12 241.014 276.071 238.797 272.867 236.921C272.822 236.894 272.778 236.863 272.734 236.834C272.131 236.493 271.366 236.694 271.008 237.287L257.102 259.301L255.161 262.374C254.875 262.87 254.956 263.497 255.359 263.904L263.391 270.767L281.895 286.58L302.969 304.589L318.273 317.666C319.282 318.529 320.28 319.408 321.302 320.255C321.611 320.501 321.934 320.728 322.269 320.935C324.115 322.124 325.978 323.287 327.867 324.408C331.078 326.349 334.4 328.101 337.815 329.656C342.826 331.891 348.233 333.652 353.785 333.474C358.647 333.216 363.353 331.668 367.418 328.988C370.67 326.808 373.782 324.427 376.736 321.857C378.768 320.196 380.84 318.573 382.832 316.864C386.888 313.385 390.894 309.847 394.924 306.339L415.591 288.35L429.669 276.096L430.383 275.475C431.611 274.406 429.819 272.627 428.598 273.689V273.69Z" fill="black"/>
<path d="M440.007 269.955L393.142 314.845L382.795 323.307C368.702 334.515 338.872 347.515 314.643 331.796L264.161 286.362L291.869 249.704L349.501 288.594L353.197 284.468L404.073 225.873C408.995 220.205 416.133 216.949 423.64 216.949H437.169" fill="#FC7F3A"/>
<path d="M439.115 269.062L430.714 277.109L412.887 294.185L396.692 309.698L392.677 313.544C391.469 314.7 390.109 315.703 388.816 316.761C386.351 318.777 383.926 320.855 381.407 322.805C377.027 326.15 372.288 328.997 367.277 331.295C355.697 336.687 342.295 339.53 329.643 336.726C326.224 335.977 322.909 334.816 319.77 333.267C318.206 332.583 316.721 331.732 315.341 330.727C314.154 329.743 313.039 328.655 311.893 327.624L296.143 313.449L277.258 296.453L265.617 285.976L265.054 285.469L265.251 286.999L274.659 274.552L289.528 254.88L292.96 250.34L291.233 250.793L296.958 254.656L310.71 263.936L327.351 275.166L341.748 284.88C344.07 286.448 346.347 288.191 348.762 289.614C348.798 289.635 348.831 289.66 348.865 289.683C349.36 289.97 349.987 289.889 350.394 289.485C353.323 286.216 356.21 282.917 359.088 279.603L376.528 259.517L395.678 237.462C398.772 233.899 401.851 230.321 404.961 226.771C409.701 221.341 416.555 218.22 423.764 218.21C427.807 218.203 431.851 218.21 435.895 218.21H437.17C437.847 218.184 438.383 217.626 438.383 216.948C438.383 216.27 437.847 215.713 437.17 215.686H425.498C423.277 215.637 421.055 215.78 418.859 216.115C414.841 216.822 411.038 218.435 407.737 220.833C405.513 222.542 403.493 224.5 401.714 226.669L396.081 233.157L377.512 254.544L359.076 275.777C356.138 279.161 353.216 282.558 350.226 285.895L348.609 287.701L350.138 287.503L344.413 283.64L330.662 274.361L314.02 263.131L299.623 253.416C297.301 251.849 295.024 250.105 292.609 248.683C292.573 248.662 292.54 248.636 292.506 248.614C291.902 248.279 291.142 248.478 290.78 249.066L281.372 261.513L266.503 281.184L263.072 285.724C262.782 286.22 262.863 286.848 263.269 287.254L271.704 294.845L289.951 311.267L307.421 326.99L312.556 331.612C314.615 333.369 316.924 334.81 319.407 335.886C331.869 341.724 346.089 341.313 359.006 337.215C368.641 334.124 377.601 329.23 385.408 322.792C388.935 319.908 392.567 317.143 395.859 313.991L409.886 300.554L428.466 282.757L440.312 271.41L440.9 270.847C442.075 269.721 440.289 267.938 439.115 269.062V269.062Z" fill="black"/>
<path d="M437.169 216.795L480.853 217.806C487.51 217.337 491.182 219.844 494.728 229.413C494.728 229.413 510.919 309.668 516.215 341.888C505.423 331.785 414.977 339.322 414.977 339.322L424.992 239.982" fill="#FC7F3A"/>
<path d="M437.169 218.057L446.888 218.282L466.2 218.729L479.994 219.049C481.783 219.09 483.559 218.894 485.313 219.375C488.759 220.318 490.747 223.481 492.189 226.551C492.86 227.867 493.368 229.259 493.703 230.697C493.952 231.936 494.201 233.175 494.449 234.414C495.417 239.239 496.38 244.065 497.339 248.892C498.723 255.859 500.098 262.828 501.466 269.799C503.037 277.815 504.594 285.833 506.137 293.855C507.666 301.81 509.171 309.771 510.653 317.735C511.91 324.522 513.147 331.313 514.309 338.117C514.543 339.485 514.773 340.854 514.998 342.224L517.108 340.996C515.55 339.555 513.425 338.806 511.42 338.236C508.442 337.445 505.406 336.889 502.341 336.573C494.118 335.692 485.851 335.288 477.581 335.362C468.282 335.322 458.982 335.571 449.691 335.959C441.877 336.286 434.069 336.711 426.265 337.236C423.747 337.403 421.229 337.581 418.713 337.769C417.517 337.794 416.324 337.886 415.138 338.047C415.085 338.054 415.031 338.058 414.977 338.06L416.239 339.322L417.236 329.436L419.63 305.695L422.525 276.981L425.026 252.171L425.849 244.004C425.978 242.727 426.188 241.428 426.239 240.144C426.241 240.09 426.25 240.036 426.255 239.982C426.418 238.367 423.893 238.379 423.731 239.982L422.734 249.869L420.341 273.609L417.446 302.324L414.944 327.134L414.121 335.3C413.992 336.578 413.782 337.876 413.732 339.16C413.73 339.214 413.721 339.268 413.715 339.322C413.717 340.018 414.281 340.582 414.977 340.584C417.997 340.333 421.019 340.118 424.042 339.91C431.359 339.407 438.681 338.985 446.009 338.645C455.181 338.223 464.362 337.931 473.544 337.888C482.058 337.847 490.604 337.965 499.087 338.752C502.255 339.003 505.403 339.457 508.513 340.112C509.756 340.374 510.981 340.711 512.184 341.121C512.43 341.206 512.673 341.298 512.916 341.392C512.981 341.417 513.331 341.563 513.147 341.485C512.968 341.409 513.372 341.586 513.433 341.615C513.84 341.8 514.234 342.012 514.614 342.248C514.779 342.351 514.937 342.463 515.096 342.577C514.792 342.36 515.189 342.657 515.323 342.781C515.734 343.166 516.349 343.237 516.836 342.953C517.323 342.67 517.565 342.1 517.433 341.553C516.378 335.141 515.23 328.745 514.061 322.354C512.624 314.492 511.152 306.638 509.645 298.789C508.078 290.578 506.492 282.371 504.886 274.168C503.451 266.819 502.005 259.473 500.548 252.128C499.481 246.743 498.408 241.359 497.331 235.976C496.877 233.708 496.555 231.358 495.955 229.122C495.431 227.438 494.734 225.812 493.875 224.272C492.998 222.457 491.812 220.809 490.369 219.401C489.146 218.26 487.671 217.425 486.063 216.963C484.357 216.565 482.601 216.424 480.853 216.544C477.548 216.604 474.215 216.391 470.91 216.314L451.489 215.864L437.875 215.549L437.17 215.533C435.545 215.495 435.545 218.02 437.17 218.057H437.169Z" fill="black"/>
<path d="M260.411 266.566L243.921 256.62C241.623 255.233 239.548 253.506 237.769 251.496C233.715 246.92 229.26 243.491 223.225 242.512L220.877 237.793C220.877 237.793 240.745 213.283 243.672 213.814L251.858 213.118C251.065 211.136 251.505 208.874 252.981 207.334C254.108 206.158 255.703 205.55 257.326 205.675C258.95 205.8 260.431 206.647 261.364 207.981L265.157 213.406C267.525 216.793 269.128 220.656 269.853 224.725L270.718 229.58C271.681 234.98 274.836 239.741 279.434 242.732L280.714 243.565" fill="#A8542A"/>
<path d="M261.048 265.476L250.132 258.892L244.876 255.721C243.752 255.059 242.678 254.316 241.663 253.498C239.824 251.985 238.345 250.149 236.661 248.482C233.031 244.889 228.652 242.157 223.561 241.296L224.315 241.876L221.967 237.156L221.77 238.686C224.987 234.717 228.282 230.812 231.654 226.97C234.106 224.172 236.592 221.393 239.227 218.764C240.212 217.78 241.222 216.823 242.296 215.936C242.378 215.867 242.589 215.705 242.387 215.859C242.483 215.786 242.58 215.713 242.679 215.642C242.871 215.504 243.067 215.369 243.271 215.249C243.364 215.195 243.774 215.001 243.568 215.082C243.329 215.176 243.587 215.075 243.636 215.067C243.94 215.017 243.363 215.067 243.531 215.069C243.553 215.069 243.581 215.07 243.604 215.068C242.993 215.115 243.558 215.083 243.677 215.075C243.715 215.073 243.753 215.066 243.792 215.066C244.053 215.062 244.321 215.021 244.581 214.999L247.415 214.757L251.859 214.379C252.25 214.374 252.618 214.188 252.856 213.877C253.093 213.565 253.174 213.161 253.075 212.782C252.229 210.742 253.076 208.393 255.029 207.363C256.718 206.528 258.756 206.914 260.021 208.309C260.656 209.09 261.242 209.91 261.775 210.763C262.494 211.791 263.212 212.818 263.93 213.846C266.342 217.294 267.968 221.23 268.693 225.375C269.241 228.436 269.637 231.525 270.866 234.407C271.901 236.835 273.384 239.046 275.236 240.926C276.711 242.34 278.334 243.59 280.078 244.654C281.444 245.542 282.71 243.358 281.352 242.475C279.792 241.524 278.339 240.406 277.021 239.141C275.273 237.378 273.9 235.279 272.985 232.971C271.919 230.237 271.595 227.261 271.071 224.389C270.197 219.899 268.355 215.654 265.674 211.947L263.105 208.273C262.35 206.987 261.28 205.912 259.997 205.151C257.535 203.877 254.542 204.25 252.469 206.09C250.395 207.93 249.669 210.857 250.641 213.453L251.858 211.856C249.144 212.087 246.428 212.299 243.716 212.549C243.569 212.562 244.601 212.519 243.638 212.548C243.59 212.549 243.54 212.547 243.491 212.548C243.263 212.56 243.037 212.604 242.822 212.681C242.391 212.837 241.984 213.051 241.612 213.317C240.561 214.064 239.571 214.895 238.652 215.8C233.301 220.867 228.545 226.615 223.82 232.259C222.532 233.798 221.253 235.345 219.985 236.901C219.6 237.317 219.521 237.931 219.787 238.43L221.491 241.855C221.679 242.298 221.893 242.729 222.133 243.146C222.544 243.766 223.189 243.77 223.85 243.91C224.516 244.05 225.175 244.224 225.823 244.431C228.248 245.234 230.502 246.479 232.473 248.104C234.567 249.801 236.241 251.857 238.154 253.735C240.395 255.795 242.871 257.584 245.53 259.064L253.839 264.076L259.774 267.656C261.169 268.497 262.439 266.315 261.048 265.476H261.048Z" fill="black"/>
<path d="M235.686 235.825C227.191 233.416 218.375 232.333 209.549 232.612C200.591 233.807 201.21 240.35 210.015 241.286C218.821 242.222 222.448 240.799 232.331 246.644" fill="#A8542A"/>
<path d="M236.021 234.608C233.381 233.815 230.693 233.192 227.973 232.741C225.125 232.23 222.25 231.848 219.367 231.602C217.652 231.457 215.934 231.363 214.212 231.32C212.452 231.208 210.687 231.247 208.934 231.435C206.788 231.758 204.349 232.49 202.898 234.217C201.732 235.518 201.548 237.426 202.445 238.925C203.532 240.721 205.67 241.677 207.63 242.154C210.213 242.783 212.969 242.811 215.614 242.948C218.017 243.001 220.41 243.289 222.757 243.805C225.909 244.68 228.919 246.003 231.694 247.734C232.293 248.057 233.04 247.847 233.384 247.26C233.727 246.672 233.543 245.918 232.968 245.555C228.593 242.984 224.063 241.128 218.987 240.646C216.85 240.443 214.701 240.398 212.561 240.247C210.306 240.088 207.861 239.97 205.869 238.78C205.285 238.474 204.807 238 204.496 237.419C204.367 237.105 204.35 236.756 204.448 236.431C205.067 234.948 207.27 234.314 208.804 234.008C210.379 233.783 211.973 233.724 213.56 233.832C215.145 233.856 216.728 233.926 218.31 234.043C221.048 234.242 223.771 234.571 226.481 235.031C229.48 235.499 232.443 236.17 235.35 237.042C236.903 237.531 237.568 235.095 236.021 234.608L236.021 234.608Z" fill="black"/>
<path d="M236.05 226.156C236.05 226.156 222.23 220.454 208.085 218.291C199.063 217.782 198.442 224.325 206.915 226.898C215.388 229.471 223.095 232.467 237.281 237.861" fill="#A8542A"/>
<path d="M236.386 224.939C232.982 223.537 229.473 222.357 225.961 221.262C222.566 220.203 219.134 219.259 215.666 218.467C212.207 217.677 208.518 216.64 204.955 217.163C202.89 217.467 200.559 218.43 199.845 220.576C199.188 222.55 200.379 224.523 201.874 225.74C203.998 227.47 206.647 228.115 209.203 228.932C211.591 229.695 213.963 230.507 216.325 231.347C223.241 233.808 230.085 236.469 236.946 239.078C238.466 239.656 239.123 237.217 237.617 236.644C231.702 234.395 225.798 232.116 219.854 229.944C217.574 229.111 215.286 228.297 212.985 227.521C210.747 226.766 208.44 226.161 206.229 225.335C204.648 224.745 202.47 223.555 202.188 221.898C202.221 222.092 202.184 221.648 202.191 221.559C202.207 221.35 202.167 221.743 202.197 221.537C202.209 221.457 202.23 221.379 202.26 221.305C202.29 221.213 202.335 221.127 202.392 221.05C202.458 220.933 202.544 220.83 202.646 220.743C203.317 220.193 204.124 219.835 204.982 219.707C206.384 219.456 207.821 219.469 209.218 219.744C210.995 220.046 212.764 220.396 214.523 220.794C217.84 221.537 221.124 222.422 224.375 223.413C228.198 224.579 232.017 225.849 235.715 227.373C236.387 227.553 237.078 227.16 237.268 226.492C237.436 225.822 237.047 225.138 236.386 224.939L236.386 224.939Z" fill="black"/>
<path d="M243.03 219.684C243.03 219.684 227.142 208.182 213.861 202.857C205.19 200.309 203.097 206.539 210.762 210.972C218.427 215.406 225.251 220.077 237.838 228.557" fill="#A8542A"/>
<path d="M243.667 218.594C240.897 216.59 238.036 214.705 235.153 212.868C229.404 209.108 223.387 205.775 217.15 202.895C214.328 201.632 211.061 200.338 207.934 201.308C205.723 201.994 204.357 203.96 204.904 206.28C205.574 209.122 208.296 210.995 210.655 212.37C212.969 213.718 215.255 215.113 217.514 216.554C224.167 220.778 230.666 225.244 237.201 229.647C238.552 230.557 239.817 228.371 238.475 227.467C232.817 223.655 227.18 219.808 221.459 216.091C219.292 214.684 217.11 213.299 214.901 211.959C212.636 210.583 209.919 209.425 208.226 207.32C207.678 206.71 207.35 205.934 207.295 205.115C207.331 204.547 207.707 204.057 208.247 203.877C210.586 202.765 213.688 204.095 215.876 205.075C221.796 207.804 227.514 210.948 232.99 214.484C236.178 216.493 239.339 218.564 242.393 220.773C243.711 221.727 244.972 219.538 243.667 218.594V218.594Z" fill="black"/>
<path d="M252.468 214.988C252.468 214.988 236.042 197.967 223.845 190.486C215.726 186.517 212.615 192.307 219.426 197.965C226.237 203.623 232.178 209.376 243.161 219.851" fill="#A8542A"/>
<path d="M253.361 214.095C246.448 206.856 239.006 200.141 231.096 194.007C228.538 192.048 225.836 189.82 222.801 188.668C220.358 187.742 216.563 187.236 214.981 189.921C213.416 192.578 215.393 195.748 217.238 197.661C218.349 198.813 219.653 199.786 220.866 200.827C221.96 201.766 223.044 202.717 224.118 203.678C230.308 209.214 236.261 215.013 242.269 220.743C243.445 221.864 245.233 220.082 244.054 218.958C238.822 213.968 233.624 208.938 228.29 204.055C226.235 202.174 224.155 200.32 222.033 198.514C220.143 196.905 217.134 194.914 216.957 192.202C216.842 191.548 217.199 190.903 217.815 190.655C218.99 190.15 220.462 190.533 221.608 190.915C223.073 191.481 224.452 192.249 225.704 193.196C226.972 194.06 228.213 194.963 229.435 195.89C234.429 199.752 239.217 203.874 243.777 208.239C246.427 210.732 249.049 213.262 251.576 215.88C252.707 217.051 254.49 215.265 253.361 214.095V214.095Z" fill="black"/>
<path d="M280.715 243.565L279.435 242.732C274.837 239.741 271.682 234.98 270.719 229.58L269.854 224.725C269.128 220.656 267.526 216.793 265.157 213.406L261.365 207.981C260.432 206.647 258.95 205.8 257.326 205.675C255.703 205.55 254.109 206.158 252.982 207.334C251.505 208.874 251.066 211.136 251.858 213.118L255.174 221.404C255.174 221.404 248.531 231.843 247.934 243.332" fill="#A8542A"/>
<path d="M281.351 242.475C279.179 241.165 277.241 239.503 275.616 237.556C273.732 235.124 272.469 232.27 271.935 229.24C271.654 227.714 271.392 226.185 271.118 224.658C270.585 221.639 269.6 218.717 268.196 215.992C267.21 214.2 266.107 212.477 264.893 210.831C263.976 209.52 263.113 208.143 262.113 206.892C260.179 204.494 256.858 203.726 254.068 205.031C251.277 206.336 249.738 209.377 250.338 212.399C250.646 214.061 251.546 215.714 252.168 217.269L253.956 221.739L254.083 220.767C252.737 222.96 251.57 225.258 250.595 227.639C248.39 232.604 247.063 237.913 246.671 243.331C246.58 244.954 249.104 244.949 249.196 243.331C249.598 236.234 252.146 229.205 255.656 223.062C256.043 222.579 256.31 222.01 256.435 221.404C256.324 220.742 256.099 220.105 255.771 219.52L253.232 213.175C252.67 212.026 252.601 210.697 253.042 209.496C253.662 208.023 255.063 207.027 256.659 206.926C259.316 206.779 260.511 208.956 261.824 210.833C263.393 212.922 264.817 215.116 266.085 217.399C267.522 220.428 268.497 223.654 268.977 226.971C269.567 230.285 270.189 233.473 271.865 236.456C273.845 239.979 276.737 242.482 280.077 244.654C281.443 245.543 282.709 243.358 281.351 242.475L281.351 242.475Z" fill="black"/>
<path d="M470.086 359.35C469.962 361.482 470.252 363.618 470.94 365.639C472.153 369.614 475.383 372.648 479.427 373.609L478.545 372.056C477.272 380.337 476.096 388.634 474.925 396.93C473.46 407.31 472.02 417.693 470.604 428.08C469.916 433.107 469.23 438.133 468.548 443.161C467.902 447.916 466.948 452.748 466.916 457.557C466.881 467.97 470.899 477.988 478.12 485.49C480.689 487.985 483.471 490.25 486.434 492.261L497.264 500.134L512.562 511.255L528.631 522.938L542 532.657L548.97 537.724L549.287 537.955C550.603 538.911 551.864 536.722 550.561 535.775L545.788 532.305L533.823 523.607L518.201 512.25L502.454 500.802L490.158 491.863C488.347 490.546 486.536 489.229 484.724 487.912C477.099 482.301 471.871 474.02 470.083 464.723C469.131 459.768 469.48 454.916 470.151 449.957C470.797 445.186 471.445 440.415 472.096 435.644C473.508 425.286 474.936 414.931 476.379 404.577C477.63 395.63 478.891 386.684 480.221 377.748C480.47 376.074 480.723 374.4 480.979 372.727C481.148 372.057 480.76 371.372 480.098 371.174C476.751 370.408 474.107 367.846 473.234 364.526C472.694 362.857 472.482 361.1 472.611 359.35C472.731 357.73 470.207 357.738 470.086 359.35L470.086 359.35Z" fill="black"/>
<path d="M437.528 363.011L436.257 368.144L432.795 382.111L427.676 402.769L421.43 427.973L414.59 455.577L407.686 483.437L401.271 509.327L395.83 531.281L391.92 547.062C391.304 549.547 390.651 552.025 390.072 554.518C390.047 554.627 390.018 554.735 389.992 554.843C389.601 556.42 392.034 557.092 392.425 555.514L393.697 550.381L397.158 536.414L402.278 515.755L408.523 490.552L415.364 462.948L422.268 435.088L428.683 409.198L434.123 387.244L438.034 371.463C438.65 368.978 439.303 366.5 439.882 364.006C439.907 363.898 439.936 363.79 439.962 363.682C440.353 362.105 437.919 361.432 437.528 363.011L437.528 363.011Z" fill="black"/>
<path d="M442.576 337.344L439.78 353.525L438.148 362.967C437.586 366.22 437.23 369.393 438.172 372.65C439.298 376.542 442.047 379.691 444.386 382.914C445.331 384.216 447.522 382.958 446.566 381.64C444.812 379.224 442.716 376.827 441.415 374.125C440.171 371.5 439.757 368.558 440.227 365.692C440.316 365.145 440.416 364.6 440.51 364.053L443.931 344.261L445.01 338.015C445.285 336.426 442.853 335.744 442.576 337.344H442.576Z" fill="black"/>
<path d="M346.268 294.302L350.652 289.323L351.272 288.619C351.764 288.126 351.765 287.327 351.272 286.834C350.779 286.341 349.98 286.341 349.487 286.834L345.103 291.813L344.483 292.517C344.164 292.836 344.04 293.301 344.156 293.736C344.273 294.172 344.613 294.512 345.049 294.629C345.485 294.746 345.949 294.621 346.268 294.302H346.268Z" fill="black"/>
<path d="M485.127 271.217L532.833 312.741L543.181 321.204C557.274 332.411 568.085 331.81 592.314 316.09L658.366 259.646L642.52 234.558L565.116 285.227L561.42 281.102L510.544 222.507C505.623 216.838 498.485 213.583 490.978 213.583H477.448" fill="#A8542A"/>
<path d="M484.235 272.109L494.482 281.029L514.886 298.789L530.48 312.362C534.249 315.643 538.175 318.75 542.052 321.902C545.658 324.836 549.63 327.456 554.075 328.919C558.841 330.395 563.93 330.485 568.745 329.177C575.295 327.535 581.407 324.241 587.164 320.797C589.7 319.397 592.114 317.786 594.38 315.98L607.152 305.066L627.538 287.645L647.431 270.645L658.727 260.992L659.258 260.539C659.662 260.132 659.743 259.505 659.456 259.009L645.551 236.995L643.61 233.922C643.252 233.327 642.486 233.126 641.883 233.469L634.178 238.512L615.677 250.623L593.301 265.271L573.97 277.925L567.641 282.068C566.596 282.672 565.584 283.335 564.612 284.051C564.569 284.083 564.525 284.112 564.479 284.138L566.008 284.336C563.026 281.007 560.087 277.647 557.157 274.272L539.595 254.046L520.385 231.921C517.402 228.486 514.435 225.037 511.436 221.615C506.232 215.717 498.749 212.334 490.884 212.321C486.814 212.313 482.745 212.321 478.676 212.321H477.448C476.77 212.348 476.234 212.905 476.234 213.583C476.234 214.262 476.77 214.819 477.448 214.845H489.029C491.187 214.778 493.346 214.915 495.478 215.256C499.456 215.999 503.191 217.705 506.359 220.223C508.147 221.755 509.793 223.446 511.278 225.273L517.074 231.948L535.563 253.242L553.868 274.325C556.772 277.669 559.66 281.026 562.616 284.325L564.223 286.12C564.63 286.523 565.257 286.604 565.753 286.317L573.457 281.274L591.958 269.163L614.334 254.515L633.665 241.861L639.994 237.718C641.039 237.113 642.051 236.451 643.024 235.735C643.067 235.704 643.111 235.675 643.157 235.648L641.43 235.195L655.335 257.21L657.276 260.283L657.474 258.754L649.582 265.498L631.207 281.2L610.364 299.011L594.849 312.27C593.77 313.192 592.718 314.166 591.603 315.044C589.95 316.227 588.228 317.309 586.445 318.284C583.217 320.264 579.884 322.068 576.461 323.687C571.615 325.936 566.33 327.741 560.922 327.588C556.219 327.454 551.871 325.649 547.964 323.119C544.84 320.959 541.837 318.629 538.97 316.138C537.147 314.647 535.284 313.195 533.503 311.655C529.362 308.074 525.244 304.466 521.115 300.872L500.621 283.034L486.733 270.946L486.019 270.325C484.799 269.263 483.006 271.041 484.235 272.11L484.235 272.109Z" fill="black"/>
<path d="M485.021 271.217L521.475 311.479L531.823 319.942C545.916 331.149 575.745 344.15 599.974 328.43L650.456 282.996L622.748 246.338L565.116 285.228L561.42 281.102L510.544 222.508C505.623 216.839 498.485 213.584 490.978 213.584L473.242 214.004" fill="#FC7F3A"/>
<path d="M484.128 272.109L492.303 281.139L508.375 298.889L519.877 311.593C520.73 312.478 521.649 313.297 522.626 314.043C525.304 316.233 527.982 318.423 530.66 320.613C538.683 327.034 547.925 331.763 557.827 334.513C570.129 337.986 583.462 338.021 595.191 332.53C597.613 331.494 599.869 330.104 601.883 328.407L606.458 324.29L622.431 309.913L640.166 293.952L650.839 284.346L651.348 283.888C651.753 283.482 651.834 282.855 651.546 282.359L642.16 269.942L627.265 250.235L623.838 245.701C623.478 245.11 622.715 244.909 622.111 245.248L616.378 249.117L602.61 258.407L585.956 269.646L571.561 279.359L566.852 282.537C566.064 282.999 565.305 283.51 564.582 284.069C564.549 284.094 564.515 284.117 564.479 284.138L566.008 284.336C562.863 280.824 559.766 277.277 556.675 273.717L537.919 252.116L518.554 229.812L512.75 223.128C510.644 220.552 508.165 218.305 505.395 216.462C501.793 214.219 497.719 212.844 493.494 212.444C491.767 212.319 490.034 212.299 488.304 212.385L474.305 212.717L473.241 212.742C471.619 212.78 471.613 215.305 473.241 215.266L484.802 214.992L490.548 214.856C493.548 214.797 496.533 215.289 499.355 216.309C503.638 217.934 507.423 220.65 510.335 224.186L515.289 229.892L533.87 251.293L553.2 273.555C556.306 277.132 559.391 280.726 562.552 284.254L564.223 286.12C564.63 286.523 565.257 286.604 565.753 286.318L571.486 282.449L585.253 273.159L601.908 261.92L616.302 252.207L621.011 249.029C621.799 248.566 622.557 248.054 623.281 247.497C623.314 247.472 623.349 247.449 623.384 247.428L621.658 246.975L631.043 259.392L645.938 279.099L649.366 283.633L649.563 282.104L642.043 288.872L625.441 303.813L608.265 319.272L602.165 324.762C601.19 325.639 600.25 326.618 599.211 327.42C597.711 328.466 596.113 329.364 594.44 330.102C591.488 331.519 588.385 332.596 585.19 333.312C579.119 334.631 572.857 334.816 566.719 333.856C555.458 332.072 544.763 327.706 535.47 321.1C532.948 319.327 530.604 317.323 528.22 315.373L523.833 311.786C523.339 311.381 522.798 311 522.338 310.555C521.384 309.632 520.535 308.564 519.645 307.58L513.578 300.88L497.559 283.187L486.481 270.952L485.913 270.324C484.82 269.118 483.039 270.907 484.128 272.109Z" fill="black"/>
<path d="M570.134 289.152L565.75 284.173L565.13 283.469C564.636 282.98 563.84 282.98 563.345 283.469C562.869 283.968 562.869 284.754 563.345 285.253L567.729 290.233L568.349 290.937C568.844 291.426 569.639 291.426 570.134 290.937C570.611 290.437 570.611 289.651 570.134 289.152V289.152Z" fill="black"/>
<circle cx="177.243" cy="220.786" r="55.6023" fill="white"/>
<path d="M120.379 220.786C120.379 251.322 144.5 276.406 175.013 277.602C205.526 278.799 231.536 255.68 233.927 225.237C236.317 194.794 214.235 167.898 183.91 164.316C153.584 160.735 125.843 181.746 121.076 211.908C120.621 214.845 120.388 217.813 120.379 220.786C120.405 221.464 120.963 222 121.641 222C122.319 222 122.877 221.464 122.903 220.786C122.971 191.761 145.961 167.976 174.967 166.922C203.973 165.868 228.628 187.921 230.803 216.864C232.978 245.808 211.895 271.298 183.057 274.59C154.22 277.882 127.934 257.801 123.529 229.112C123.108 226.356 122.899 223.573 122.903 220.786C122.877 220.108 122.319 219.572 121.641 219.572C120.963 219.572 120.405 220.108 120.379 220.786Z" fill="black"/>
<path d="M177.243 276.388C162.493 276.407 148.344 270.547 137.927 260.103L143.146 243.234C146.108 233.553 155.044 226.941 165.168 226.941H186.027C195.565 226.941 204.115 232.82 207.53 241.725L215.634 261.007C205.302 270.896 191.546 276.407 177.243 276.388Z" fill="#FC7F3A"/>
<path d="M177.243 275.126C162.828 275.144 149 269.416 138.82 259.211L139.144 260.439C140.866 254.873 142.588 249.308 144.31 243.742C145.78 238.886 148.883 234.686 153.094 231.856C156.861 229.405 161.272 228.133 165.765 228.203H185.461C190.082 228.136 194.612 229.491 198.437 232.083C202.272 234.72 204.779 238.411 206.557 242.643L214.198 260.819L214.417 261.342L214.742 260.114C204.65 269.774 191.213 275.153 177.243 275.126C176.566 275.153 176.03 275.71 176.03 276.388C176.03 277.066 176.566 277.623 177.243 277.65C188.655 277.638 199.802 274.205 209.243 267.795C211.824 266.026 214.26 264.055 216.527 261.899C216.854 261.582 216.979 261.109 216.851 260.671L209.438 243.035C209.033 242.072 208.649 241.095 208.23 240.138C207.007 237.353 205.266 234.826 203.101 232.691C198.669 228.34 192.75 225.836 186.541 225.685C180.087 225.544 173.617 225.679 167.161 225.679C163.184 225.679 159.358 226.056 155.646 227.633C150.108 229.993 145.644 234.324 143.119 239.788C141.819 242.648 141.038 245.778 140.112 248.772L136.915 259.106L136.711 259.768C136.59 260.206 136.714 260.675 137.035 260.995C145.208 269.153 155.665 274.639 167.022 276.728C170.396 277.333 173.816 277.641 177.243 277.65C177.919 277.62 178.451 277.064 178.451 276.388C178.451 275.712 177.919 275.155 177.243 275.126Z" fill="black"/>
<path d="M183.172 182.885H190.592C192.755 182.885 194.829 183.745 196.358 185.274C197.888 186.803 198.747 188.878 198.747 191.041C198.747 194.894 197.216 198.589 194.491 201.314C191.767 204.039 188.071 205.57 184.218 205.57H178.347L183.172 182.885Z" fill="black"/>
<path d="M183.172 184.147H189.682C190.824 184.088 191.967 184.24 193.054 184.595C194.766 185.255 196.148 186.565 196.899 188.24C198.382 191.55 197.045 195.82 195.095 198.646C192.908 201.774 189.481 203.81 185.688 204.234C183.244 204.383 180.794 204.408 178.347 204.308L179.564 205.905L183.78 186.084L184.389 183.221C184.726 181.637 182.293 180.96 181.955 182.55L177.739 202.372L177.13 205.234C177.033 205.614 177.114 206.017 177.351 206.328C177.589 206.64 177.956 206.825 178.347 206.832C180.662 206.832 183.015 206.964 185.324 206.79C189.712 206.471 193.771 204.344 196.529 200.917C199.123 197.643 200.733 192.977 199.741 188.802C198.67 184.599 194.896 181.648 190.558 181.624C188.096 181.596 185.633 181.624 183.172 181.624C182.496 181.653 181.963 182.209 181.963 182.886C181.963 183.562 182.496 184.118 183.172 184.147Z" fill="black"/>
<circle cx="176.647" cy="206.342" r="12.209" fill="#A8542A"/>
<path d="M163.176 206.342C163.174 212.033 166.749 217.111 172.106 219.03C177.464 220.949 183.449 219.294 187.061 214.897C190.672 210.499 191.131 204.306 188.208 199.424C185.284 194.541 179.608 192.023 174.026 193.131C167.758 194.444 163.245 199.938 163.176 206.342C163.16 207.967 165.684 207.968 165.7 206.342C165.703 201.726 168.601 197.607 172.946 196.047C177.291 194.486 182.148 195.82 185.087 199.38C188.026 202.94 188.416 207.961 186.061 211.932C183.707 215.903 179.114 217.969 174.58 217.098C169.445 216.071 165.736 211.579 165.7 206.342C165.684 204.719 163.16 204.715 163.176 206.342Z" fill="black"/>
<path d="M192.874 187.413C192.874 184.96 190.902 182.964 188.45 182.934C181.514 182.845 174.273 182.861 168.692 182.9C164.285 182.9 160.177 185.128 157.773 188.821C155.369 192.515 154.995 197.174 156.78 201.203L158.049 204.069L161.265 211.141C162.082 212.938 163.95 214.019 165.915 213.832C167.88 213.645 169.51 212.232 169.974 210.313C170.172 209.466 170.285 208.602 170.311 207.733C166.293 206.188 168.147 200.315 170.929 201.242C173.711 202.17 173.402 208.66 173.402 208.66C173.402 208.66 174.387 208.266 174.784 204.173C175 202.092 176.709 200.483 178.8 200.394H179.894C187.063 200.394 192.875 194.582 192.875 187.413L192.874 187.413Z" fill="#FFC41F"/>
<path d="M194.136 187.413C194.121 185.745 193.394 184.163 192.138 183.066C190.755 181.892 189.195 181.679 187.441 181.659C183.143 181.611 178.844 181.595 174.545 181.61C171.289 181.618 167.786 181.282 164.624 182.217C161.778 183.066 159.268 184.783 157.445 187.128C155.611 189.48 154.548 192.341 154.402 195.32C154.371 197.915 154.959 200.481 156.117 202.804C157.422 205.752 158.751 208.69 160.103 211.618C161.197 214.054 163.79 215.453 166.427 215.028C167.84 214.815 169.123 214.085 170.028 212.98C171.226 211.493 171.486 209.588 171.573 207.733C171.561 207.169 171.187 206.677 170.647 206.516C169.555 206.033 168.995 204.813 169.339 203.67C169.397 203.388 169.513 203.121 169.678 202.885C169.885 202.572 169.575 202.972 169.819 202.703C169.827 202.694 170.118 202.439 169.962 202.558C170.26 202.331 170.428 202.303 170.786 202.57C171.632 203.201 171.908 204.883 172.036 205.973C172.143 206.865 172.178 207.763 172.14 208.66C172.15 209.108 172.393 209.518 172.782 209.741C173.17 209.964 173.647 209.968 174.039 209.75C175.116 209.279 175.514 207.486 175.715 206.501C175.967 205.266 175.831 203.794 176.661 202.761C177.286 202.022 178.218 201.613 179.185 201.655C181.553 201.71 183.903 201.229 186.06 200.25C190.996 197.878 194.135 192.888 194.137 187.412C194.11 186.734 193.553 186.198 192.875 186.198C192.196 186.198 191.639 186.734 191.613 187.412C191.586 192.069 188.832 196.278 184.576 198.167C182.687 198.997 180.84 199.043 178.831 199.131C176.304 199.222 174.16 201.012 173.619 203.482C173.386 204.706 173.349 206.169 172.892 207.237C172.89 207.24 172.757 207.483 172.712 207.579C172.591 207.833 172.761 207.574 172.704 207.606C172.409 207.772 172.941 207.493 172.765 207.57L174.664 208.66C174.774 206.228 174.552 203.154 172.956 201.201C171.981 199.915 170.212 199.536 168.796 200.31C167.489 201.198 166.714 202.68 166.729 204.26C166.689 206.359 167.997 208.248 169.976 208.95L169.049 207.733C168.949 209.866 168.407 212.249 165.916 212.569C164.196 212.79 162.942 211.776 162.257 210.288C161.115 207.807 159.977 205.323 158.871 202.826C157.975 201.103 157.342 199.257 156.991 197.347C156.7 194.912 157.179 192.448 158.359 190.299C159.53 188.165 161.322 186.44 163.498 185.351C165.956 184.12 168.544 184.16 171.222 184.146C175.334 184.125 179.447 184.126 183.559 184.149C184.628 184.156 185.698 184.165 186.767 184.176C187.651 184.102 188.54 184.163 189.405 184.358C190.716 184.803 191.601 186.028 191.612 187.412C191.655 189.034 194.18 189.04 194.136 187.413Z" fill="black"/>
<path d="M476.038 213.817C476.618 221.916 472.831 229.709 466.103 234.256C459.376 238.803 450.733 239.412 443.434 235.854C436.135 232.296 431.291 225.112 430.729 217.012L476.038 213.817Z" fill="#A8542A"/>
<path d="M474.776 213.817C475.658 225.631 466.796 235.924 454.981 236.806C443.167 237.689 432.874 228.826 431.991 217.012L430.729 218.274L446.04 217.194L470.441 215.473L476.038 215.079C477.649 214.965 477.662 212.44 476.038 212.555L460.727 213.634L436.326 215.355L430.729 215.75C430.036 215.758 429.476 216.318 429.467 217.012C430.136 227.105 437.069 235.691 446.795 238.47C456.521 241.249 466.945 237.621 472.844 229.404C476.093 224.883 477.669 219.372 477.3 213.817C477.195 212.204 474.67 212.192 474.776 213.817Z" fill="black"/>
<path d="M466.054 218.704L463.867 190.143L440.139 200.846L440.439 219.661" fill="#A8542A"/>
<path d="M467.317 218.704L465.404 193.72L465.13 190.143C465.118 189.696 464.874 189.288 464.486 189.065C464.098 188.843 463.622 188.838 463.231 189.053L442.46 198.423L439.502 199.757C439.111 199.979 438.871 200.397 438.877 200.847L439.139 217.32L439.177 219.661C439.203 221.284 441.727 221.289 441.701 219.661L441.438 203.188L441.401 200.847L440.776 201.936L461.547 192.567L464.505 191.233L462.605 190.143L464.518 215.126L464.792 218.704C464.916 220.313 467.441 220.326 467.317 218.704V218.704Z" fill="black"/>
<path d="M464.632 200.003C477.993 188.422 473.099 177.768 473.42 169.823C473.606 165.209 466.997 155.586 466.997 155.586L428.891 147.121L420.534 159.873C420.534 159.873 404.55 212.954 449.041 202.827" fill="#A8542A"/>
<path d="M465.524 200.896C469.523 197.4 472.899 193.097 474.379 187.927C475.456 184.165 475.404 180.261 475.064 176.399C474.919 174.747 474.733 173.095 474.68 171.436C474.729 169.806 474.552 168.176 474.155 166.594C473.065 163.041 471.129 159.711 469.154 156.584C468.716 155.89 468.159 154.657 467.332 154.368C467.053 154.29 466.77 154.227 466.484 154.18L460.854 152.929L442.097 148.763C437.88 147.826 433.672 146.813 429.439 145.951C429.368 145.937 429.297 145.92 429.227 145.904C428.676 145.769 428.101 146.003 427.802 146.484L423.046 153.741L420.136 158.18C419.8 158.614 419.52 159.089 419.301 159.592C418.433 162.418 417.804 165.313 417.421 168.244C416.422 173.822 416.227 179.515 416.842 185.148C417.587 190.9 419.592 196.805 424.15 200.664C430.077 205.682 438.243 205.941 445.57 204.782C446.847 204.58 448.116 204.329 449.377 204.044C450.961 203.687 450.291 201.253 448.706 201.61C444.404 202.688 439.954 203.051 435.534 202.684C432.473 202.409 429.531 201.373 426.973 199.67C425.91 198.918 424.943 198.039 424.095 197.052C423.689 196.592 423.319 196.103 422.988 195.587C422.621 195.035 422.282 194.465 421.973 193.878C421.36 192.735 420.866 191.533 420.498 190.289C420.083 188.953 419.759 187.591 419.53 186.212C419.387 185.369 419.35 185.091 419.263 184.289C419.186 183.573 419.126 182.854 419.085 182.134C419.003 180.723 418.984 179.309 419.017 177.897C419.049 176.528 419.13 175.16 419.25 173.796C419.309 173.134 419.377 172.473 419.454 171.813C419.49 171.501 419.528 171.191 419.568 170.88C419.579 170.799 419.634 170.392 419.595 170.678C419.619 170.501 419.643 170.325 419.669 170.149C420.146 166.907 420.81 163.696 421.657 160.531C421.676 160.462 421.753 160.316 421.74 160.245C421.742 160.259 421.493 160.659 421.738 160.335C422.491 159.34 423.121 158.224 423.805 157.181L429.59 148.355L429.981 147.758L428.556 148.338L441.426 151.196L461.945 155.754L466.661 156.802L465.907 156.222C467.019 157.844 468.039 159.537 468.993 161.255C470.344 163.691 472.112 166.741 472.16 169.539C472.208 172.306 472.454 175.026 472.652 177.787C472.975 180.96 472.736 184.166 471.945 187.255C470.581 192.019 467.416 195.896 463.739 199.11C462.514 200.181 464.305 201.961 465.524 200.895L465.524 200.896Z" fill="black"/>
<path d="M436.049 171.22C436.269 171.073 436.498 170.942 436.736 170.827C436.852 170.768 436.969 170.715 437.086 170.66C437.256 170.581 437.146 170.636 437.04 170.678C437.12 170.646 437.199 170.613 437.279 170.583C437.629 170.449 437.987 170.337 438.35 170.247C438.546 170.198 438.743 170.156 438.941 170.12C438.966 170.116 439.338 170.058 439.065 170.095C439.164 170.081 439.264 170.071 439.364 170.062C439.855 170.017 440.348 170.013 440.84 170.052C441.03 170.061 441.219 170.086 441.405 170.128C441.671 170.179 441.935 170.242 442.196 170.317C442.773 170.487 443.328 170.721 443.853 171.013C444.455 171.365 445.228 171.162 445.58 170.56C445.932 169.959 445.729 169.185 445.127 168.834C442.927 167.6 440.351 167.219 437.889 167.763C436.78 167.99 435.723 168.423 434.775 169.041C434.188 169.404 433.989 170.163 434.322 170.768C434.678 171.364 435.446 171.566 436.049 171.22V171.22Z" fill="black"/>
<path d="M419.898 171.223C420.141 171.105 419.611 171.317 419.988 171.185C420.296 171.078 420.602 170.97 420.917 170.883C421.947 170.604 423.012 170.476 424.079 170.502C425.905 170.494 427.526 171.669 428.086 173.407C428.596 175.087 427.942 177.009 427.184 178.518C426.643 179.595 425.978 180.604 425.202 181.527C424.733 181.956 424.42 182.528 424.311 183.155C424.26 183.572 424.286 183.995 424.388 184.403C425.016 186.723 427.769 186.581 429.644 186.32C430.313 186.131 430.706 185.439 430.526 184.768C430.325 184.108 429.643 183.72 428.973 183.886C428.288 184.028 427.579 184.01 426.902 183.831C426.83 183.8 426.825 183.77 426.819 183.753C426.823 183.765 426.809 183.704 426.81 183.679C426.814 183.574 426.806 183.383 426.815 183.326L426.49 183.883C429.347 180.671 432.515 175.222 429.728 171.022C427.332 167.413 422.246 167.285 418.625 169.044C417.164 169.753 418.442 171.931 419.899 171.223L419.898 171.223Z" fill="black"/>
<circle cx="421.664" cy="177.359" r="1.63276" fill="black"/>
<path d="M420.663 177.397C420.663 177.344 420.643 177.217 420.673 177.171L420.663 177.251C420.668 177.222 420.674 177.193 420.68 177.164C420.687 177.136 420.694 177.107 420.702 177.08C420.714 177.038 420.729 176.997 420.743 176.956C420.772 176.867 420.723 176.973 420.729 176.988C420.715 176.952 420.835 176.799 420.855 176.765C420.925 176.646 420.784 176.833 420.846 176.773C420.871 176.749 420.892 176.719 420.915 176.693C420.943 176.663 421.034 176.546 421.07 176.547C421.048 176.547 420.968 176.617 421.044 176.568C421.08 176.545 421.114 176.52 421.151 176.499C421.176 176.484 421.201 176.47 421.226 176.457C421.252 176.443 421.277 176.431 421.303 176.419C421.225 176.451 421.208 176.458 421.252 176.441C421.323 176.426 421.391 176.394 421.461 176.377C421.484 176.372 421.55 176.347 421.57 176.356C421.5 176.325 421.462 176.368 421.559 176.361C421.634 176.357 421.71 176.357 421.786 176.362C421.872 176.369 421.856 176.409 421.773 176.358C421.815 176.372 421.858 176.381 421.902 176.386C421.974 176.395 422.044 176.418 422.108 176.454L422.036 176.424C422.062 176.436 422.087 176.449 422.113 176.463C422.138 176.476 422.163 176.49 422.187 176.505C422.215 176.526 422.245 176.546 422.276 176.563C422.353 176.595 422.167 176.464 422.267 176.555C422.331 176.612 422.389 176.671 422.449 176.733C422.531 176.818 422.435 176.707 422.43 176.705C422.456 176.718 422.487 176.786 422.503 176.811C422.524 176.845 422.615 176.965 422.605 176.999C422.605 176.999 422.553 176.85 422.591 176.968C422.604 177.01 422.619 177.051 422.63 177.093C422.638 177.121 422.645 177.15 422.652 177.179C422.658 177.207 422.663 177.237 422.668 177.266C422.658 177.179 422.655 177.161 422.659 177.209C422.662 177.278 422.668 177.345 422.666 177.414C422.67 177.459 422.667 177.504 422.656 177.548C422.691 177.491 422.677 177.44 422.658 177.512C422.639 177.582 422.625 177.653 422.601 177.722L422.587 177.763C422.562 177.827 422.566 177.817 422.6 177.731C422.607 177.748 422.549 177.833 422.541 177.846C422.524 177.877 422.503 177.906 422.486 177.936C422.458 177.985 422.451 178.05 422.497 177.929C422.459 177.989 422.411 178.043 422.355 178.087C422.327 178.109 422.301 178.133 422.276 178.158C422.224 178.224 422.4 178.077 422.286 178.151C422.213 178.197 422.14 178.24 422.065 178.282C421.998 178.319 422.061 178.312 422.097 178.271C422.059 178.292 422.017 178.306 421.974 178.314C421.911 178.333 421.846 178.344 421.781 178.359C421.691 178.381 421.941 178.353 421.793 178.357C421.755 178.358 421.717 178.361 421.679 178.362C421.641 178.362 421.604 178.361 421.566 178.359C421.536 178.357 421.506 178.355 421.477 178.351L421.557 178.361C421.529 178.385 421.344 178.31 421.303 178.296C421.278 178.288 421.182 178.226 421.258 178.281C421.339 178.339 421.198 178.247 421.179 178.236C421.155 178.222 421.13 178.208 421.106 178.192C421.083 178.177 421.059 178.161 421.036 178.145C421.106 178.201 421.115 178.208 421.062 178.165C421.01 178.117 420.957 178.071 420.909 178.019L420.881 177.987C420.837 177.935 420.844 177.944 420.899 178.015C420.87 177.984 420.846 177.948 420.827 177.909C420.804 177.873 420.783 177.836 420.763 177.798L420.743 177.76C420.715 177.697 420.718 177.708 420.755 177.792C420.712 177.755 420.69 177.593 420.678 177.541C420.676 177.512 420.67 177.482 420.662 177.454C420.673 177.548 420.676 177.559 420.668 177.488C420.666 177.458 420.665 177.427 420.664 177.397C420.664 177.048 420.381 176.766 420.033 176.766C419.684 176.766 419.402 177.048 419.402 177.397C419.43 178.352 420.045 179.191 420.947 179.506C421.832 179.801 422.808 179.523 423.403 178.805C424.044 178.034 424.101 176.933 423.543 176.099C422.985 175.266 421.944 174.9 420.987 175.2C420.03 175.5 419.385 176.394 419.402 177.397C419.402 177.745 419.685 178.028 420.033 178.028C420.382 178.028 420.664 177.745 420.664 177.397L420.663 177.397Z" fill="black"/>
<circle cx="437.038" cy="176.388" r="1.63276" fill="black"/>
<path d="M436.036 176.425C436.036 176.373 436.016 176.246 436.046 176.2L436.036 176.279C436.041 176.251 436.047 176.222 436.053 176.193C436.06 176.165 436.067 176.137 436.075 176.109C436.087 176.067 436.102 176.026 436.116 175.985C436.145 175.896 436.096 176.002 436.102 176.016C436.088 175.981 436.208 175.828 436.228 175.794C436.298 175.675 436.157 175.862 436.219 175.802C436.244 175.777 436.264 175.747 436.288 175.722C436.316 175.692 436.407 175.575 436.443 175.576C436.42 175.575 436.341 175.646 436.417 175.597C436.453 175.574 436.487 175.549 436.524 175.528C436.549 175.513 436.574 175.499 436.599 175.486C436.624 175.473 436.65 175.46 436.677 175.448C436.598 175.48 436.581 175.487 436.626 175.47C436.696 175.455 436.764 175.423 436.835 175.406C436.858 175.401 436.923 175.376 436.943 175.385C436.873 175.354 436.835 175.397 436.932 175.39C437.008 175.386 437.084 175.386 437.159 175.391C437.245 175.398 437.23 175.438 437.146 175.388C437.188 175.401 437.231 175.41 437.275 175.415C437.347 175.424 437.417 175.447 437.481 175.483L437.409 175.453C437.435 175.465 437.461 175.478 437.486 175.492C437.511 175.505 437.536 175.519 437.56 175.534C437.589 175.555 437.619 175.575 437.65 175.592C437.726 175.624 437.54 175.493 437.64 175.584C437.704 175.641 437.762 175.7 437.822 175.762C437.904 175.847 437.808 175.736 437.804 175.734C437.829 175.747 437.861 175.815 437.876 175.84C437.898 175.874 437.988 175.994 437.978 176.028C437.978 176.028 437.926 175.879 437.964 175.997C437.977 176.039 437.992 176.08 438.004 176.122C438.011 176.15 438.018 176.179 438.025 176.208C438.031 176.236 438.037 176.266 438.041 176.295C438.031 176.208 438.028 176.19 438.033 176.238C438.035 176.307 438.041 176.374 438.039 176.443C438.043 176.488 438.04 176.533 438.029 176.577C438.064 176.52 438.05 176.469 438.031 176.541C438.013 176.611 437.998 176.682 437.974 176.751L437.96 176.792C437.934 176.856 437.939 176.846 437.973 176.76C437.98 176.777 437.922 176.862 437.914 176.875C437.897 176.905 437.876 176.935 437.859 176.965C437.831 177.014 437.824 177.079 437.87 176.958C437.832 177.018 437.783 177.072 437.727 177.116C437.7 177.138 437.673 177.162 437.649 177.187C437.597 177.252 437.773 177.106 437.659 177.18C437.586 177.227 437.513 177.269 437.438 177.311C437.371 177.348 437.434 177.341 437.47 177.3C437.432 177.321 437.39 177.335 437.347 177.343C437.284 177.362 437.219 177.373 437.154 177.389C437.064 177.41 437.314 177.382 437.166 177.386C437.128 177.387 437.09 177.39 437.052 177.391C437.014 177.391 436.977 177.39 436.939 177.388C436.909 177.386 436.879 177.384 436.85 177.38L436.93 177.39C436.902 177.414 436.717 177.339 436.676 177.325C436.651 177.317 436.555 177.255 436.631 177.31C436.712 177.368 436.571 177.276 436.552 177.265C436.528 177.251 436.503 177.237 436.479 177.221C436.455 177.206 436.432 177.19 436.409 177.174C436.479 177.23 436.488 177.237 436.435 177.194C436.383 177.147 436.33 177.1 436.282 177.048L436.254 177.016C436.21 176.964 436.216 176.973 436.272 177.044C436.243 177.013 436.219 176.977 436.2 176.938C436.177 176.902 436.156 176.865 436.136 176.827L436.116 176.789C436.088 176.726 436.091 176.737 436.128 176.821C436.085 176.784 436.063 176.622 436.051 176.57C436.048 176.541 436.043 176.512 436.035 176.483C436.046 176.577 436.049 176.588 436.041 176.517C436.039 176.487 436.037 176.456 436.037 176.426C436.037 176.077 435.754 175.795 435.406 175.795C435.057 175.795 434.775 176.077 434.775 176.426C434.803 177.381 435.418 178.22 436.32 178.535C437.205 178.83 438.18 178.552 438.775 177.834C439.417 177.063 439.474 175.962 438.915 175.128C438.357 174.295 437.317 173.929 436.36 174.229C435.403 174.529 434.758 175.423 434.775 176.426C434.775 176.774 435.057 177.057 435.406 177.057C435.754 177.057 436.037 176.774 436.037 176.426L436.036 176.425Z" fill="black"/>
<path d="M433.022 189.641C433.447 190.474 434.284 191.017 435.217 191.066C436.151 191.114 437.039 190.661 437.548 189.877C438.057 189.092 438.109 188.096 437.684 187.263L433.022 189.641Z" fill="black"/>
<path d="M432.478 189.96C433.108 191.16 434.418 191.841 435.762 191.671C437.107 191.5 438.204 190.512 438.515 189.193C438.684 188.433 438.583 187.638 438.229 186.945C438.05 186.649 437.668 186.549 437.366 186.719L433.276 188.805L432.704 189.096C432.403 189.272 432.302 189.659 432.477 189.96C432.653 190.261 433.04 190.362 433.341 190.186L437.43 188.1L438.003 187.808L437.14 187.582C437.159 187.621 437.178 187.66 437.196 187.7C437.175 187.648 437.178 187.658 437.205 187.728C437.232 187.809 437.259 187.888 437.28 187.971C437.302 188.052 437.318 188.133 437.331 188.216C437.315 188.106 437.334 188.27 437.335 188.295C437.34 188.377 437.341 188.459 437.338 188.541C437.337 188.565 437.314 188.806 437.332 188.677C437.311 188.818 437.278 188.957 437.234 189.092C437.227 189.114 437.139 189.329 437.187 189.225C437.153 189.299 437.116 189.371 437.075 189.442C437.045 189.495 437.012 189.547 436.978 189.598C436.955 189.632 436.931 189.665 436.907 189.698C436.943 189.651 436.937 189.657 436.89 189.715C436.803 189.808 436.647 189.966 436.593 190.01C436.475 190.095 436.352 190.171 436.224 190.238C436.12 190.294 436.01 190.336 435.896 190.363C435.815 190.386 435.733 190.402 435.651 190.419C435.575 190.431 435.569 190.433 435.634 190.423C435.593 190.428 435.552 190.431 435.511 190.434C435.368 190.442 435.224 190.439 435.081 190.424C435.209 190.437 434.973 190.403 434.948 190.397C434.869 190.379 434.791 190.358 434.713 190.332C434.656 190.314 434.598 190.294 434.542 190.27C434.648 190.315 434.436 190.214 434.417 190.204C434.345 190.164 434.276 190.122 434.208 190.077C434.174 190.054 434.141 190.03 434.108 190.006C434.154 190.041 434.149 190.036 434.091 189.989C433.982 189.891 433.88 189.787 433.785 189.677C433.845 189.749 433.709 189.568 433.696 189.548C433.65 189.475 433.608 189.399 433.567 189.322C433.453 189.128 433.244 189.009 433.019 189.01C432.793 189.011 432.586 189.132 432.474 189.328C432.362 189.524 432.364 189.765 432.477 189.959L432.478 189.96Z" fill="black"/>
<path d="M463.444 169.355C462.736 169.158 461.986 169.16 461.28 169.364C459.697 169.883 458.402 171.038 457.705 172.552C457.014 173.945 456.532 175.433 456.277 176.967C456.091 177.639 456.486 178.334 457.158 178.519C457.831 178.705 458.526 178.31 458.711 177.638C458.838 176.935 459.004 176.239 459.207 175.554C459.292 175.27 459.386 174.989 459.489 174.711C459.535 174.59 459.587 174.471 459.631 174.349C459.695 174.176 459.501 174.636 459.617 174.384C459.65 174.312 459.682 174.239 459.716 174.167C459.904 173.762 460.125 173.373 460.377 173.005C460.401 172.97 460.426 172.937 460.45 172.903C460.526 172.791 460.639 172.756 460.398 172.965C460.451 172.908 460.5 172.848 460.544 172.785C460.66 172.649 460.784 172.518 460.913 172.395C460.973 172.338 461.035 172.282 461.098 172.229C461.123 172.208 461.148 172.188 461.172 172.167C461.322 172.036 460.924 172.344 461.046 172.264C461.168 172.184 461.283 172.096 461.41 172.022C461.52 171.958 461.634 171.907 461.747 171.849C461.899 171.771 461.375 171.985 461.635 171.898C461.697 171.878 461.758 171.854 461.82 171.835C461.915 171.806 462.012 171.781 462.109 171.76C462.16 171.75 462.212 171.743 462.262 171.732C462.409 171.699 461.846 171.772 462.101 171.755C462.26 171.741 462.42 171.738 462.58 171.745C462.621 171.748 462.662 171.753 462.704 171.755C462.912 171.767 462.402 171.703 462.478 171.724C462.529 171.738 462.586 171.742 462.638 171.753C462.683 171.763 462.728 171.775 462.773 171.789C463.444 171.969 464.136 171.576 464.325 170.907C464.493 170.238 464.105 169.554 463.444 169.355V169.355Z" fill="black"/>
<path d="M483.284 169.478L473.44 194.314C472.055 197.807 468.649 200.073 464.892 200.001L464.64 199.996L464.632 200.003L462.459 184.706C464.545 182.852 467.283 176.098 467.046 172.337C466.687 166.655 463.553 165.511 459.584 165.762C458.139 165.853 456.703 166.945 455.475 168.56C452.635 172.6 453.6 181.575 453.6 181.575L449.466 168.074C447.666 163.438 443.25 160.344 438.278 160.237L420.413 159.852C420.413 159.852 394.994 157.211 403.828 128.184H446.739C457.986 128.184 468.432 133.999 474.359 143.557L477.869 149.218C480.763 149.218 483.477 150.625 485.145 152.989C486.814 155.354 487.23 158.382 486.26 161.109L483.284 169.478Z" fill="#FFC41F"/>
<path d="M482.067 169.143L477.598 180.418C475.844 184.842 474.109 189.274 472.337 193.69C471.849 194.944 471.061 196.059 470.04 196.936C469.135 197.693 468.069 198.233 466.924 198.514C466.343 198.659 465.746 198.735 465.148 198.74C464.647 198.669 464.14 198.803 463.739 199.111L465.848 199.668L463.953 186.321L463.676 184.37L463.351 185.598C464.408 184.521 465.257 183.257 465.854 181.871C466.689 180.157 467.343 178.361 467.806 176.511C468.605 173.256 468.668 169.183 466.253 166.552C464.275 164.396 460.181 163.777 457.587 165.043C454.092 166.747 452.849 170.586 452.407 174.158C452.103 176.62 452.08 179.108 452.338 181.574L454.817 181.239L452.545 173.82C451.76 171.257 451.198 168.427 449.915 166.049C447.537 161.753 443.045 159.054 438.135 158.972C435.44 158.904 432.745 158.856 430.05 158.798L420.933 158.601C420.76 158.597 420.585 158.587 420.412 158.59C420.154 158.594 420.422 158.588 420.53 158.607C420.085 158.526 419.639 158.463 419.196 158.369C415.047 157.595 411.222 155.605 408.206 152.653C406.12 150.528 404.634 147.889 403.899 145.003C402.839 140.946 403.126 136.634 403.992 132.57C404.283 131.205 404.642 129.856 405.045 128.52L403.828 129.446H446.069C449.784 129.407 453.479 129.992 457 131.177C462.567 133.125 467.474 136.598 471.164 141.199C473.309 143.863 474.815 146.956 476.729 149.776C477.388 150.747 478.663 150.442 479.688 150.694C480.888 150.983 481.998 151.562 482.921 152.382C484.789 154.044 485.74 156.506 485.476 158.992C485.221 160.359 484.814 161.692 484.263 162.969L482.447 168.074L482.067 169.143C481.521 170.676 483.959 171.336 484.501 169.814L487.193 162.243C487.799 160.733 488.081 159.112 488.021 157.486C487.853 155.081 486.851 152.81 485.187 151.064C483.269 149.08 480.628 147.959 477.868 147.956L478.958 148.582C477.797 146.71 476.642 144.834 475.476 142.966C469.184 132.774 457.97 126.672 445.995 126.922H414.849C411.24 126.922 407.607 126.8 404 126.922C403.943 126.924 403.885 126.922 403.828 126.922C403.264 126.932 402.77 127.307 402.611 127.849C400.256 135.656 399.368 144.928 404.348 151.951C407.325 156.149 411.849 158.932 416.743 160.354C417.904 160.717 419.097 160.967 420.306 161.102C421.939 161.248 423.616 161.184 425.255 161.219L435.872 161.448C436.667 161.465 437.462 161.475 438.257 161.499C440.655 161.558 442.969 162.39 444.857 163.869C446.427 165.082 447.621 166.715 448.3 168.579C448.658 169.664 448.971 170.767 449.305 171.86L452.185 181.265L452.383 181.91C452.78 183.205 455.018 183.049 454.862 181.575C454.502 178.179 454.518 174.427 455.599 171.165C455.966 170.032 456.613 169.01 457.481 168.195C458.347 167.332 459.549 166.893 460.767 166.994C462.616 167.028 464.311 167.605 465.133 169.38C466.177 171.633 465.828 174.242 465.187 176.546C464.61 178.915 463.592 181.153 462.187 183.145C461.652 183.838 461.123 184.19 461.259 185.166C461.313 185.552 461.369 185.938 461.423 186.324L462.107 191.136L463.414 200.339C463.557 201.344 464.902 201.463 465.524 200.896L465.532 200.889L464.639 201.259C469.039 201.381 473.045 198.735 474.66 194.641C475.181 193.354 475.683 192.06 476.195 190.769L482.739 174.26L484.501 169.814C484.68 169.143 484.288 168.452 483.62 168.262C482.95 168.092 482.265 168.481 482.067 169.143Z" fill="black"/>
<path d="M642.777 272.899L659.661 258.723C661.959 257.337 664.034 255.609 665.814 253.6C669.867 249.023 674.323 245.595 680.357 244.616L682.705 239.897C682.705 239.897 662.838 215.386 659.911 215.918L651.725 215.221C652.517 213.24 652.078 210.978 650.601 209.437C649.474 208.262 647.88 207.653 646.256 207.779C644.633 207.904 643.151 208.75 642.218 210.085L638.426 215.509C636.057 218.897 634.455 222.759 633.729 226.829L632.864 231.683C631.901 237.084 628.746 241.844 624.148 244.836L622.868 245.668" fill="#A8542A"/>
<path d="M643.669 273.792L656.374 263.125C657.959 261.713 659.617 260.386 661.343 259.149C663.954 257.405 665.962 255.189 668.127 252.956C670.058 250.892 672.303 249.147 674.781 247.787C676.136 247.075 677.574 246.53 679.061 246.166C679.865 245.968 680.947 246.003 681.447 245.253C681.539 245.094 681.62 244.93 681.691 244.762L683.795 240.534C684.063 240.034 683.983 239.42 683.598 239.004C680.286 234.92 676.892 230.902 673.417 226.951C670.948 224.141 668.444 221.348 665.778 218.723C664.799 217.734 663.762 216.805 662.672 215.94C661.963 215.259 661.062 214.809 660.091 214.651C659.982 214.648 659.887 214.673 659.776 214.673C659.274 214.677 660.068 214.778 659.834 214.649C659.598 214.592 659.355 214.571 659.114 214.588L656.342 214.352L651.724 213.959L652.941 215.556C653.766 213.246 653.274 210.671 651.656 208.827C650.038 206.983 647.548 206.16 645.151 206.678C641.894 207.403 640.26 210.689 638.501 213.206C636.069 216.683 634.024 220.276 632.96 224.428C632.21 227.352 632.021 230.405 631.193 233.308C630.441 235.957 629.106 238.404 627.286 240.47C625.796 242.063 624.095 243.445 622.231 244.578C620.874 245.461 622.138 247.647 623.505 246.758C626.996 244.487 629.997 241.835 631.97 238.095C633.595 235.013 634.133 231.724 634.735 228.347C635.403 224.028 637.005 219.907 639.429 216.27C640.686 214.447 641.931 212.605 643.239 210.819C644.468 209.05 646.839 208.504 648.718 209.555C650.597 210.607 651.371 212.913 650.507 214.885C650.408 215.265 650.489 215.669 650.727 215.98C650.964 216.292 651.332 216.478 651.724 216.483L655.467 216.801C656.901 216.923 658.372 217.157 659.812 217.171C659.844 217.171 659.876 217.178 659.908 217.179C660.915 217.208 659.81 217.148 660.033 217.172C660.258 217.196 659.654 217.123 659.902 217.158C659.976 217.169 660.047 217.193 660.114 217.227C659.683 216.993 660.201 217.287 660.311 217.352C660.503 217.465 660.688 217.591 660.869 217.72C660.966 217.79 661.062 217.862 661.158 217.934C661.152 217.929 661.07 217.862 661.247 218.007C661.499 218.213 661.749 218.421 661.994 218.636C662.504 219.082 663 219.545 663.488 220.016C668.719 225.055 673.412 230.691 678.068 236.256C679.326 237.759 680.574 239.27 681.813 240.789L681.615 239.259L679.267 243.979L680.021 243.399C675.072 244.236 670.784 246.841 667.214 250.298C665.339 252.114 663.727 254.155 661.68 255.796C660.635 256.633 659.445 257.262 658.422 258.121L646.182 268.398L641.884 272.007C640.639 273.053 642.432 274.83 643.669 273.792V273.792Z" fill="black"/>
<path d="M667.896 237.929C676.392 235.52 685.207 234.436 694.033 234.716C702.991 235.91 702.372 242.453 693.567 243.39C684.762 244.326 681.135 242.903 671.251 248.748" fill="#A8542A"/>
<path d="M668.232 239.146C670.544 238.449 672.895 237.888 675.272 237.464C680.896 236.377 686.616 235.865 692.343 235.934C694.417 235.964 697.032 236.216 698.601 237.777C698.821 237.969 698.994 238.208 699.106 238.477C699.138 238.55 699.162 238.627 699.175 238.706C699.213 238.87 699.208 238.681 699.206 238.969C699.208 239.138 699.177 239.307 699.114 239.464C699.004 239.73 698.839 239.97 698.631 240.17C697.228 241.612 694.943 241.995 693.035 242.182C690.761 242.405 688.479 242.48 686.2 242.625C683.836 242.734 681.491 243.105 679.208 243.731C676.193 244.683 673.307 246.002 670.614 247.658C670.039 248.022 669.856 248.775 670.199 249.363C670.542 249.95 671.289 250.16 671.888 249.838C674.391 248.289 677.075 247.056 679.879 246.165C681.975 245.586 684.129 245.243 686.302 245.143C688.77 244.989 691.246 244.921 693.705 244.636C696.036 244.365 698.571 243.754 700.309 242.063C701.63 240.89 702.055 239.005 701.365 237.378C700.531 235.533 698.505 234.517 696.658 233.973C693.53 233.052 690.037 233.348 686.819 233.524C683.708 233.699 680.609 234.031 677.533 234.521C674.159 235.003 670.826 235.735 667.561 236.712C666.018 237.199 666.677 239.636 668.232 239.146L668.232 239.146Z" fill="black"/>
<path d="M667.532 228.26C667.532 228.26 681.352 222.557 695.497 220.394C704.52 219.885 705.14 226.428 696.667 229.001C688.194 231.574 680.487 234.571 666.301 239.964" fill="#A8542A"/>
<path d="M667.868 229.477C670.866 228.242 673.948 227.188 677.033 226.198C680.129 225.204 683.255 224.304 686.411 223.522C688.136 223.095 689.87 222.707 691.612 222.357C693.327 221.924 695.084 221.681 696.852 221.633C697.932 221.621 699.003 221.825 700.002 222.234C700.323 222.379 700.621 222.569 700.887 222.799C700.972 222.875 701.05 222.958 701.121 223.047C701.165 223.109 701.37 223.53 701.304 223.351C701.488 223.852 701.4 224.413 701.071 224.834C700.541 225.604 699.83 226.231 699 226.66C696.949 227.843 694.493 228.338 692.255 229.072C690.007 229.81 687.772 230.588 685.546 231.389C678.985 233.749 672.482 236.269 665.965 238.747C664.462 239.319 665.114 241.76 666.636 241.181C672.908 238.797 679.167 236.375 685.476 234.09C687.851 233.23 690.235 232.393 692.634 231.602C695.112 230.785 697.785 230.211 700.081 228.948C701.919 227.936 703.839 226.221 703.919 223.966C703.994 221.816 702.269 220.366 700.407 219.69C697.281 218.557 693.919 219.324 690.78 219.955C687.11 220.692 683.48 221.619 679.89 222.677C675.586 223.911 671.349 225.368 667.196 227.043C666.539 227.247 666.153 227.926 666.315 228.595C666.503 229.264 667.195 229.658 667.867 229.476L667.868 229.477Z" fill="black"/>
<path d="M660.553 221.787C660.553 221.787 676.44 210.285 689.722 204.961C698.393 202.412 700.486 208.643 692.821 213.076C685.155 217.509 678.332 222.181 665.745 230.66" fill="#A8542A"/>
<path d="M661.19 222.877C668.845 217.273 676.983 212.361 685.507 208.199C688.157 206.926 691.118 205.282 694.168 205.669C694.545 205.714 694.915 205.807 695.268 205.946C695.391 206.001 695.747 206.216 695.735 206.207C695.857 206.299 695.965 206.409 696.056 206.532C696.201 206.723 696.153 206.655 696.202 206.795C696.236 206.895 696.263 206.998 696.282 207.102C696.321 207.312 696.271 206.934 696.285 207.152C696.319 207.547 696.242 207.944 696.062 208.297C695.055 210.658 692.328 211.885 690.253 213.119C688.077 214.412 685.925 215.744 683.797 217.115C677.494 221.155 671.316 225.388 665.108 229.571C663.768 230.474 665.03 232.661 666.382 231.75C672.318 227.751 678.228 223.71 684.241 219.828C686.53 218.351 688.838 216.903 691.177 215.506C693.678 214.013 696.468 212.631 697.998 210.024C699.152 208.058 699.132 205.559 697.158 204.14C694.911 202.523 691.312 202.953 688.909 203.938C682.494 206.674 676.318 209.941 670.445 213.703C666.869 215.925 663.328 218.229 659.916 220.698C658.613 221.641 659.871 223.832 661.19 222.877L661.19 222.877Z" fill="black"/>
<path d="M651.114 217.091C651.114 217.091 667.54 200.071 679.738 192.59C687.857 188.62 690.967 194.41 684.156 200.068C677.345 205.727 671.404 211.479 660.421 221.954" fill="#A8542A"/>
<path d="M652.006 217.983C658.349 211.371 665.118 205.181 672.271 199.454C674.689 197.506 677.212 195.692 679.828 194.019C681.16 193.154 682.691 192.647 684.276 192.546C684.783 192.508 685.292 192.581 685.768 192.759C686.031 192.876 686.257 193.062 686.422 193.298C686.804 193.909 686.615 194.887 686.201 195.728C685.389 197.179 684.281 198.442 682.95 199.438C680.896 201.152 678.877 202.907 676.893 204.703C670.988 210.029 665.282 215.574 659.528 221.062C658.351 222.185 660.137 223.968 661.313 222.847C666.808 217.606 672.263 212.316 677.883 207.208C680.027 205.259 682.206 203.351 684.422 201.484C686.669 199.6 689.444 196.944 689.128 193.703C688.851 190.859 686.08 189.777 683.541 190.084C680.036 190.507 677.187 192.645 674.417 194.666C668.956 198.733 663.745 203.125 658.811 207.818C655.888 210.546 652.999 213.322 650.222 216.199C649.093 217.368 650.876 219.155 652.007 217.984L652.006 217.983Z" fill="black"/>
<path d="M622.868 245.668L624.147 244.836C628.746 241.844 631.901 237.084 632.863 231.683L633.729 226.829C634.454 222.759 636.057 218.897 638.425 215.509L642.217 210.085C643.15 208.75 644.632 207.904 646.256 207.779C647.879 207.653 649.474 208.262 650.6 209.437C652.077 210.978 652.517 213.24 651.724 215.221L648.409 223.508C648.409 223.508 655.051 233.946 655.648 245.435" fill="#A8542A"/>
<path d="M623.505 246.758C626.409 245.006 628.921 242.675 630.885 239.91C632.638 237.183 633.794 234.116 634.278 230.911C634.676 228.062 635.315 225.251 636.189 222.51C637.322 219.645 638.832 216.944 640.68 214.479L642.806 211.439C643.282 210.634 643.954 209.962 644.759 209.485C648.102 207.76 651.796 211.117 650.604 214.625C649.985 216.445 649.174 218.218 648.46 220.002L647.349 222.78C647.117 223.3 647.161 223.902 647.467 224.383C651.129 230.847 653.962 237.941 654.387 245.435C654.478 247.05 657.003 247.061 656.911 245.435C656.52 240.017 655.192 234.707 652.987 229.743C652.012 227.361 650.845 225.063 649.499 222.871L649.626 223.843C650.72 221.11 651.841 218.386 652.907 215.641C653.969 212.927 653.154 209.837 650.891 208C648.628 206.163 645.436 206.001 642.998 207.599C641.509 208.588 640.584 210.225 639.579 211.663C638.602 213.061 637.581 214.439 636.664 215.877C634.767 218.856 633.419 222.15 632.685 225.604C632.323 227.316 632.055 229.052 631.748 230.775C631.285 233.668 630.196 236.426 628.557 238.854C626.848 241.162 624.697 243.108 622.23 244.579C620.874 245.461 622.137 247.647 623.504 246.758L623.505 246.758Z" fill="black"/>
<path d="M437.483 258.386L423.613 257.503L420.052 288.984L422.657 288.403C429.842 286.802 435.107 281.33 435.788 274.756L437.483 258.386Z" fill="white"/>
<path d="M437.483 257.124L423.613 256.241C422.922 256.256 422.366 256.812 422.351 257.503L421.145 268.166L419.233 285.071L418.79 288.984C418.692 289.846 419.671 290.361 420.388 290.201C423.475 289.513 426.481 288.793 429.191 287.068C432.609 284.944 435.171 281.687 436.43 277.865C436.924 275.967 437.225 274.024 437.329 272.065L438.166 263.98L438.745 258.386C438.74 257.691 438.178 257.129 437.483 257.124C436.792 257.138 436.236 257.695 436.221 258.386L434.955 270.615C434.804 272.073 434.693 273.54 434.5 274.993C433.949 278.62 431.998 281.886 429.066 284.091C426.282 286.235 423.066 287.02 419.717 287.767L421.315 288.984L422.521 278.32L424.433 261.415L424.876 257.503L423.614 258.765L437.484 259.648C439.105 259.751 439.099 257.227 437.483 257.124Z" fill="black"/>
</svg>
